<svg width="34" height="34" viewBox="0 0 34 34" fill="none" xmlns="http://www.w3.org/2000/svg">
<g clip-path="url(#clip0_195_4919)">
<path d="M32.379 19.9148H31.8702V15.3318C31.8702 14.6062 31.5091 13.9638 30.9576 13.5735V12.9495C30.9576 12.0443 30.2212 11.3079 29.316 11.3079H28.9361L30.3897 9.17494C30.8769 8.46001 30.6916 7.48191 29.9767 6.99462L20.1133 0.272979C19.767 0.036905 19.3496 -0.05022 18.9376 0.0279401C18.5258 0.105967 18.169 0.339651 17.933 0.686026L9.41966 13.1786H7.05062L7.62218 7.39259C7.62862 7.32738 7.67099 7.27087 7.73009 7.24863C8.46647 6.97098 9.10463 6.45248 9.52698 5.78868C9.56025 5.73642 9.623 5.70654 9.68795 5.71311L13.4037 6.08021C13.6701 6.10604 13.9071 5.912 13.9334 5.64571C13.9597 5.37942 13.7652 5.14229 13.4989 5.11599L9.78317 4.74889C9.35186 4.70666 8.94054 4.90541 8.70945 5.26852C8.39893 5.75661 7.92971 6.13778 7.3883 6.34191C6.98076 6.49558 6.70092 6.86161 6.65789 7.2973L6.07697 13.1785H5.45919L6.36312 4.02746C6.39565 3.69808 6.68964 3.4561 7.01941 3.4891L14.5282 4.23086C14.7945 4.25656 15.0317 4.06265 15.058 3.79636C15.0842 3.53007 14.8897 3.29294 14.6235 3.26664L7.11464 2.52488C6.25374 2.43995 5.4839 3.07114 5.39883 3.93216L4.67022 11.3079H3.42942C2.5243 11.3079 1.78786 12.0443 1.78786 12.9495V13.3751C1.04736 13.7161 0.531784 14.4646 0.531784 15.3318V31.8467C0.531784 33.034 1.49773 34 2.68514 34H29.7169C30.9043 34 31.8702 33.034 31.8702 31.8467V27.2637H32.379C32.9796 27.2637 33.4682 26.7752 33.4682 26.1747V21.004C33.4682 20.4034 32.9796 19.9148 32.379 19.9148ZM29.316 12.2769C29.687 12.2768 29.9887 12.5786 29.9887 12.9495V13.1964C29.8995 13.1851 29.809 13.1786 29.7169 13.1786H27.6613L28.2758 12.2769H29.316ZM18.7337 1.23162C18.824 1.09914 18.9604 1.00976 19.118 0.979874C19.1556 0.972768 19.1934 0.969183 19.2309 0.969183C19.3503 0.969183 19.4669 1.00491 19.5677 1.07357L29.4311 7.79522C29.7045 7.98162 29.7754 8.35575 29.5891 8.62921L26.4889 13.1784H25.7448L27.2648 10.9481C27.5113 10.5863 27.5316 10.126 27.3177 9.74663C27.0333 9.24261 26.918 8.64913 26.9931 8.07545C27.0489 7.64866 26.8611 7.23202 26.503 6.98805L21.3899 3.50358C21.0317 3.25953 20.5753 3.23716 20.1985 3.44521C19.6921 3.72478 19.0976 3.83455 18.5245 3.75433C18.0995 3.69469 17.6684 3.88661 17.4256 4.24288L11.3362 13.1785H10.5922L18.7337 1.23162ZM18.947 9.45876C16.8372 9.45876 15.1054 11.1038 14.9643 13.1785H12.5086L18.2261 4.78854C18.2262 4.78854 18.2262 4.78854 18.2262 4.78854C18.2587 4.74079 18.3125 4.71237 18.3678 4.71237C18.3752 4.71237 18.3826 4.7129 18.39 4.7139C19.1694 4.82294 19.9779 4.67379 20.6667 4.29348C20.7209 4.26346 20.7905 4.26778 20.8441 4.3043L25.9573 7.78884C26.0109 7.82536 26.0403 7.88858 26.0323 7.94994C25.9302 8.73015 26.0871 9.53725 26.4738 10.2227C26.5048 10.2777 26.501 10.3483 26.4642 10.4024L24.5724 13.1784H22.93C22.7888 11.1038 21.057 9.45876 18.947 9.45876ZM21.9584 13.1786H15.9357C16.0745 11.6387 17.3717 10.4278 18.947 10.4278C20.5225 10.4277 21.8197 11.6387 21.9584 13.1786ZM2.75679 12.9495C2.75679 12.5785 3.05848 12.2768 3.42942 12.2768H4.57453L4.48548 13.1785H2.75679V12.9495ZM1.50072 15.3318C1.50072 14.6788 2.03203 14.1474 2.68514 14.1474H29.7169C30.37 14.1474 30.9013 14.6788 30.9013 15.3318V16.6761H1.50072V15.3318ZM30.9013 31.8467C30.9013 32.4997 30.37 33.0311 29.7169 33.0311H2.68514C2.03203 33.0311 1.50072 32.4997 1.50072 31.8467V30.5024H4.11327C4.38089 30.5024 4.59771 30.2855 4.59771 30.0179C4.59771 29.7504 4.38082 29.5335 4.11327 29.5335H1.50072V17.6451H30.9013V19.9148H26.295H26.2949C24.8435 19.9148 23.5863 20.7608 22.9896 21.9854C22.9877 21.9896 22.9854 21.9935 22.9833 21.9977C22.9783 22.0081 22.9739 22.0189 22.969 22.0294C22.8979 22.1803 22.8362 22.3366 22.7859 22.4978C22.7858 22.4983 22.7856 22.4987 22.7855 22.4992C22.6783 22.8437 22.6204 23.2098 22.6204 23.5893C22.6204 25.6154 24.2688 27.2637 26.2948 27.2637H26.2949H30.9012V29.5335H7.21537C6.94776 29.5335 6.73094 29.7504 6.73094 30.0179C6.73094 30.2855 6.94782 30.5024 7.21537 30.5024H30.9013V31.8467ZM32.4993 26.1746C32.4993 26.2409 32.4454 26.2948 32.379 26.2948H26.295C25.2694 26.2948 24.3751 25.7211 23.9165 24.8778C23.8956 24.8395 23.8757 24.8006 23.8566 24.7612C23.8186 24.6824 23.7843 24.6014 23.7539 24.5186C23.6475 24.2286 23.5895 23.9156 23.5895 23.5893C23.5895 23.263 23.6476 22.9499 23.7539 22.66C23.7843 22.5772 23.8187 22.4962 23.8566 22.4173C23.8757 22.378 23.8956 22.3391 23.9165 22.3007C24.3751 21.4574 25.2694 20.8838 26.295 20.8838H32.379C32.4453 20.8838 32.4993 20.9377 32.4993 21.004V26.1746Z" fill="#525252"/>
<path d="M26.4085 21.6235C25.3246 21.6235 24.4429 22.5053 24.4429 23.5892C24.4429 24.673 25.3246 25.5547 26.4085 25.5547C27.4924 25.5547 28.3741 24.673 28.3741 23.5892C28.3741 22.5053 27.4924 21.6235 26.4085 21.6235ZM26.4085 24.5858C25.8589 24.5858 25.4118 24.1387 25.4118 23.5892C25.4118 23.0396 25.8589 22.5925 26.4085 22.5925C26.9581 22.5925 27.4052 23.0396 27.4052 23.5892C27.4052 24.1387 26.9581 24.5858 26.4085 24.5858Z" fill="#F0AE20"/>
</g>
<defs>
<clipPath id="clip0_195_4919">
<rect width="34" height="34" fill="white"/>
</clipPath>
</defs>
</svg>
