<svg width="33" height="33" viewBox="0 0 33 33" fill="none" xmlns="http://www.w3.org/2000/svg">
<path d="M12.3512 7.1709H9.23406C8.79062 7.1709 8.42981 7.53171 8.42981 7.97514V9.45647C8.42981 9.89991 8.79062 10.2607 9.23406 10.2607H12.3512C12.7946 10.2607 13.1554 9.89991 13.1554 9.45647V7.97514C13.1554 7.53171 12.7946 7.1709 12.3512 7.1709ZM12.1875 9.29263H9.39783V8.13886H12.1875V9.29263Z" fill="#F0AE20"/>
<path d="M18.0586 7.1709H14.9415C14.498 7.1709 14.1372 7.53171 14.1372 7.97514V9.45647C14.1372 9.89991 14.498 10.2607 14.9415 10.2607H18.0586C18.502 10.2607 18.8628 9.89991 18.8628 9.45647V7.97514C18.8628 7.53171 18.502 7.1709 18.0586 7.1709ZM17.8948 9.29263H15.1052V8.13886H17.8948V9.29263Z" fill="#F0AE20"/>
<path d="M23.7659 7.1709H20.6487C20.2053 7.1709 19.8445 7.53171 19.8445 7.97514V9.45647C19.8445 9.89991 20.2053 10.2607 20.6487 10.2607H23.7659C24.2093 10.2607 24.5701 9.89991 24.5701 9.45647V7.97514C24.5701 7.53171 24.2093 7.1709 23.7659 7.1709ZM23.6022 9.29263H20.8125V8.13886H23.6022V9.29263Z" fill="#F0AE20"/>
<path d="M32.2735 31.1326C31.3222 31.1667 30.785 31.4092 30.3111 31.623C29.8251 31.8424 29.4053 32.0319 28.5086 32.0319C27.612 32.0319 27.1923 31.8424 26.7062 31.623C26.1925 31.3912 25.6104 31.1284 24.5054 31.1284C23.4004 31.1284 22.8183 31.3911 22.3047 31.623C21.8187 31.8424 21.3989 32.0319 20.5023 32.0319C19.6057 32.0319 19.186 31.8424 18.7 31.623C18.1863 31.3912 17.6043 31.1284 16.4994 31.1284C15.3945 31.1284 14.8124 31.3911 14.2989 31.623C13.8129 31.8424 13.3932 32.0319 12.4966 32.0319C11.6001 32.0319 11.1804 31.8424 10.6943 31.623C10.1807 31.3912 9.59861 31.1284 8.4937 31.1284C7.38877 31.1284 6.80663 31.3911 6.29307 31.623C5.80703 31.8424 5.38731 32.0319 4.49077 32.0319C3.59423 32.0319 3.17451 31.8424 2.68853 31.623C2.21467 31.4091 1.67765 31.1667 0.726319 31.1326C0.459289 31.1249 0.234864 31.3319 0.225324 31.599C0.215721 31.8661 0.424549 32.0904 0.691707 32.1C1.45283 32.1272 1.84091 32.3025 2.29027 32.5053C2.8039 32.7372 3.38598 32.9999 4.4909 32.9999C5.59582 32.9999 6.17789 32.7372 6.69152 32.5053C7.17756 32.2859 7.59728 32.0964 8.49389 32.0964C9.3905 32.0964 9.81015 32.2859 10.2962 32.5053C10.8098 32.7372 11.3918 32.9999 12.4967 32.9999C13.6017 32.9999 14.1837 32.7372 14.6973 32.5053C15.1833 32.2859 15.603 32.0964 16.4995 32.0964C17.3961 32.0964 17.8158 32.2859 18.3018 32.5053C18.8155 32.7372 19.3976 32.9999 20.5025 32.9999C21.6074 32.9999 22.1895 32.7372 22.7031 32.5053C23.1891 32.2859 23.6089 32.0964 24.5055 32.0964C25.4022 32.0964 25.8219 32.2859 26.308 32.5053C26.8217 32.7372 27.4038 32.9999 28.5088 32.9999C29.6138 32.9999 30.1959 32.7372 30.7095 32.5053C31.159 32.3024 31.5471 32.1272 32.3084 32.1C32.5755 32.0904 32.7843 31.8661 32.7747 31.599C32.765 31.3318 32.5394 31.1222 32.2735 31.1326Z" fill="#474747"/>
<path d="M32.2527 29.0412C31.3145 29.078 30.7816 29.3186 30.3114 29.5308C29.8254 29.7502 29.4056 29.9397 28.509 29.9397C27.7666 29.9397 27.3511 29.8096 26.9542 29.6404L31.7077 18.3866C31.8425 18.0674 31.8441 17.7153 31.7123 17.3948C31.5804 17.0744 31.3314 16.8254 31.011 16.6935L27.4034 15.2091L26.9941 11.7C26.9631 11.4346 26.723 11.2435 26.4572 11.2754C26.1917 11.3064 26.0016 11.5467 26.0325 11.8123L26.3797 14.788L16.6845 10.7989C16.5665 10.7503 16.4342 10.7503 16.3162 10.7989L6.62062 14.788L7.52258 7.05562C7.57317 6.62153 7.94094 6.29417 8.378 6.29417H10.6189H22.3812H24.6221C25.0592 6.29417 25.4269 6.62153 25.4775 7.05562L25.7751 9.60635C25.8061 9.87183 26.0461 10.0625 26.3119 10.031C26.5774 10 26.7675 9.75969 26.7366 9.49414L26.4391 6.94341C26.3315 6.0214 25.5504 5.32615 24.6221 5.32615H22.8653V3.67183C22.8653 2.98379 22.3055 2.42415 21.6176 2.42415H18.5949V0.99941C18.5949 0.448336 18.1466 0 17.5955 0H15.4048C14.8537 0 14.4054 0.448336 14.4054 0.99941V2.42415H11.3827C10.6948 2.42415 10.1351 2.98386 10.1351 3.67183V5.32615H8.37819C7.44994 5.32615 6.66883 6.0214 6.56126 6.94341L5.59691 15.2092L1.98934 16.6936C1.66894 16.8254 1.4199 17.0745 1.28803 17.3949C1.15615 17.7153 1.15777 18.0675 1.2926 18.3867L6.04596 29.6403C5.64899 29.8096 5.23352 29.9398 4.49089 29.9398C3.59442 29.9398 3.1747 29.7503 2.68866 29.5309C2.21847 29.3186 1.68557 29.0781 0.747651 29.0413C0.479203 29.0294 0.255422 29.2388 0.245045 29.5059C0.234475 29.773 0.442529 29.9981 0.709623 30.0085C1.45915 30.038 1.84432 30.2118 2.29034 30.4132C2.8039 30.645 3.38597 30.9078 4.49083 30.9078C5.59575 30.9078 6.17783 30.6451 6.69145 30.4132C6.75165 30.386 6.81088 30.3593 6.87012 30.3333C6.87038 30.3332 6.87063 30.3331 6.87095 30.333C6.88075 30.3287 6.89061 30.3245 6.90041 30.3202C6.91794 30.3126 6.93547 30.305 6.95307 30.2975C6.96093 30.2942 6.96899 30.2909 6.97692 30.2876C6.99954 30.2781 7.02216 30.2687 7.04504 30.2596C7.04981 30.2576 7.05458 30.2558 7.05935 30.2539C7.08616 30.2433 7.11311 30.2328 7.14043 30.2226C7.14256 30.2218 7.14469 30.221 7.14681 30.2202C7.2685 30.175 7.39657 30.1347 7.53862 30.1014C7.55023 30.0987 7.56241 30.0962 7.5742 30.0936C7.59631 30.0887 7.61855 30.0838 7.64136 30.0792C7.65877 30.0758 7.67668 30.0725 7.6946 30.0693C7.71284 30.0659 7.73115 30.0626 7.74984 30.0595C7.7704 30.0561 7.79141 30.0529 7.81261 30.0498C7.83008 30.0472 7.84774 30.0448 7.86566 30.0424C7.88815 30.0394 7.91091 30.0366 7.93411 30.0339C7.95241 30.0318 7.97117 30.0299 7.98999 30.0281C8.01352 30.0257 8.03717 30.0234 8.06153 30.0214C8.08254 30.0196 8.10427 30.0182 8.12592 30.0167C8.14912 30.015 8.1722 30.0134 8.19618 30.0121C8.22337 30.0106 8.25173 30.0096 8.27996 30.0085C8.29988 30.0078 8.31928 30.0068 8.33971 30.0063C8.38953 30.005 8.44071 30.0042 8.49376 30.0042C9.3903 30.0042 9.81002 30.1937 10.2961 30.4131C10.3353 30.4308 10.3751 30.4487 10.4154 30.4667C10.9019 30.6836 11.4761 30.9077 12.4967 30.9077C13.3944 30.9077 13.947 30.7342 14.3981 30.5449C14.5022 30.5012 14.6009 30.4566 14.6972 30.4131C15.1832 30.1937 15.6029 30.0042 16.4995 30.0042C17.396 30.0042 17.8157 30.1937 18.3018 30.4131C18.8154 30.6449 19.3975 30.9077 20.5024 30.9077C21.5195 30.9077 22.0934 30.6851 22.5789 30.4689C22.6208 30.4502 22.6623 30.4315 22.7031 30.4132C23.1891 30.1938 23.6089 30.0043 24.5055 30.0043C24.5586 30.0043 24.6097 30.0051 24.6596 30.0063C24.6801 30.0069 24.6995 30.0079 24.7194 30.0086C24.7476 30.0096 24.7759 30.0107 24.8031 30.0121C24.8273 30.0134 24.8505 30.015 24.874 30.0167C24.8953 30.0182 24.9168 30.0196 24.9376 30.0214C24.9622 30.0234 24.9862 30.0257 25.01 30.0281C25.0284 30.03 25.0468 30.0319 25.0648 30.0339C25.0884 30.0366 25.1116 30.0395 25.1345 30.0426C25.1519 30.0449 25.169 30.0473 25.186 30.0498C25.2077 30.053 25.2293 30.0563 25.2503 30.0598C25.2684 30.0627 25.2861 30.066 25.3036 30.0691C25.3221 30.0725 25.3407 30.0758 25.3588 30.0794C25.3806 30.0838 25.4019 30.0885 25.423 30.0931C25.4358 30.0959 25.449 30.0986 25.4616 30.1016C25.568 30.1266 25.6666 30.1554 25.7605 30.1873C25.7606 30.1874 25.7607 30.1875 25.7609 30.1875C25.7919 30.198 25.8224 30.2089 25.8525 30.2201C25.8549 30.221 25.8574 30.2219 25.8597 30.2228C25.8868 30.233 25.9136 30.2433 25.9402 30.2539C25.945 30.2558 25.9498 30.2577 25.9546 30.2596C25.9778 30.2689 26.0007 30.2784 26.0236 30.288C26.0311 30.2912 26.0387 30.2943 26.0461 30.2974C26.0655 30.3056 26.0848 30.314 26.1042 30.3224C26.1125 30.326 26.1208 30.3295 26.1292 30.3332C26.1294 30.3333 26.1295 30.3333 26.1297 30.3334C26.1889 30.3593 26.248 30.386 26.3081 30.4131C26.8218 30.6449 27.4039 30.9077 28.5089 30.9077C29.6139 30.9077 30.196 30.645 30.7097 30.4131C31.1557 30.2118 31.541 30.0379 32.2906 30.0085C32.5577 29.998 32.7658 29.773 32.7553 29.5059C32.7448 29.2387 32.5192 29.0317 32.2527 29.0412ZM15.3732 0.99941C15.3732 0.982072 15.3873 0.968022 15.4046 0.968022H17.5953C17.6126 0.968022 17.6267 0.982072 17.6267 0.99941V2.42415H15.3732V0.99941ZM11.1028 3.67183C11.1028 3.51759 11.2283 3.39217 11.3825 3.39217H14.8892H18.1107H21.6174C21.7717 3.39217 21.8971 3.51766 21.8971 3.67183V5.32615H11.1028V3.67183ZM26.0608 29.2671C25.834 29.1908 25.5712 29.124 25.2518 29.0822C25.2464 29.0815 25.2411 29.0808 25.2357 29.0801C25.1849 29.0736 25.1328 29.0676 25.079 29.0625C25.0743 29.062 25.0695 29.0617 25.0648 29.0612C25.0152 29.0566 24.9642 29.0526 24.9119 29.0492C24.9041 29.0487 24.8964 29.0481 24.8886 29.0476C24.8347 29.0443 24.7792 29.0418 24.7223 29.0399C24.7103 29.0395 24.698 29.0392 24.6858 29.0389C24.6271 29.0373 24.5674 29.0362 24.5055 29.0362C23.4005 29.0362 22.8184 29.2989 22.3048 29.5308C21.8187 29.7502 21.3989 29.9397 20.5023 29.9397C19.6058 29.9397 19.1861 29.7502 18.7 29.5308C18.1864 29.299 17.6043 29.0362 16.4994 29.0362C15.3946 29.0362 14.8125 29.2989 14.2989 29.5308C13.8129 29.7502 13.3932 29.9397 12.4967 29.9397C11.6001 29.9397 11.1804 29.7502 10.6944 29.5308C10.2129 29.3135 9.67119 29.0689 8.69491 29.0392C8.62982 29.0372 8.56279 29.0362 8.49376 29.0362C8.43175 29.0362 8.372 29.0373 8.31329 29.0389C8.30123 29.0392 8.28905 29.0395 8.27713 29.0399C8.22015 29.0418 8.16453 29.0443 8.11052 29.0476C8.10291 29.0481 8.0955 29.0486 8.08796 29.0492C8.03504 29.0526 7.98342 29.0566 7.93327 29.0613C7.92915 29.0617 7.92496 29.062 7.92083 29.0624C7.86643 29.0676 7.81378 29.0736 7.76241 29.0802C7.75789 29.0808 7.75338 29.0814 7.74894 29.082C7.42912 29.1238 7.16615 29.1905 6.93908 29.2668L2.91817 19.7475L4.74265 19.0319C4.9915 18.9343 5.11409 18.6534 5.01651 18.4046C4.91886 18.1557 4.63804 18.0332 4.38919 18.1307L2.54138 18.8555L2.18425 18.0101C2.15067 17.9307 2.15028 17.843 2.18309 17.7633C2.21589 17.6836 2.27783 17.6216 2.35756 17.5887L16.5 11.7698L30.6424 17.5887C30.7221 17.6215 30.784 17.6836 30.8168 17.7633C30.8496 17.843 30.8493 17.9307 30.8157 18.0101L30.4586 18.8555L16.6767 13.4496C16.5631 13.4052 16.4369 13.4052 16.3233 13.4496L6.48572 17.3084C6.23687 17.406 6.11427 17.6869 6.21186 17.9357C6.3095 18.1845 6.59039 18.3071 6.83918 18.2096L16.5 14.4202L30.0818 19.7475L26.0608 29.2671Z" fill="#474747"/>
</svg>
