<svg width="33" height="33" viewBox="0 0 33 33" fill="none" xmlns="http://www.w3.org/2000/svg">
<path d="M16.5 33C7.40179 33 0 25.5982 0 16.5C0 7.40179 7.40179 0 16.5 0C25.5982 0 33 7.40179 33 16.5C33 25.5982 25.5982 33 16.5 33ZM16.5 1.09998C8.00855 1.09998 1.09998 8.00855 1.09998 16.5C1.09998 24.9914 8.00855 31.9 16.5 31.9C24.9914 31.9 31.9 24.9914 31.9 16.5C31.9 8.00855 24.9914 1.09998 16.5 1.09998V1.09998Z" fill="white"/>
<path d="M18.3679 28.2732C17.6204 28.2732 16.9169 27.8233 16.6254 27.0939L16.0227 25.587C15.9912 25.5095 15.9655 25.4287 15.9446 25.3461L14.9018 21.1743C14.8879 21.1194 14.868 21.0665 14.8429 21.0159L14.2829 19.8968C14.1195 19.5695 13.7582 19.4056 13.4025 19.4914L12.87 19.6244C12.3053 19.7654 11.6975 19.6332 11.2436 19.2696L9.50282 17.8776C9.05568 17.5191 8.79938 16.9856 8.79938 16.4135V15.8244C8.79938 15.4311 8.92048 15.055 9.14883 14.7355L11.2556 11.7858C11.6071 11.2935 12.1776 11.0005 12.7814 11.0005H13.9327C14.2736 11.0005 14.6075 11.0934 14.8978 11.2684L16.8928 12.465C17.0582 12.5652 17.2541 12.5992 17.4431 12.5607L18.6363 12.3215C19.5014 12.1483 20.3803 12.6113 20.7272 13.422L21.7849 15.8899C21.8489 16.0384 21.9599 16.1661 22.0979 16.2479L23.1815 16.8987C23.645 17.1769 23.9663 17.6422 24.0619 18.1742C24.1576 18.7072 24.0186 19.2548 23.6807 19.6772L22.7182 20.8807C22.609 21.0177 22.5483 21.1899 22.5483 21.3646V23.1011C22.5483 23.5948 22.3481 24.0784 21.9989 24.4271L21.4027 25.0233C21.3577 25.0684 21.3186 25.1185 21.2862 25.1724L19.9722 27.3625C19.7423 27.7452 19.382 28.0345 18.958 28.1757C18.7639 28.2425 18.5643 28.2732 18.3679 28.2732V28.2732ZM13.5981 18.367C14.2945 18.367 14.9423 18.755 15.2673 19.4051L15.8273 20.5242C15.8885 20.6463 15.9363 20.7757 15.9693 20.9081L17.0121 25.08C17.0204 25.1135 17.0312 25.1459 17.0441 25.1779L17.6473 26.6865C17.7997 27.0659 18.2221 27.2623 18.6121 27.1337C18.7868 27.0747 18.9359 26.9554 19.0316 26.7965L20.345 24.6069C20.4236 24.4765 20.5183 24.3551 20.6268 24.2466L21.2235 23.6494C21.368 23.5051 21.4506 23.3055 21.4506 23.1016V21.3651C21.4506 20.9411 21.5963 20.526 21.8615 20.1944L22.8245 18.9909C22.9665 18.8137 23.0219 18.5931 22.9823 18.3698C22.9421 18.1465 22.8129 17.9592 22.6183 17.8423L21.5352 17.1923C21.196 16.9893 20.9337 16.689 20.7768 16.3239L19.7186 13.8556C19.5751 13.5205 19.2121 13.3304 18.8546 13.4006L17.6612 13.6398C17.2025 13.7329 16.7294 13.6494 16.3283 13.4089L14.3325 12.2115C14.2119 12.139 14.0745 12.101 13.9337 12.101H12.7826C12.5329 12.101 12.2975 12.2226 12.1522 12.4255L10.0451 15.3752C9.95072 15.5072 9.90062 15.6628 9.90062 15.8252V16.414C9.90062 16.6507 10.0066 16.8713 10.1914 17.0196L11.9316 18.4111C12.1192 18.5614 12.3712 18.6173 12.6044 18.5581L13.1361 18.4254C13.2902 18.3859 13.4453 18.367 13.5981 18.367V18.367Z" fill="#F0AE20"/>
<path d="M24.75 27.5003C24.6047 27.5003 24.465 27.4429 24.3613 27.3392L23.261 26.2392C23.1314 26.1093 23.0747 25.9227 23.111 25.7424L23.6611 22.9924C23.6825 22.8864 23.7346 22.7884 23.8112 22.7114L25.4613 21.0613C25.6048 20.9178 25.816 20.8644 26.0096 20.9238C26.2037 20.9822 26.3495 21.1434 26.389 21.3425L26.9389 24.0923C26.9658 24.2265 26.9417 24.3658 26.8714 24.4836L25.2213 27.2334C25.1345 27.3787 24.9849 27.4754 24.8172 27.4963C24.7946 27.4985 24.7719 27.5003 24.75 27.5003V27.5003ZM24.2467 25.6692L24.6405 26.0637L25.8188 24.1001L25.5119 22.5661L24.7059 23.372L24.2467 25.6692Z" fill="white"/>
<path d="M30.7978 15.2801C29.9337 15.2801 29.1605 14.6872 28.9415 13.8198C28.8123 13.3072 28.6507 12.8676 28.4618 12.5124C28.342 12.2868 28.1265 12.1428 27.8697 12.1164C27.5884 12.0884 27.3145 12.2027 27.1325 12.4228C26.0255 13.7609 24.9469 14.3798 23.9239 14.2642C22.6842 14.1222 22.0825 12.9464 22.0573 12.8963C19.5084 7.79825 14.9551 8.23885 14.9101 8.24716C14.8897 8.24943 14.8698 8.25043 14.8494 8.25043C14.5437 8.25043 14.2043 8.3242 13.8418 8.46872C12.6263 8.95514 11.2833 8.59032 10.4996 7.56184C9.73165 6.55325 9.73618 5.24203 10.5111 4.22237L10.5748 4.13928C10.961 3.64304 11.5517 3.32732 12.194 3.27521C14.2675 3.10677 15.8091 2.10926 16.7767 0.309607C16.8766 0.123046 17.0758 0.00924567 17.287 0.0208271C25.316 0.39823 31.868 6.45909 32.8663 14.4324C32.902 14.7197 32.7097 14.9858 32.4252 15.0402C31.9803 15.1265 31.5171 15.2021 31.0485 15.264C30.9644 15.2746 30.8803 15.2801 30.7978 15.2801V15.2801ZM27.7848 11.0121C27.8503 11.0121 27.9157 11.0159 27.9812 11.0224C28.6094 11.0864 29.1383 11.4416 29.4332 11.996C29.6638 12.4293 29.8574 12.9525 30.008 13.5502C30.1114 13.9596 30.4959 14.228 30.9027 14.1733C31.1719 14.1376 31.439 14.097 31.7014 14.053C30.5762 6.97723 24.7374 1.62838 17.5708 1.13843C16.7261 2.5486 15.148 4.13802 12.2836 4.37141C11.9477 4.39886 11.6413 4.56049 11.4427 4.81579L11.3883 4.88603C10.8196 5.63404 11.0094 6.41402 11.3752 6.89516C11.7458 7.38208 12.5069 7.8194 13.4337 7.44754C13.9166 7.25443 14.3836 7.15498 14.8219 7.15045C15.0443 7.13006 16.2943 7.05251 17.8485 7.59382C19.3875 8.12958 21.5379 9.39825 23.0412 12.4046C23.0427 12.4084 23.4091 13.103 24.0554 13.1725C24.6762 13.2501 25.4451 12.738 26.285 11.7221C26.6597 11.2694 27.209 11.0121 27.7848 11.0121Z" fill="white"/>
<path d="M1.97441 15.4001H0.63474C0.479146 15.4001 0.330602 15.3341 0.226621 15.2186C0.12264 15.103 0.0720344 14.9492 0.0881476 14.7941C0.405881 11.7023 1.59398 8.77049 3.52506 6.31397C3.68619 6.10902 3.96943 6.04508 4.20308 6.1624L6.26784 7.19466C7.13066 7.62644 7.7412 8.4525 7.89956 9.40444L7.94211 9.65596C8.1614 10.9747 7.50579 12.2628 6.31014 12.8607L5.23433 13.3985C4.93522 13.5483 4.67892 13.7749 4.49286 14.0531C3.93041 14.8963 2.98929 15.4001 1.97441 15.4001ZM1.25611 14.3001H1.97441C2.6202 14.3001 3.21966 13.9794 3.57768 13.4421C3.86923 13.0043 4.27231 12.649 4.74262 12.4136L5.81843 11.8756C6.57978 11.4956 6.99722 10.6751 6.85749 9.83572L6.81519 9.58446C6.81519 9.5837 6.81519 9.5837 6.81519 9.5837C6.71398 8.97769 6.3255 8.4525 5.77613 8.17757L4.11848 7.34874C2.59779 9.40243 1.61639 11.7859 1.25611 14.3001Z" fill="white"/>
<path d="M6.72753 29.6512C6.60718 29.6512 6.48834 29.6122 6.3899 29.5359C2.78632 26.7362 0.482876 22.5364 0.0714834 18.0134C0.0495794 17.7757 0.183773 17.5519 0.402561 17.4577L0.978359 17.2107C2.13071 16.717 3.44797 16.971 4.33445 17.8575L5.35362 18.8767C5.62654 19.1496 5.97071 19.3339 6.34912 19.4097C7.76935 19.6942 8.79934 20.9508 8.79934 22.3989V22.5513C8.79934 23.3801 8.55689 24.182 8.09716 24.8706C7.82474 25.2787 7.65278 25.7528 7.59815 26.2397L7.27362 29.1622C7.25171 29.3599 7.12457 29.5308 6.94153 29.6084C6.8728 29.6371 6.80029 29.6512 6.72753 29.6512V29.6512ZM1.20822 18.3092C1.64832 22.0487 3.47264 25.5234 6.29373 28.0265L6.50547 26.1176C6.57898 25.4564 6.81288 24.8139 7.18197 24.2595C7.5206 23.752 7.69936 23.1613 7.69936 22.5508V22.3984C7.69936 21.4727 7.04098 20.6693 6.1331 20.4878C5.54068 20.3694 5.00164 20.0812 4.5754 19.6539L3.55623 18.6347C2.98925 18.0688 2.14783 17.9061 1.4114 18.2211L1.20822 18.3092Z" fill="white"/>
</svg>
