<svg width="36" height="36" viewBox="0 0 36 36" fill="none" xmlns="http://www.w3.org/2000/svg">
<g clip-path="url(#clip0_195_3526)">
<path d="M12.9937 17.0594C12.9937 17.3702 12.7468 17.6253 12.436 17.6253C12.1252 17.6253 11.8698 17.3702 11.8698 17.0594V14.0461C11.8698 13.8149 11.9655 13.6077 12.1171 13.4561C12.2687 13.3045 12.4838 13.2088 12.715 13.2088H15.9671C16.2779 13.2088 16.5332 13.4561 16.5332 13.7668C16.5332 14.0776 16.2782 14.333 15.9671 14.333H12.9937V17.0594ZM10.7218 17.0594C10.7218 17.3702 10.4667 17.6253 10.1556 17.6253C9.84484 17.6253 9.5979 17.3702 9.5979 17.0594V13.4721C9.5979 12.1567 10.674 11.0728 11.9894 11.0728H15.9671C16.2779 11.0728 16.5332 11.3278 16.5332 11.6386C16.5332 11.9494 16.2782 12.1966 15.9671 12.1966H11.9894C11.6384 12.1966 11.3197 12.3401 11.0885 12.5715C10.8652 12.8027 10.7218 13.1217 10.7218 13.4724V17.0594ZM26.4898 17.0594C26.4898 17.3702 26.2426 17.6253 25.9318 17.6253C25.621 17.6253 25.3659 17.3702 25.3659 17.0594V13.4721C25.3659 12.7707 24.8 12.1966 24.0986 12.1966H22.7672C22.4564 12.1966 22.2013 11.9497 22.2013 11.6386C22.2013 11.3278 22.4561 11.0728 22.7672 11.0728H24.0986C25.4137 11.0728 26.4898 12.1567 26.4898 13.4721V17.0594ZM24.2176 17.0594C24.2176 17.3702 23.9627 17.6253 23.6517 17.6253C23.3406 17.6253 23.0937 17.3702 23.0937 17.0594V14.3333H22.7669C22.4561 14.3333 22.201 14.0782 22.201 13.7671C22.201 13.4561 22.4558 13.2091 22.7669 13.2091H23.3727C23.8353 13.2091 24.2176 13.584 24.2176 14.0464V17.0594Z" fill="#474747"/>
<path d="M16.5811 22.5596H19.2043C19.8337 22.5596 20.3594 23.0858 20.3594 23.7237V28.0766C20.3594 29.3757 19.2996 30.436 18 30.436H17.8886C16.5254 30.436 15.4175 29.32 15.4175 27.9649V23.7237C15.4173 23.0858 15.9432 22.5596 16.5811 22.5596ZM17.8883 27.0556C18.1994 27.0556 18.4466 27.3029 18.4466 27.6136C18.4466 27.9165 18.1994 28.1635 17.8883 28.1635C17.5854 28.1635 17.3303 27.9165 17.3303 27.6136C17.3303 27.3029 17.5854 27.0556 17.8883 27.0556ZM19.204 23.6916H16.5808C16.5569 23.6916 16.5409 23.6995 16.5409 23.7234V27.9646C16.5409 28.706 17.1467 29.3118 17.888 29.3118H18C18.6781 29.3118 19.2361 28.7538 19.2361 28.0763V23.7237C19.2361 23.6998 19.22 23.6916 19.204 23.6916Z" fill="#F0AE20"/>
<path d="M5.84296 16.501H30.1486C30.9462 16.501 31.6631 16.8199 32.1817 17.3459C32.724 17.8799 33.0266 18.6056 33.0266 19.3709V33.1223C33.0266 33.9112 32.6998 34.6368 32.1817 35.1549C31.6631 35.6732 30.9462 36 30.1486 36H5.84296C5.05377 36 4.3363 35.6732 3.81824 35.1549C3.29202 34.6368 2.97308 33.9112 2.97308 33.1223V19.3709C2.97308 18.7012 3.20427 18.0875 3.58705 17.6012C3.64302 17.5135 3.74652 17.4179 3.81824 17.3461C4.3363 16.8199 5.05405 16.501 5.84296 16.501ZM31.9027 20.5108C31.8071 20.5904 31.6873 20.6941 31.5835 20.7659L22.6235 26.7126C22.3681 26.8881 22.0176 26.8161 21.8424 26.561C21.6748 26.298 21.7468 25.947 22.0016 25.78L30.9538 19.8329C31.2882 19.5857 31.4876 19.307 31.5596 19.028C31.6392 18.7409 31.6074 18.3584 31.3838 18.135C31.0652 17.8243 30.6351 17.6249 30.1483 17.6249H5.84268C5.36455 17.6249 4.92608 17.824 4.60715 18.135C4.58324 18.1668 4.55146 18.1989 4.52755 18.2307C4.39986 18.4939 4.36808 18.7648 4.4398 19.028C4.51152 19.307 4.71093 19.5857 5.03774 19.8329L13.9978 25.78C14.2529 25.9473 14.3246 26.2983 14.1494 26.561C13.9821 26.8161 13.6313 26.8881 13.376 26.7126L4.39227 20.7498C4.28877 20.6702 4.18499 20.5904 4.09752 20.5105V33.122C4.09752 33.6001 4.29665 34.0386 4.60743 34.3575C4.92636 34.6765 5.36483 34.8756 5.84296 34.8756H30.1486C30.6351 34.8756 31.0655 34.6765 31.3841 34.3575C31.7033 34.0386 31.9027 33.6004 31.9027 33.122V20.5108Z" fill="#474747"/>
<path d="M15.4094 10.0918C15.4094 9.78103 15.6563 9.52594 15.9671 9.52594C16.2779 9.52594 16.5333 9.78103 16.5333 10.0918V12.7148V14.022C16.5333 14.0777 16.5411 14.1334 16.5572 14.1736C16.5811 14.2135 16.6131 14.2532 16.6528 14.2931C16.6846 14.317 16.7245 14.3331 16.7644 14.3409C16.8362 14.357 16.916 14.357 17.0114 14.3488L21.6351 14.006C21.8022 13.9899 21.9538 13.9103 22.0576 13.7987C22.1689 13.671 22.2328 13.5037 22.2252 13.3203L22.145 6.98287V6.975H22.1374V4.52756H16.7006V5.10947C16.7006 5.37272 16.6528 5.61966 16.5411 5.85084C16.4376 6.08203 16.286 6.28144 16.0788 6.45666C15.7998 6.696 15.2977 7.03856 14.8353 7.3575L14.5324 7.56478C14.3412 7.69247 14.1499 7.82803 14.0223 7.97147C13.9345 8.05922 13.8788 8.15484 13.8788 8.25047L13.831 11.6463C13.8231 11.9492 13.5678 12.1964 13.2648 12.1964C12.9541 12.1964 12.7068 11.9413 12.7068 11.6305L12.7628 8.23472C12.7628 7.82016 12.9383 7.48519 13.1931 7.21434C13.4004 6.98316 13.6555 6.80794 13.8946 6.64847L14.2056 6.43331C14.6438 6.13041 15.1222 5.80359 15.3534 5.60419C15.4333 5.54034 15.489 5.46075 15.5208 5.38116C15.5607 5.30128 15.5767 5.21381 15.5767 5.11003V4.46428C15.4251 4.40859 15.2817 4.31269 15.17 4.20131C14.9628 4.00191 14.8432 3.72291 14.8432 3.41184V1.116C14.8432 0.813094 14.9628 0.534094 15.17 0.334688V0.326812C15.3773 0.127406 15.6563 0 15.9592 0H23.2931C23.5957 0 23.8747 0.127406 24.0826 0.326812V0.334688C24.282 0.533813 24.4094 0.813094 24.4094 1.116V3.41184C24.4094 3.72291 24.282 4.00191 24.0826 4.20131C24.0665 4.21734 24.0508 4.22522 24.0348 4.24125C23.8354 4.41647 23.58 4.52813 23.2931 4.52813H23.2689V6.975H23.2613L23.3488 13.3045C23.3569 13.7829 23.1817 14.2133 22.8946 14.5401C22.5995 14.8669 22.1937 15.0902 21.7153 15.122L17.0994 15.4727C16.9082 15.4806 16.7245 15.4806 16.5414 15.4409C16.3263 15.3931 16.1347 15.3053 15.9435 15.1619C15.7683 15.0185 15.6406 14.843 15.5449 14.6517C15.4493 14.4605 15.4094 14.2453 15.4094 14.022V12.7148V10.0918ZM23.2849 1.12388H15.9671V3.40369H16.1426H22.7033H23.2849V1.12388Z" fill="#474747"/>
</g>
<defs>
<clipPath id="clip0_195_3526">
<rect width="36" height="36" fill="white"/>
</clipPath>
</defs>
</svg>
