<svg width="43" height="43" viewBox="0 0 43 43" fill="none" xmlns="http://www.w3.org/2000/svg">
<path d="M36.9531 18.8602V17.8228C36.9531 9.40622 30.2733 2.31794 22.0624 2.02635C19.9871 1.95078 17.9179 2.29426 15.9784 3.03627C14.0388 3.77828 12.2687 4.9036 10.7738 6.345C9.27894 7.78641 8.08989 9.51433 7.27773 11.4256C6.46556 13.3368 6.04694 15.3921 6.04688 17.4687V18.8602C4.92808 19.0232 3.90525 19.5832 3.16515 20.4379C2.42504 21.2926 2.01703 22.385 2.01562 23.5156V26.875C2.01723 28.3 2.58403 29.6662 3.59169 30.6739C4.59935 31.6816 5.96558 32.2484 7.39062 32.25H8.73438C9.09076 32.25 9.43255 32.1084 9.68455 31.8564C9.93655 31.6044 10.0781 31.2626 10.0781 30.9062V17.7657C10.0781 11.5381 15.0036 6.28469 21.0586 6.05558C22.5941 5.99798 24.1254 6.25044 25.5612 6.79789C26.9969 7.34534 28.3076 8.17654 29.4149 9.24184C30.5222 10.3071 31.4035 11.5847 32.006 12.9982C32.6086 14.4117 32.9201 15.9322 32.9219 17.4687V30.9062C32.9245 31.0394 32.9472 31.1715 32.9891 31.2979C32.9465 31.3853 32.9235 31.4809 32.9219 31.5781C32.9201 33.1813 32.2824 34.7183 31.1488 35.8519C30.0152 36.9855 28.4782 37.6232 26.875 37.625H24.0921C23.9286 36.9916 23.5397 36.4397 22.9983 36.0725C22.4569 35.7054 21.8002 35.5483 21.1513 35.6308C20.5024 35.7132 19.9058 36.0294 19.4734 36.5202C19.041 37.0111 18.8024 37.6427 18.8024 38.2968C18.8024 38.951 19.041 39.5826 19.4734 40.0734C19.9058 40.5642 20.5024 40.8805 21.1513 40.9629C21.8002 41.0453 22.4569 40.8883 22.9983 40.5211C23.5397 40.154 23.9286 39.6021 24.0921 38.9687H26.875C28.7178 38.9661 30.4932 38.276 31.854 37.0333C33.2147 35.7907 34.0627 34.0849 34.232 32.25C34.2435 32.25 34.2542 32.2533 34.2656 32.2533H35.6094C37.0344 32.2517 38.4006 31.6849 39.4083 30.6773C40.416 29.6696 40.9828 28.3034 40.9844 26.8783V23.5156C40.983 22.385 40.575 21.2926 39.8349 20.4379C39.0947 19.5832 38.0719 19.0232 36.9531 18.8602ZM21.5 39.6406C21.2342 39.6406 20.9744 39.5618 20.7535 39.4141C20.5325 39.2665 20.3602 39.0566 20.2585 38.8111C20.1568 38.5655 20.1302 38.2953 20.1821 38.0347C20.2339 37.774 20.3619 37.5346 20.5498 37.3467C20.7378 37.1587 20.9772 37.0308 21.2378 36.9789C21.4985 36.9271 21.7687 36.9537 22.0142 37.0554C22.2598 37.1571 22.4696 37.3293 22.6173 37.5503C22.7649 37.7713 22.8438 38.0311 22.8438 38.2968C22.8438 38.6532 22.7022 38.995 22.4502 39.247C22.1982 39.499 21.8564 39.6406 21.5 39.6406ZM39.6406 26.875C39.6396 27.9438 39.2145 28.9685 38.4587 29.7243C37.7029 30.4801 36.6782 30.9052 35.6094 30.9062H34.2656V17.4687C34.2619 14.0854 32.9167 10.8416 30.5249 8.44856C28.1332 6.05554 24.8901 4.70861 21.5067 4.7031C21.3414 4.7031 21.175 4.70646 21.0075 4.71318C14.2397 4.97185 8.73438 10.8239 8.73438 17.7657V30.9062H7.39062C6.3218 30.9052 5.29705 30.4801 4.54128 29.7243C3.7855 28.9685 3.36044 27.9438 3.35938 26.875V23.5156C3.36044 22.625 3.71472 21.7711 4.34449 21.1413C4.97427 20.5116 5.82812 20.1573 6.71875 20.1562C6.89694 20.1562 7.06784 20.0854 7.19384 19.9594C7.31984 19.8334 7.39062 19.6625 7.39062 19.4843V17.4687C7.39062 15.5725 7.77286 13.6957 8.51449 11.9505C9.25612 10.2053 10.3419 8.62746 11.7071 7.31132C13.0722 5.99518 14.6886 4.96772 16.4597 4.29033C18.2308 3.61293 20.1203 3.2995 22.0153 3.36876C29.5108 3.63549 35.6094 10.1198 35.6094 17.8228V19.4843C35.6094 19.6625 35.6802 19.8334 35.8062 19.9594C35.9322 20.0854 36.1031 20.1562 36.2812 20.1562C37.1719 20.1573 38.0257 20.5116 38.6555 21.1413C39.2853 21.7711 39.6396 22.625 39.6406 23.5156V26.875Z" fill="#474747"/>
<path d="M19.8559 22.1047C19.9349 22.1441 20.0209 22.1676 20.1089 22.1738C20.197 22.1801 20.2854 22.1689 20.3691 22.1409C20.4528 22.113 20.5302 22.0688 20.5969 22.0109C20.6635 21.9531 20.7181 21.8826 20.7576 21.8037C20.797 21.7247 20.8205 21.6388 20.8267 21.5507C20.833 21.4627 20.8218 21.3742 20.7938 21.2905C20.7659 21.2068 20.7217 21.1294 20.6638 21.0627C20.606 20.9961 20.5355 20.9415 20.4566 20.902C19.7776 20.5594 19.1364 20.1464 18.5438 19.6698C19.2139 18.8158 19.7126 17.8402 20.0125 16.7969H20.8281C21.0063 16.7969 21.1772 16.7261 21.3032 16.6001C21.4292 16.4741 21.5 16.3032 21.5 16.125C21.5 15.9468 21.4292 15.7759 21.3032 15.6499C21.1772 15.5239 21.0063 15.4531 20.8281 15.4531H18.1406V14.7812C18.1406 14.6031 18.0698 14.4322 17.9438 14.3062C17.8178 14.1802 17.6469 14.1094 17.4688 14.1094C17.2906 14.1094 17.1197 14.1802 16.9937 14.3062C16.8677 14.4322 16.7969 14.6031 16.7969 14.7812V15.4531H14.1094C13.9312 15.4531 13.7603 15.5239 13.6343 15.6499C13.5083 15.7759 13.4375 15.9468 13.4375 16.125C13.4375 16.3032 13.5083 16.4741 13.6343 16.6001C13.7603 16.7261 13.9312 16.7969 14.1094 16.7969H18.6035C18.3563 17.5068 17.9958 18.1721 17.5359 18.7668C17.2251 18.4566 16.9393 18.1224 16.6813 17.7671C16.5819 17.6199 16.4283 17.5181 16.254 17.4839C16.0797 17.4497 15.899 17.4859 15.7514 17.5845C15.6037 17.6832 15.5011 17.8363 15.466 18.0104C15.4309 18.1844 15.4661 18.3653 15.564 18.5135C15.8732 18.9495 16.2197 19.358 16.5993 19.7343C15.999 20.2352 15.3095 20.6182 14.5669 20.8631C14.4831 20.8909 14.4056 20.9351 14.3388 20.9929C14.2721 21.0507 14.2173 21.1211 14.1778 21.2001C14.1382 21.2791 14.1146 21.3651 14.1083 21.4532C14.102 21.5413 14.1131 21.6298 14.141 21.7137C14.1688 21.7975 14.213 21.875 14.2708 21.9417C14.3286 22.0085 14.399 22.0632 14.478 22.1028C14.557 22.1424 14.643 22.166 14.7311 22.1723C14.8192 22.1786 14.9077 22.1675 14.9915 22.1396C15.9545 21.8246 16.8439 21.3185 17.6065 20.6514C18.3011 21.2163 19.0554 21.7036 19.8559 22.1047Z" fill="#F0AE20"/>
<path d="M24.8594 26.2029C24.8594 26.3811 24.9302 26.552 25.0562 26.678C25.1822 26.804 25.3531 26.8748 25.5313 26.8748H27.4676L28.2893 28.5189C28.369 28.6784 28.5087 28.7997 28.6778 28.8561C28.8469 28.9126 29.0315 28.8995 29.191 28.8199C29.3505 28.7402 29.4718 28.6005 29.5282 28.4314C29.5847 28.2623 29.5716 28.0777 29.492 27.9182L26.1326 21.1995C26.0705 21.0954 25.9825 21.0091 25.8771 20.9493C25.7717 20.8894 25.6525 20.8579 25.5313 20.8579C25.4101 20.8579 25.2909 20.8894 25.1855 20.9493C25.0801 21.0091 24.992 21.0954 24.93 21.1995L21.5706 27.9182C21.4909 28.0777 21.4779 28.2623 21.5343 28.4314C21.5908 28.6005 21.7121 28.7402 21.8716 28.8199C22.0311 28.8995 22.2157 28.9126 22.3848 28.8561C22.5538 28.7997 22.6936 28.6784 22.7732 28.5189L25.5313 23.0021L26.7958 25.5311H25.5313C25.3531 25.5311 25.1822 25.6018 25.0562 25.7278C24.9302 25.8538 24.8594 26.0247 24.8594 26.2029Z" fill="#F0AE20"/>
<path d="M26.5035 14.1798C26.4245 14.1403 26.3386 14.1168 26.2505 14.1106C26.1624 14.1043 26.074 14.1155 25.9903 14.1435C25.9066 14.1714 25.8291 14.2156 25.7625 14.2735C25.6958 14.3314 25.6412 14.4018 25.6018 14.4808L18.8831 27.9183C18.8034 28.0778 18.7904 28.2624 18.8468 28.4315C18.9033 28.6006 19.0246 28.7403 19.1841 28.82C19.3436 28.8996 19.5282 28.9126 19.6973 28.8562C19.8663 28.7998 20.0061 28.6784 20.0857 28.519L26.8045 15.0815C26.844 15.0025 26.8675 14.9165 26.8737 14.8285C26.88 14.7404 26.8688 14.652 26.8408 14.5683C26.8129 14.4845 26.7687 14.4071 26.7108 14.3405C26.6529 14.2738 26.5825 14.2192 26.5035 14.1798Z" fill="#F0AE20"/>
</svg>
