<svg width="33" height="27" viewBox="0 0 33 27" fill="none" xmlns="http://www.w3.org/2000/svg">
<path d="M31.7027 20.1528H24.2531C24.1312 20.1528 24.0143 20.1044 23.9282 20.0182C23.842 19.932 23.7936 19.8152 23.7936 19.6933C23.7936 19.5715 23.842 19.4546 23.9282 19.3684C24.0143 19.2823 24.1312 19.2339 24.2531 19.2339H31.2433V11.0082H24.4433C24.3214 11.0082 24.2045 10.9597 24.1184 10.8736C24.0322 10.7874 23.9838 10.6705 23.9838 10.5487C23.9838 10.4268 24.0322 10.31 24.1184 10.2238C24.2045 10.1376 24.3214 10.0892 24.4433 10.0892H31.7027C31.8246 10.0892 31.9414 10.1376 32.0276 10.2238C32.1138 10.31 32.1622 10.4268 32.1622 10.5487V19.6919C32.1624 19.7524 32.1506 19.8123 32.1276 19.8682C32.1046 19.9241 32.0708 19.9749 32.0281 20.0177C31.9854 20.0605 31.9347 20.0945 31.8789 20.1177C31.823 20.1408 31.7632 20.1528 31.7027 20.1528Z" fill="#474747"/>
<path d="M29.0911 26.3813H3.07103C2.25688 26.3804 1.47632 26.0566 0.900585 25.481C0.324854 24.9053 0.000972978 24.1248 0 23.3107V7.32149C0.000972978 6.50735 0.324854 5.72683 0.900585 5.15119C1.47632 4.57554 2.25688 4.25178 3.07103 4.25093H9.44649L10.3902 1.34301C10.5188 0.952553 10.7672 0.612582 11.1001 0.371465C11.433 0.130347 11.8335 0.000363231 12.2446 6.36128e-06H19.9245C20.3354 -0.00104687 20.7359 0.128713 21.0682 0.370496C21.4004 0.612278 21.647 0.953533 21.7724 1.34484L22.7157 4.25184H29.0911C29.9053 4.2527 30.6858 4.57646 31.2616 5.1521C31.8373 5.72775 32.1612 6.50827 32.1622 7.32241V23.3116C32.1609 24.1256 31.837 24.9059 31.2613 25.4813C30.6855 26.0568 29.9051 26.3804 29.0911 26.3813ZM3.07103 5.17076C2.50052 5.17137 1.95354 5.39824 1.55009 5.80161C1.14664 6.20498 0.919649 6.7519 0.918919 7.32241V23.3116C0.919649 23.8821 1.14664 24.429 1.55009 24.8324C1.95354 25.2358 2.50052 25.4626 3.07103 25.4632H29.0911C29.6618 25.4626 30.2089 25.2356 30.6124 24.8321C31.0159 24.4285 31.2428 23.8813 31.2432 23.3107V7.32149C31.2425 6.75098 31.0155 6.20406 30.6121 5.80069C30.2086 5.39732 29.6616 5.17045 29.0911 5.16984H22.383C22.286 5.16984 22.1915 5.13912 22.113 5.08208C22.0345 5.02505 21.9761 4.94463 21.9461 4.85236L20.8985 1.62649C20.8309 1.42139 20.7006 1.24269 20.526 1.11558C20.3514 0.988469 20.1413 0.919363 19.9254 0.918006H12.2446C12.027 0.918469 11.815 0.987541 11.6389 1.1154C11.4628 1.24325 11.3315 1.42338 11.2636 1.63017L10.217 4.85236C10.187 4.94463 10.1286 5.02505 10.0501 5.08208C9.97161 5.13912 9.87708 5.16984 9.78005 5.16984L3.07103 5.17076Z" fill="#474747"/>
<path d="M18.8378 2.89878H13.3317C13.2098 2.89878 13.0929 2.85037 13.0068 2.7642C12.9206 2.67804 12.8722 2.56117 12.8722 2.43932C12.8722 2.31746 12.9206 2.2006 13.0068 2.11443C13.0929 2.02827 13.2098 1.97986 13.3317 1.97986H18.8378C18.9597 1.97986 19.0765 2.02827 19.1627 2.11443C19.2489 2.2006 19.2973 2.31746 19.2973 2.43932C19.2973 2.56117 19.2489 2.67804 19.1627 2.7642C19.0765 2.85037 18.9597 2.89878 18.8378 2.89878Z" fill="#EBAF2E"/>
<path d="M7.81081 20.1528H0.459459C0.337603 20.1528 0.220738 20.1044 0.134573 20.0182C0.0484072 19.932 0 19.8152 0 19.6933V10.5487C0 10.4268 0.0484072 10.31 0.134573 10.2238C0.220738 10.1376 0.337603 10.0892 0.459459 10.0892H7.5967C7.71856 10.0892 7.83542 10.1376 7.92159 10.2238C8.00775 10.31 8.05616 10.4268 8.05616 10.5487C8.05616 10.6705 8.00775 10.7874 7.92159 10.8736C7.83542 10.9597 7.71856 11.0082 7.5967 11.0082H0.918919V19.2325H7.81081C7.93267 19.2325 8.04953 19.2809 8.1357 19.367C8.22186 19.4532 8.27027 19.5701 8.27027 19.6919C8.27027 19.8138 8.22186 19.9307 8.1357 20.0168C8.04953 20.103 7.93267 20.1514 7.81081 20.1514V20.1528Z" fill="#474747"/>
<path d="M16.0811 24.8642C14.1231 24.8642 12.209 24.2835 10.581 23.1957C8.95292 22.1079 7.68402 20.5617 6.93471 18.7527C6.18541 16.9438 5.98935 14.9532 6.37135 13.0328C6.75334 11.1124 7.69622 9.34838 9.08076 7.96385C10.4653 6.57931 12.2293 5.63643 14.1497 5.25444C16.0701 4.87245 18.0607 5.0685 19.8697 5.8178C21.6786 6.56711 23.2248 7.83601 24.3126 9.46406C25.4004 11.0921 25.9811 13.0062 25.9811 14.9642C25.9782 17.5889 24.9342 20.1053 23.0782 21.9613C21.2222 23.8173 18.7058 24.8612 16.0811 24.8642ZM16.0811 5.98313C14.3048 5.98313 12.5684 6.50986 11.0915 7.49671C9.61456 8.48356 8.46344 9.88621 7.78368 11.5273C7.10393 13.1684 6.92607 14.9741 7.27261 16.7163C7.61914 18.4585 8.47451 20.0587 9.73053 21.3148C10.9866 22.5708 12.5868 23.4261 14.329 23.7727C16.0711 24.1192 17.8769 23.9414 19.518 23.2616C21.1591 22.5818 22.5617 21.4307 23.5486 19.9538C24.5354 18.4769 25.0622 16.7405 25.0622 14.9642C25.0595 12.5831 24.1124 10.3003 22.4287 8.61658C20.745 6.93288 18.4622 5.98581 16.0811 5.98313Z" fill="#474747"/>
<path d="M16.0811 22.6243C14.5661 22.6243 13.0851 22.175 11.8254 21.3333C10.5657 20.4916 9.58391 19.2953 9.00413 17.8956C8.42436 16.4959 8.27266 14.9557 8.56823 13.4698C8.8638 11.9839 9.59335 10.619 10.6646 9.54767C11.7359 8.47639 13.1008 7.74683 14.5867 7.45127C16.0727 7.1557 17.6128 7.3074 19.0125 7.88717C20.4122 8.46695 21.6086 9.44876 22.4503 10.7085C23.292 11.9682 23.7413 13.4492 23.7413 14.9642C23.7389 16.9951 22.9312 18.9421 21.4951 20.3781C20.0591 21.8142 18.112 22.622 16.0811 22.6243ZM16.0811 8.223C14.7479 8.223 13.4445 8.61836 12.3359 9.35909C11.2274 10.0998 10.3633 11.1527 9.8531 12.3844C9.34288 13.6162 9.20938 14.9717 9.46949 16.2793C9.7296 17.587 10.3716 18.7882 11.3144 19.7309C12.2572 20.6737 13.4583 21.3157 14.766 21.5758C16.0737 21.836 17.4291 21.7025 18.6609 21.1922C19.8927 20.682 20.9455 19.818 21.6862 18.7094C22.427 17.6008 22.8223 16.2975 22.8223 14.9642C22.8203 13.1769 22.1094 11.4635 20.8456 10.1997C19.5818 8.93596 17.8684 8.22507 16.0811 8.223Z" fill="#EBAF2E"/>
<path d="M11.4406 15.4235C11.3187 15.4235 11.2018 15.3751 11.1157 15.289C11.0295 15.2028 10.9811 15.0859 10.9811 14.9641C10.9827 13.612 11.5205 12.3158 12.4767 11.3599C13.4328 10.404 14.7291 9.86633 16.0811 9.86499C16.203 9.86499 16.3198 9.9134 16.406 9.99956C16.4922 10.0857 16.5406 10.2026 16.5406 10.3244C16.5406 10.4463 16.4922 10.5632 16.406 10.6493C16.3198 10.7355 16.203 10.7839 16.0811 10.7839C14.9725 10.7849 13.9096 11.2257 13.1257 12.0096C12.3418 12.7935 11.901 13.8564 11.9 14.965C11.8998 15.0867 11.8513 15.2033 11.7651 15.2893C11.679 15.3753 11.5623 15.4235 11.4406 15.4235Z" fill="#EBAF2E"/>
<path d="M6.92774 5.1708H3.45193C3.33007 5.1708 3.21321 5.1224 3.12704 5.03623C3.04088 4.95007 2.99247 4.8332 2.99247 4.71134V3.36421C2.99259 2.99725 3.13836 2.64535 3.39775 2.38578C3.65714 2.12622 4.00895 1.98022 4.3759 1.97986H6.00331C6.37019 1.9801 6.72197 2.12592 6.98144 2.3853C7.2409 2.64468 7.38684 2.99641 7.3872 3.36329V4.71043C7.38732 4.77084 7.37553 4.83068 7.35249 4.88654C7.32946 4.94239 7.29563 4.99314 7.25295 5.03591C7.21028 5.07867 7.15959 5.11259 7.10378 5.13574C7.04798 5.15889 6.98816 5.1708 6.92774 5.1708ZM3.91139 4.25189H6.46828V3.36421C6.46828 3.24085 6.41931 3.12253 6.33212 3.03526C6.24494 2.94799 6.12667 2.8989 6.00331 2.89878H4.3759C4.25278 2.89902 4.13477 2.94804 4.04771 3.0351C3.96065 3.12216 3.91163 3.24017 3.91139 3.36329V4.25189Z" fill="#474747"/>
</svg>
