<svg width="32" height="32" viewBox="0 0 32 32" fill="none" xmlns="http://www.w3.org/2000/svg">
<g clip-path="url(#clip0_195_5120)">
<path d="M16.4178 17.4642C16.3586 17.4514 16.2978 17.4491 16.2378 17.4581C15.6368 17.3881 15.1834 16.8796 15.1824 16.2747C15.1824 15.9849 14.9474 15.7498 14.6575 15.7498C14.3677 15.7498 14.1326 15.9849 14.1326 16.2747C14.1342 17.2848 14.8098 18.1695 15.7837 18.4368V18.9617C15.7837 19.2516 16.0187 19.4866 16.3086 19.4866C16.5984 19.4866 16.8335 19.2516 16.8335 18.9617V18.4686C17.9576 18.2333 18.7216 17.1864 18.6034 16.0441C18.485 14.9018 17.5226 14.0337 16.3742 14.0334C15.716 14.0334 15.1824 13.4998 15.1824 12.8417C15.1824 12.1835 15.716 11.6499 16.3742 11.6499C17.0324 11.6499 17.566 12.1835 17.566 12.8417C17.566 13.1315 17.801 13.3666 18.0909 13.3666C18.3807 13.3666 18.6157 13.1315 18.6157 12.8417C18.6142 11.7811 17.8712 10.8664 16.8335 10.6475V10.1698C16.8335 9.87992 16.5984 9.6449 16.3086 9.6449C16.0187 9.6449 15.7837 9.87992 15.7837 10.1698V10.6796C14.7006 10.9753 14.0035 12.0269 14.1526 13.1397C14.3018 14.2526 15.2514 15.0832 16.3742 15.083C17.0236 15.083 17.5534 15.603 17.5652 16.2522C17.5772 16.9014 17.0667 17.4406 16.4178 17.4642Z" fill="#EBAF2E"/>
<path d="M8.76274 14.5985C8.76274 18.8023 12.1704 22.21 16.3742 22.21C20.5779 22.21 23.9856 18.8023 23.9856 14.5985C23.9856 10.3948 20.5779 6.98706 16.3742 6.98706C12.1725 6.99167 8.76761 10.3968 8.76274 14.5985ZM16.3742 8.03685C19.9982 8.03685 22.9359 10.9745 22.9359 14.5985C22.9359 18.2225 19.9982 21.1602 16.3742 21.1602C12.7502 21.1602 9.81252 18.2225 9.81252 14.5985C9.81662 10.9763 12.752 8.04095 16.3742 8.03685Z" fill="#474747"/>
<path d="M26.455 23.1387L22.4136 25.2237C21.8094 24.1882 20.6976 23.5546 19.4987 23.5626L15.7017 23.5909C15.1004 23.5947 14.5057 23.4631 13.962 23.2059L13.5691 23.0193C11.5567 22.0582 9.20109 22.143 7.26289 23.2462L7.25643 22.3709C7.25425 22.0809 7.01761 21.8476 6.72764 21.8498L2.56394 21.8806C2.27397 21.8827 2.04091 22.1194 2.04309 22.4094L2.11058 31.5464C2.11276 31.8364 2.34941 32.0697 2.63938 32.0675L6.80307 32.0367L6.81741 32.0362C7.10173 32.0263 7.32641 31.792 7.32417 31.5077L7.32096 31.0706L8.3814 30.4542C8.7976 30.2112 9.29159 30.1396 9.75952 30.2545L16.2759 31.8403C16.2873 31.8433 16.2987 31.8454 16.3103 31.8476C16.7801 31.9289 17.2572 31.9612 17.7336 31.9443C18.7429 31.9096 19.7327 31.6573 20.6352 31.2042C20.6574 31.1931 20.6787 31.1803 20.699 31.166L29.8442 24.7873C30.072 24.6283 30.1366 24.3195 29.9916 24.0825C29.2539 22.8742 27.6969 22.4585 26.455 23.1387ZM3.15652 31.0139L3.0967 22.9265L6.21049 22.9034L6.27032 30.9911L3.15652 31.0139ZM20.1299 30.2837C19.0083 30.8378 17.7405 31.0242 16.5069 30.8167L10.0081 29.2349C9.27656 29.0556 8.50419 29.1674 7.854 29.5468L7.31209 29.862L7.27229 24.4848C8.98159 23.2598 11.2217 23.0618 13.1193 23.9677L13.5123 24.1543C14.1991 24.4791 14.9499 24.6452 15.7096 24.6407L19.5069 24.6125C20.5735 24.606 21.505 25.3331 21.7576 26.3696L16.1015 26.4109C15.8115 26.4131 15.5784 26.65 15.5804 26.9397C15.5825 27.2297 15.8194 27.463 16.1092 27.4608L22.3511 27.4147L22.3657 27.4142C22.6498 27.404 22.8742 27.1697 22.8719 26.8856C22.8704 26.6575 22.8455 26.4298 22.7975 26.2069L26.9427 24.0682C26.9467 24.0663 26.9508 24.0641 26.9548 24.0619C27.542 23.7385 28.2684 23.8144 28.7761 24.2524L20.1299 30.2837Z" fill="#474747"/>
<path d="M16.8991 5.51137V0.524892C16.8991 0.235023 16.6641 0 16.3742 0C16.0843 0 15.8493 0.235023 15.8493 0.524892V5.51137C15.8493 5.80124 16.0843 6.03626 16.3742 6.03626C16.6641 6.03626 16.8991 5.80124 16.8991 5.51137Z" fill="#EBAF2E"/>
<path d="M20.8358 5.51142V3.1494C20.8358 2.85953 20.6008 2.62451 20.3109 2.62451C20.021 2.62451 19.786 2.85953 19.786 3.1494V5.51142C19.786 5.80129 20.021 6.03631 20.3109 6.03631C20.6008 6.03631 20.8358 5.80129 20.8358 5.51142Z" fill="#EBAF2E"/>
<path d="M12.9624 5.51142V3.1494C12.9624 2.85953 12.7274 2.62451 12.4375 2.62451C12.1476 2.62451 11.9126 2.85953 11.9126 3.1494V5.51142C11.9126 5.80129 12.1476 6.03631 12.4375 6.03631C12.7274 6.03631 12.9624 5.80129 12.9624 5.51142Z" fill="#EBAF2E"/>
</g>
<defs>
<clipPath id="clip0_195_5120">
<rect width="32" height="32" fill="white"/>
</clipPath>
</defs>
</svg>
