<svg width="45" height="45" viewBox="0 0 45 45" fill="none" xmlns="http://www.w3.org/2000/svg">
<path d="M33.8208 25.9661C33.308 25.9662 32.8067 25.8143 32.3803 25.5294C31.9538 25.2446 31.6215 24.8397 31.4252 24.366C31.2289 23.8922 31.1775 23.3709 31.2775 22.8679C31.3775 22.365 31.6244 21.903 31.987 21.5404C32.3497 21.1777 32.8117 20.9308 33.3146 20.8308C33.8176 20.7308 34.3389 20.7822 34.8127 20.9785C35.2864 21.1748 35.6913 21.5071 35.9761 21.9336C36.261 22.36 36.4129 22.8613 36.4128 23.3741C36.4121 24.0613 36.1388 24.7202 35.6528 25.2061C35.1669 25.6921 34.508 25.9654 33.8208 25.9661ZM33.8208 21.9066C33.5306 21.9065 33.2468 21.9924 33.0053 22.1536C32.7639 22.3148 32.5757 22.544 32.4646 22.8121C32.3534 23.0803 32.3243 23.3754 32.3808 23.6601C32.4374 23.9448 32.5771 24.2064 32.7823 24.4117C32.9876 24.617 33.2491 24.7568 33.5338 24.8135C33.8184 24.8701 34.1136 24.8411 34.3818 24.73C34.6499 24.619 34.8792 24.4309 35.0405 24.1895C35.2017 23.9482 35.2878 23.6644 35.2878 23.3741C35.2875 22.9851 35.1329 22.6121 34.8579 22.3369C34.5828 22.0618 34.2099 21.907 33.8208 21.9066Z" fill="white"/>
<path d="M11.1977 25.9661C10.6849 25.9661 10.1836 25.8141 9.75727 25.5292C9.33092 25.2443 8.99862 24.8393 8.80241 24.3656C8.60621 23.8918 8.5549 23.3705 8.65498 22.8676C8.75506 22.3647 9.00203 21.9027 9.36466 21.5402C9.7273 21.1776 10.1893 20.9307 10.6922 20.8308C11.1952 20.7308 11.7165 20.7822 12.1902 20.9785C12.6639 21.1748 13.0688 21.5072 13.3536 21.9336C13.6384 22.36 13.7904 22.8613 13.7902 23.3741C13.7895 24.0614 13.5161 24.7204 13.03 25.2063C12.544 25.6923 11.885 25.9655 11.1977 25.9661ZM11.1977 21.9066C10.9074 21.9066 10.6237 21.9926 10.3823 22.1539C10.141 22.3152 9.95291 22.5444 9.84183 22.8125C9.73076 23.0807 9.70169 23.3758 9.75832 23.6604C9.81495 23.9451 9.95472 24.2066 10.16 24.4119C10.3652 24.6171 10.6267 24.7569 10.9114 24.8135C11.1961 24.8701 11.4911 24.8411 11.7593 24.73C12.0275 24.6189 12.2567 24.4308 12.4179 24.1895C12.5792 23.9481 12.6652 23.6644 12.6652 23.3741C12.6648 22.985 12.51 22.612 12.2349 22.3369C11.9598 22.0618 11.5868 21.907 11.1977 21.9066Z" fill="white"/>
<path d="M29.9992 29.0388H15.1841C15.0839 29.0387 14.9856 29.0118 14.8992 28.961C14.8129 28.9101 14.7417 28.8372 14.693 28.7496C14.6443 28.662 14.6199 28.563 14.6223 28.4629C14.6247 28.3627 14.6538 28.265 14.7066 28.1798L16.3564 25.5181C16.4069 25.4368 16.4773 25.3698 16.561 25.3233C16.6447 25.2768 16.7388 25.2525 16.8345 25.2526H28.35C28.4457 25.2525 28.5398 25.2768 28.6235 25.3233C28.7072 25.3698 28.7776 25.4368 28.8281 25.5181L30.4785 28.1798C30.5313 28.265 30.5604 28.3628 30.5628 28.463C30.5652 28.5632 30.5407 28.6622 30.4919 28.7498C30.4432 28.8374 30.3719 28.9104 30.2855 28.9612C30.199 29.012 30.1006 29.0388 30.0004 29.0388H29.9992ZM16.1949 27.9138H28.9884L28.0361 26.3776H17.1473L16.1949 27.9138Z" fill="white"/>
<path d="M37.1683 31.6592H7.85026C7.26867 31.6585 6.71112 31.4271 6.29987 31.0159C5.88862 30.6046 5.65726 30.0471 5.65651 29.4655V24.4226C5.65889 22.8838 6.27137 21.4087 7.35965 20.3207C8.44794 19.2328 9.92323 18.6207 11.4621 18.6188H33.5559C35.0949 18.6206 36.5704 19.2325 37.6589 20.3205C38.7474 21.4085 39.3601 22.8837 39.3626 24.4226V29.4649C39.362 30.0467 39.1307 30.6045 38.7193 31.0159C38.3079 31.4272 37.7501 31.6586 37.1683 31.6592ZM11.4621 19.7438C10.221 19.7451 9.03109 20.2387 8.1535 21.1163C7.27591 21.9939 6.78229 23.1838 6.78095 24.4249V29.4671C6.78095 29.7506 6.89355 30.0224 7.09398 30.2229C7.29441 30.4233 7.56625 30.5359 7.8497 30.5359H37.1683C37.4518 30.5359 37.7236 30.4233 37.924 30.2229C38.1245 30.0224 38.2371 29.7506 38.2371 29.4671V24.4226C38.235 23.182 37.7411 21.9928 36.8636 21.1157C35.9861 20.2386 34.7966 19.7453 33.5559 19.7438H11.4621Z" fill="white"/>
<path d="M35.6805 34.3727H32.6368C32.3029 34.3722 31.9828 34.2394 31.7467 34.0033C31.5106 33.7672 31.3778 33.4471 31.3773 33.1132V31.0967C31.3773 30.9475 31.4366 30.8044 31.5421 30.6989C31.6476 30.5934 31.7907 30.5342 31.9398 30.5342H36.3774C36.5266 30.5342 36.6697 30.5934 36.7751 30.6989C36.8806 30.8044 36.9399 30.9475 36.9399 31.0967V33.1132C36.9394 33.4471 36.8066 33.7672 36.5705 34.0033C36.3344 34.2394 36.0143 34.3722 35.6805 34.3727ZM32.5023 31.6592V33.1132C32.5025 33.1488 32.5167 33.183 32.5419 33.2081C32.5671 33.2333 32.6012 33.2475 32.6368 33.2477H35.6805C35.7161 33.2475 35.7502 33.2333 35.7754 33.2081C35.8005 33.183 35.8148 33.1488 35.8149 33.1132V31.6592H32.5023Z" fill="white"/>
<path d="M12.3817 34.3727H9.33749C9.00356 34.3724 8.68339 34.2396 8.44726 34.0035C8.21114 33.7673 8.07835 33.4472 8.07805 33.1132V31.0967C8.07805 30.9475 8.13732 30.8044 8.24281 30.6989C8.34829 30.5934 8.49137 30.5342 8.64055 30.5342H13.0781C13.2273 30.5342 13.3704 30.5934 13.4759 30.6989C13.5814 30.8044 13.6406 30.9475 13.6406 31.0967V33.1132C13.6403 33.4471 13.5076 33.7672 13.2716 34.0033C13.0356 34.2394 12.7156 34.3722 12.3817 34.3727ZM9.20361 31.6592V33.1132C9.20361 33.1489 9.21778 33.1831 9.24299 33.2083C9.2682 33.2335 9.3024 33.2477 9.33805 33.2477H12.3817C12.3994 33.2477 12.4168 33.2442 12.4331 33.2374C12.4494 33.2307 12.4642 33.2208 12.4766 33.2083C12.489 33.1958 12.4989 33.181 12.5056 33.1646C12.5123 33.1483 12.5157 33.1309 12.5156 33.1132V31.6592H9.20361Z" fill="white"/>
<path d="M35.7975 20.2438C35.6878 20.2441 35.5804 20.2123 35.4886 20.1523C35.3967 20.0924 35.3244 20.0069 35.2805 19.9063L32.3342 13.1063C32.0574 12.6884 31.6812 12.3458 31.2395 12.1091C30.7977 11.8725 30.3041 11.7491 29.8029 11.7501H15.2173C14.7162 11.7493 14.2226 11.8728 13.7809 12.1095C13.3392 12.3462 12.963 12.6886 12.686 13.1063L9.73798 19.9041C9.70929 19.9728 9.66723 20.0352 9.61423 20.0876C9.56123 20.14 9.49835 20.1813 9.42925 20.2092C9.36014 20.2371 9.28618 20.2509 9.21167 20.25C9.13716 20.2491 9.06358 20.2333 8.99521 20.2037C8.92683 20.1741 8.86502 20.1312 8.81337 20.0774C8.76172 20.0237 8.72126 19.9603 8.69433 19.8908C8.6674 19.8213 8.65455 19.7472 8.65652 19.6727C8.65849 19.5982 8.67523 19.5248 8.70579 19.4569L11.6702 12.6169C11.6828 12.5885 11.6974 12.561 11.714 12.5348C12.091 11.9484 12.6095 11.4664 13.2217 11.133C13.834 10.7997 14.5202 10.6258 15.2173 10.6273H29.8012C30.4983 10.6258 31.1845 10.7998 31.7967 11.1332C32.4088 11.4667 32.9272 11.9489 33.3039 12.5353C33.3208 12.5612 33.3355 12.5885 33.3478 12.6169L36.3133 19.458C36.3507 19.5436 36.3661 19.6372 36.3583 19.7303C36.3504 19.8234 36.3195 19.9131 36.2683 19.9912C36.2171 20.0694 36.1473 20.1335 36.0651 20.1779C35.9829 20.2223 35.8909 20.2456 35.7975 20.2455V20.2438Z" fill="white"/>
<path d="M36.8561 19.6093H35.3869C35.2377 19.6093 35.0946 19.55 34.9892 19.4445C34.8837 19.339 34.8244 19.1959 34.8244 19.0468C34.8244 18.8976 34.8837 18.7545 34.9892 18.649C35.0946 18.5435 35.2377 18.4843 35.3869 18.4843H36.8561C37.0053 18.4843 37.1484 18.5435 37.2539 18.649C37.3594 18.7545 37.4186 18.8976 37.4186 19.0468C37.4186 19.1959 37.3594 19.339 37.2539 19.4445C37.1484 19.55 37.0053 19.6093 36.8561 19.6093Z" fill="white"/>
<path d="M40.3143 19.6088H36.8561C36.7069 19.6088 36.5638 19.5495 36.4583 19.4441C36.3529 19.3386 36.2936 19.1955 36.2936 19.0463V16.5601C36.2936 16.4109 36.3529 16.2678 36.4583 16.1623C36.5638 16.0568 36.7069 15.9976 36.8561 15.9976H39.6C40.0038 15.998 40.391 16.1586 40.6766 16.4442C40.9621 16.7298 41.1228 17.117 41.1232 17.5208V18.8011C41.1229 19.0154 41.0376 19.2208 40.8859 19.3723C40.7342 19.5237 40.5287 19.6088 40.3143 19.6088ZM37.4186 18.4838H39.9977V17.5208C39.9975 17.4152 39.9555 17.314 39.8808 17.2394C39.8062 17.1647 39.705 17.1227 39.5994 17.1226H37.4186V18.4838Z" fill="white"/>
<path d="M9.61313 19.6093H8.14388C7.9947 19.6093 7.85163 19.55 7.74614 19.4445C7.64065 19.339 7.58138 19.1959 7.58138 19.0468C7.58138 18.8976 7.64065 18.7545 7.74614 18.649C7.85163 18.5435 7.9947 18.4843 8.14388 18.4843H9.61313C9.76232 18.4843 9.90539 18.5435 10.0109 18.649C10.1164 18.7545 10.1756 18.8976 10.1756 19.0468C10.1756 19.1959 10.1164 19.339 10.0109 19.4445C9.90539 19.55 9.76232 19.6093 9.61313 19.6093Z" fill="white"/>
<path d="M8.1439 19.6088H4.68565C4.47142 19.6087 4.26599 19.5235 4.11445 19.3721C3.96291 19.2207 3.87764 19.0153 3.87734 18.8011V17.5208C3.87778 17.1171 4.03834 16.73 4.32378 16.4444C4.60923 16.1588 4.99627 15.9982 5.40003 15.9976H8.14334C8.29252 15.9976 8.4356 16.0568 8.54109 16.1623C8.64657 16.2678 8.70584 16.4109 8.70584 16.5601V19.0463C8.70584 19.1954 8.64665 19.3384 8.54128 19.4439C8.43592 19.5493 8.29299 19.6087 8.1439 19.6088ZM5.00234 18.4838H7.5814V17.1226H5.40003C5.29445 17.1227 5.19324 17.1647 5.11858 17.2394C5.04393 17.314 5.00192 17.4152 5.00178 17.5208L5.00234 18.4838Z" fill="white"/>
<circle cx="22.5" cy="8.80437" r="6.34783" fill="#F0AE20" stroke="white"/>
<path d="M22.5 6.90942C22.1235 6.90942 21.8182 7.2147 21.8182 7.59124V12.1359C21.8182 12.5125 22.1235 12.8177 22.5 12.8177C22.8766 12.8177 23.1819 12.5125 23.1819 12.1359V7.59124C23.1819 7.21474 22.8766 6.90942 22.5 6.90942Z" fill="white"/>
<path d="M22.5 4.9718C22.3205 4.9718 22.145 5.04453 22.0178 5.17135C21.891 5.29817 21.8182 5.47407 21.8182 5.65362C21.8182 5.83317 21.891 6.00862 22.0178 6.13589C22.1446 6.26271 22.3205 6.33544 22.5 6.33544C22.6796 6.33544 22.855 6.26271 22.9823 6.13589C23.1091 6.00862 23.1819 5.83317 23.1819 5.65362C23.1819 5.47407 23.1091 5.29817 22.9823 5.17135C22.855 5.04448 22.6796 4.9718 22.5 4.9718Z" fill="white"/>
</svg>
