<svg width="28" height="27" viewBox="0 0 28 27" fill="none" xmlns="http://www.w3.org/2000/svg">
<g clip-path="url(#clip0_195_3758)">
<path d="M26.5156 12.9375C26.8306 12.9375 27.0781 13.185 27.0781 13.5C27.0781 13.815 26.8306 14.0625 26.5156 14.0625H25.9531V12.9375H26.5156Z" fill="#474747"/>
<path d="M14.1407 12.9375H25.9532V14.0625H14.1407V12.9375Z" fill="#474747"/>
<path d="M24.2656 27H13.5781C13.8931 27 14.1406 26.7525 14.1406 26.4375V25.875H24.2656C25.1994 25.875 25.9531 25.1213 25.9531 24.1875V14.0625H26.5156C26.8306 14.0625 27.0781 13.815 27.0781 13.5V24.1875C27.0781 25.74 25.8181 27 24.2656 27Z" fill="#474747"/>
<path d="M27.0781 2.8125V13.5C27.0781 13.185 26.8306 12.9375 26.5156 12.9375H25.9531V2.8125C25.9531 1.87875 25.1994 1.125 24.2656 1.125H14.1406V0.5625C14.1406 0.2475 13.8931 0 13.5781 0H24.2656C25.8181 0 27.0781 1.26 27.0781 2.8125Z" fill="#474747"/>
<path d="M22.5782 6.75C22.8932 6.75 23.1407 6.9975 23.1407 7.3125C23.1407 7.6275 22.8932 7.875 22.5782 7.875H18.0782C17.7632 7.875 17.5157 7.6275 17.5157 7.3125C17.5157 6.9975 17.7632 6.75 18.0782 6.75H22.5782Z" fill="#474747"/>
<path d="M22.5782 18C22.8932 18 23.1407 18.2475 23.1407 18.5625C23.1407 18.8775 22.8932 19.125 22.5782 19.125H18.0782C17.7632 19.125 17.5157 18.8775 17.5157 18.5625C17.5157 18.2475 17.7632 18 18.0782 18H22.5782Z" fill="#F0AE20"/>
<path d="M22.5782 21.375C22.8932 21.375 23.1407 21.6225 23.1407 21.9375C23.1407 22.2525 22.8932 22.5 22.5782 22.5H18.0782C17.7632 22.5 17.5157 22.2525 17.5157 21.9375C17.5157 21.6225 17.7632 21.375 18.0782 21.375H22.5782Z" fill="#F0AE20"/>
<path d="M14.1406 25.875V26.4375C14.1406 26.7525 13.8931 27 13.5781 27C13.2631 27 13.0156 26.7525 13.0156 26.4375V25.875H14.1406Z" fill="#474747"/>
<path d="M13.0156 14.0625H14.1406V25.875H13.0156V14.0625Z" fill="#474747"/>
<path d="M13.0156 12.9375H14.1406V14.0625H13.0156V12.9375Z" fill="#474747"/>
<path d="M13.0156 1.125H14.1406V12.9375H13.0156V1.125Z" fill="#474747"/>
<path d="M14.1406 0.5625V1.125H13.0156V0.5625C13.0156 0.2475 13.2631 0 13.5781 0C13.8931 0 14.1406 0.2475 14.1406 0.5625Z" fill="#474747"/>
<path d="M1.20312 12.9375H13.0156V14.0625H1.20312V12.9375Z" fill="#474747"/>
<path d="M9.07818 6.75C9.39318 6.75 9.64068 6.9975 9.64068 7.3125C9.64068 7.6275 9.39318 7.875 9.07818 7.875H7.39068V6.75H9.07818Z" fill="#F0AE20"/>
<path d="M8.90938 21.5438C9.13438 21.7575 9.13438 22.1175 8.90938 22.3313C8.80813 22.4438 8.66188 22.5 8.51563 22.5C8.36938 22.5 8.22313 22.4438 8.12188 22.3313L6.82812 21.0375L7.61563 20.25L8.90938 21.5438Z" fill="#474747"/>
<path d="M8.12188 18.1688C8.33563 17.9437 8.69563 17.9437 8.90938 18.1688C9.13438 18.3825 9.13438 18.7425 8.90938 18.9563L7.61563 20.25L6.82812 19.4625L8.12188 18.1688Z" fill="#474747"/>
<path d="M6.03737 20.2488L6.82491 19.4612L7.61246 20.2488L6.82491 21.0363L6.03737 20.2488Z" fill="#474747"/>
<path d="M7.39062 7.875V9.5625C7.39062 9.8775 7.14312 10.125 6.82812 10.125C6.51312 10.125 6.26562 9.8775 6.26562 9.5625V7.875H7.39062Z" fill="#F0AE20"/>
<path d="M6.26562 6.75H7.39062V7.875H6.26562V6.75Z" fill="#F0AE20"/>
<path d="M7.39062 5.0625V6.75H6.26562V5.0625C6.26562 4.7475 6.51312 4.5 6.82812 4.5C7.14312 4.5 7.39062 4.7475 7.39062 5.0625Z" fill="#F0AE20"/>
<path d="M6.82812 19.4625L6.04062 20.25L4.74687 18.9563C4.52187 18.7425 4.52187 18.3825 4.74687 18.1688C4.96062 17.9437 5.32062 17.9437 5.53437 18.1688L6.82812 19.4625Z" fill="#474747"/>
<path d="M6.26568 6.75V7.875H4.57818C4.26319 7.875 4.01569 7.6275 4.01569 7.3125C4.01569 6.9975 4.26319 6.75 4.57818 6.75H6.26568Z" fill="#F0AE20"/>
<path d="M5.53437 22.3313C5.43312 22.4438 5.28687 22.5 5.14062 22.5C4.99437 22.5 4.84812 22.4438 4.74687 22.3313C4.52187 22.1175 4.52187 21.7575 4.74687 21.5438L6.04062 20.25L6.82812 21.0375L5.53437 22.3313Z" fill="#474747"/>
<path d="M1.20312 12.9375V14.0625H0.640617C0.325617 14.0625 0.0781174 13.815 0.0781174 13.5C0.0781174 13.185 0.325617 12.9375 0.640617 12.9375H1.20312Z" fill="#474747"/>
<path d="M0.078125 2.8125C0.078125 1.26 1.33812 0 2.89062 0H13.5781C13.2631 0 13.0156 0.2475 13.0156 0.5625V1.125H2.89062C1.95687 1.125 1.20312 1.87875 1.20312 2.8125V12.9375H0.640625C0.325625 12.9375 0.078125 13.185 0.078125 13.5V2.8125Z" fill="#474747"/>
<path d="M1.20312 24.1875C1.20312 25.1213 1.95687 25.875 2.89062 25.875H13.0156V26.4375C13.0156 26.7525 13.2631 27 13.5781 27H2.89062C1.33812 27 0.0781174 25.74 0.0781174 24.1875V13.5C0.0781174 13.815 0.325617 14.0625 0.640617 14.0625H1.20312V24.1875Z" fill="#474747"/>
</g>
<defs>
<clipPath id="clip0_195_3758">
<rect width="27" height="27" fill="white" transform="translate(0.078125)"/>
</clipPath>
</defs>
</svg>
