<svg width="34" height="34" viewBox="0 0 34 34" fill="none" xmlns="http://www.w3.org/2000/svg">
<g clip-path="url(#clip0_195_5127)">
<path d="M24.699 27.7124H18.2963L17.6264 27.0425L19.3075 25.3614C19.4922 25.1767 19.5693 24.914 19.5136 24.6587C19.458 24.4035 19.2786 24.1968 19.0339 24.1057L10.259 20.84C9.95104 20.7253 9.61509 20.7984 9.38261 21.031C9.15012 21.2635 9.07694 21.5994 9.19162 21.9075L11.352 27.7124H2.55438C1.69509 27.7124 0.996094 27.0134 0.996094 26.1542V15.4102C0.996094 15.135 0.773168 14.9121 0.498047 14.9121C0.222926 14.9121 0 15.135 0 15.4102V26.1542C0 27.5626 1.14591 28.7085 2.55438 28.7085H11.7228L12.4573 30.6822C12.5483 30.9271 12.7551 31.1065 13.0104 31.1621C13.2656 31.2178 13.5284 31.1407 13.713 30.956L15.394 29.275L17.1053 30.9863C17.2672 31.148 17.4797 31.2288 17.6922 31.2288C17.9047 31.2288 18.1173 31.1479 18.2791 30.9862L19.3377 29.9277C19.6612 29.604 19.6612 29.0774 19.3376 28.7538C19.3376 28.7538 19.3376 28.7538 19.3376 28.7538L19.2924 28.7087H24.6989C24.9741 28.7087 25.197 28.4857 25.197 28.2106C25.197 27.9355 24.9741 27.7124 24.699 27.7124ZM17.6922 30.1642L15.7463 28.2183C15.649 28.121 15.5215 28.0724 15.394 28.0724C15.2666 28.0724 15.1391 28.121 15.0418 28.2183L13.2645 29.9956L10.2517 21.9001L18.3471 24.913L16.5698 26.6903C16.3752 26.8849 16.3752 27.2002 16.5698 27.3947L18.5158 29.3406L17.6922 30.1642Z" fill="#474747"/>
<path d="M31.4456 2.77124H29.7043C29.4292 2.77124 29.2063 2.99417 29.2063 3.26929C29.2063 3.54441 29.4292 3.76733 29.7043 3.76733H31.4456C32.3048 3.76733 33.0039 4.46633 33.0039 5.32562V8.44612H0.996094V5.32562C0.996094 4.46639 1.69509 3.76733 2.55438 3.76733H27.4009C27.676 3.76733 27.8989 3.54441 27.8989 3.26929C27.8989 2.99417 27.676 2.77124 27.4009 2.77124H2.55438C1.14591 2.77124 0 3.91715 0 5.32562V13.169C0 13.4441 0.222926 13.667 0.498047 13.667C0.773168 13.667 0.996094 13.4441 0.996094 13.169V9.44228H33.0039V26.1542C33.0039 27.0134 32.3049 27.7125 31.4456 27.7125H27.0854C26.8103 27.7125 26.5874 27.9354 26.5874 28.2105C26.5874 28.4857 26.8103 28.7086 27.0854 28.7086H31.4456C32.8541 28.7086 34 27.5627 34 26.1542V5.32562C34 3.91715 32.8541 2.77124 31.4456 2.77124Z" fill="#474747"/>
<path d="M3.30026 6.10684C3.30026 6.61638 3.7133 7.02942 4.22277 7.02942C4.73224 7.02942 5.14529 6.61638 5.14529 6.10684C5.14529 5.59731 4.73224 5.18433 4.22277 5.18433C3.7133 5.18433 3.30026 5.59731 3.30026 6.10684Z" fill="#F0AE20"/>
<path d="M6.1382 6.10684C6.1382 6.61638 6.55124 7.02942 7.06071 7.02942C7.57018 7.02942 7.98323 6.61638 7.98323 6.10684C7.98323 5.59731 7.57018 5.18433 7.06071 5.18433C6.55124 5.18433 6.1382 5.59731 6.1382 6.10684Z" fill="#F0AE20"/>
<path d="M8.97613 6.10684C8.97613 6.61638 9.38918 7.02942 9.89865 7.02942C10.4081 7.02942 10.8212 6.61638 10.8212 6.10684C10.8212 5.59731 10.4081 5.18433 9.89865 5.18433C9.38918 5.18433 8.97613 5.59731 8.97613 6.10684Z" fill="#F0AE20"/>
<path d="M6.09663 20.4072H6.09948C6.30999 20.4072 6.49792 20.2748 6.56857 20.0764L7.80227 16.6145L8.98111 20.0701C9.04965 20.271 9.23811 20.4064 9.45041 20.4073H9.45247C9.66397 20.4073 9.85243 20.2737 9.92249 20.0739L11.5949 15.3029C11.6858 15.0434 11.5492 14.7592 11.2895 14.6681C11.0301 14.5771 10.7458 14.7138 10.6548 14.9735L9.45877 18.3853L8.28392 14.9412C8.1507 14.5035 7.48226 14.4995 7.3434 14.9348L6.10798 18.4015L4.93286 14.9818C4.84347 14.7216 4.56018 14.5831 4.3 14.6727C4.03989 14.7621 3.90143 15.0454 3.99088 15.3056L5.62846 20.071C5.69719 20.2712 5.88499 20.406 6.09663 20.4072Z" fill="#474747"/>
<path d="M15.3116 20.4072H15.3145C15.525 20.4072 15.7129 20.2748 15.7836 20.0764L17.0173 16.6145L18.1961 20.0701C18.2646 20.271 18.4531 20.4064 18.6654 20.4073H18.6675C18.879 20.4073 19.0674 20.2737 19.1375 20.0739L20.8099 15.3029C20.9008 15.0434 20.7642 14.7592 20.5045 14.6681C20.2451 14.5772 19.9608 14.7138 19.8697 14.9735L18.6738 18.3854L17.4989 14.9412C17.3656 14.5035 16.6973 14.4995 16.5584 14.9348L15.323 18.4016L14.1479 14.9819C14.0585 14.7217 13.775 14.5831 13.515 14.6728C13.2549 14.7622 13.1164 15.0455 13.2059 15.3056L14.8435 20.0711C14.9123 20.2712 15.1 20.406 15.3116 20.4072Z" fill="#474747"/>
<path d="M24.3772 20.4072H24.38C24.5905 20.4072 24.7784 20.2748 24.8491 20.0764L26.0828 16.6145L27.2616 20.0701C27.3302 20.271 27.5186 20.4064 27.7309 20.4073H27.733C27.9445 20.4073 28.1329 20.2737 28.203 20.0739L29.8753 15.3029C29.9663 15.0434 29.8296 14.7592 29.57 14.6681C29.3105 14.5771 29.0262 14.7138 28.9352 14.9735L27.7393 18.3853L26.5644 14.9412C26.4313 14.5035 25.7627 14.4995 25.6239 14.9348L24.3885 18.4015L23.2133 14.9819C23.1239 14.7218 22.841 14.5833 22.5804 14.6728C22.3203 14.7622 22.1819 15.0455 22.2713 15.3056L23.909 20.0711C23.9778 20.2712 24.1655 20.406 24.3772 20.4072Z" fill="#474747"/>
</g>
<defs>
<clipPath id="clip0_195_5127">
<rect width="34" height="34" fill="white"/>
</clipPath>
</defs>
</svg>
