<svg width="34" height="34" viewBox="0 0 34 34" fill="none" xmlns="http://www.w3.org/2000/svg">
<path d="M32.871 5.37555H13.4556C13.1883 5.37555 12.9717 5.59217 12.9717 5.85946C12.9717 6.12674 13.1883 6.34336 13.4556 6.34336H32.871C32.9599 6.34336 33.0323 6.41574 33.0323 6.50466V27.4953C33.0323 27.5842 32.9599 27.6566 32.871 27.6566H1.12904C1.04012 27.6566 0.967738 27.5842 0.967738 27.4953V6.50459C0.967738 6.41568 1.04012 6.34329 1.12904 6.34329H11.1046C11.3718 6.34329 11.5885 6.12668 11.5885 5.85939C11.5885 5.59211 11.3719 5.37549 11.1046 5.37549H1.12904C0.506481 5.37555 0 5.88204 0 6.50459V27.4952C0 28.1178 0.506481 28.6243 1.12904 28.6243H32.871C33.4935 28.6243 34 28.1178 34 27.4952V6.50459C34 5.88204 33.4935 5.37555 32.871 5.37555Z" fill="#474747"/>
<path d="M32.3559 9.725C32.5035 9.47923 32.5076 9.1715 32.3663 8.92195C32.2251 8.67233 31.9593 8.51733 31.6725 8.51733H2.32741C2.04066 8.51733 1.77477 8.67233 1.63359 8.92195C1.49235 9.1715 1.4964 9.47923 1.64402 9.725L3.96173 13.5837C4.00098 13.6489 4.00098 13.73 3.96173 13.7953L1.64395 17.654C1.49633 17.8999 1.49235 18.2075 1.63353 18.4571C1.77471 18.7066 2.0406 18.8616 2.32734 18.8616H31.6725C31.9592 18.8616 32.2251 18.7066 32.3663 18.4571C32.5075 18.2075 32.5035 17.8998 32.3558 17.654L30.0381 13.7952C29.999 13.73 29.999 13.6489 30.0381 13.5837L32.3559 9.725ZM29.2087 14.2936L31.3712 17.894H2.62876L4.79128 14.2936C5.01507 13.921 5.01507 13.4581 4.79128 13.0854L2.62876 9.48507H31.3712L29.2086 13.0855C28.9848 13.4581 28.9848 13.921 29.2087 14.2936Z" fill="#F0AE20"/>
<path d="M22.0926 15.8184C21.6518 15.8209 21.1766 15.8226 20.8391 15.8226V11.3374C20.8391 11.0702 20.6225 10.8535 20.3552 10.8535C20.088 10.8535 19.8714 11.0701 19.8714 11.3374V16.3023C19.8714 16.538 20.0412 16.7394 20.2735 16.7792C20.3084 16.7852 20.34 16.7906 20.8808 16.7906C21.145 16.7906 21.531 16.7893 22.0981 16.7862C22.3653 16.7847 22.5807 16.5668 22.5793 16.2996C22.5776 16.0323 22.3621 15.8167 22.0926 15.8184Z" fill="#474747"/>
<path d="M12.5738 10.8535C12.3066 10.8535 12.0899 11.0701 12.0899 11.3374V16.3065C12.0899 16.5737 12.3065 16.7904 12.5738 16.7904C12.841 16.7904 13.0577 16.5738 13.0577 16.3065V11.3374C13.0577 11.0702 12.841 10.8535 12.5738 10.8535Z" fill="#474747"/>
<path d="M26.6685 11.8665C26.9357 11.8665 27.1523 11.6499 27.1523 11.3826C27.1523 11.1154 26.9357 10.8987 26.6685 10.8987H24.5938C24.3266 10.8987 24.1099 11.1153 24.1099 11.3826V16.3063C24.1099 16.5735 24.3265 16.7902 24.5938 16.7902H26.6685C26.9357 16.7902 27.1523 16.5736 27.1523 16.3063C27.1523 16.0391 26.9357 15.8224 26.6685 15.8224H25.0777V14.3282H26.5156C26.7828 14.3282 26.9995 14.1116 26.9995 13.8443C26.9995 13.5771 26.7828 13.3604 26.5156 13.3604H25.0777V11.8663H26.6685V11.8665Z" fill="#474747"/>
<path d="M17.8162 10.8535H15.072C14.8048 10.8535 14.5881 11.0701 14.5881 11.3374C14.5881 11.6046 14.8047 11.8213 15.072 11.8213H15.9547V16.3065C15.9547 16.5738 16.1713 16.7904 16.4386 16.7904C16.7058 16.7904 16.9225 16.5738 16.9225 16.3065V11.8213H17.8163C18.0835 11.8213 18.3002 11.6047 18.3002 11.3374C18.3 11.0702 18.0834 10.8535 17.8162 10.8535Z" fill="#474747"/>
<path d="M10.0757 10.8535H7.33152C7.0643 10.8535 6.84761 11.0701 6.84761 11.3374C6.84761 11.6046 7.06423 11.8213 7.33152 11.8213H8.21419V16.3065C8.21419 16.5738 8.4308 16.7904 8.69809 16.7904C8.96531 16.7904 9.18199 16.5738 9.18199 16.3065V11.8213H10.0758C10.343 11.8213 10.5597 11.6047 10.5597 11.3374C10.5595 11.0702 10.3429 10.8535 10.0757 10.8535Z" fill="#474747"/>
<path d="M15.8752 21.1484H3.97149C3.70427 21.1484 3.48759 21.3651 3.48759 21.6323C3.48759 21.8996 3.70421 22.1162 3.97149 22.1162H15.8752C16.1424 22.1162 16.3591 21.8996 16.3591 21.6323C16.3591 21.3651 16.1424 21.1484 15.8752 21.1484Z" fill="#474747"/>
<path d="M15.8752 23.7017H9.68854C9.42132 23.7017 9.20464 23.9183 9.20464 24.1856C9.20464 24.4528 9.42125 24.6695 9.68854 24.6695H15.8752C16.1424 24.6695 16.3591 24.4528 16.3591 24.1856C16.3591 23.9183 16.1424 23.7017 15.8752 23.7017Z" fill="#474747"/>
<path d="M3.97149 23.7017C3.70427 23.7017 3.48759 23.9183 3.48759 24.1856C3.48759 24.4528 3.70421 24.6695 3.97149 24.6695H7.47177C7.73898 24.6695 7.95567 24.4528 7.95567 24.1856C7.95567 23.9183 7.73905 23.7017 7.47177 23.7017H3.97149Z" fill="#474747"/>
<path d="M30.0284 21.1484H27.3549C27.0876 21.1484 26.871 21.3651 26.871 21.6323C26.871 21.8996 27.0876 22.1162 27.3549 22.1162H30.0284C30.2957 22.1162 30.5123 21.8996 30.5123 21.6323C30.5123 21.3651 30.2957 21.1484 30.0284 21.1484Z" fill="#474747"/>
<path d="M18.1247 22.1162H25.0846C25.3518 22.1162 25.5685 21.8996 25.5685 21.6323C25.5685 21.3651 25.3519 21.1484 25.0846 21.1484H18.1247C17.8575 21.1484 17.6408 21.3651 17.6408 21.6323C17.6408 21.8996 17.8575 22.1162 18.1247 22.1162Z" fill="#474747"/>
<path d="M18.1247 24.6692H30.0284C30.2957 24.6692 30.5123 24.4526 30.5123 24.1853C30.5123 23.918 30.2957 23.7014 30.0284 23.7014H18.1247C17.8575 23.7014 17.6408 23.918 17.6408 24.1853C17.6408 24.4526 17.8575 24.6692 18.1247 24.6692Z" fill="#474747"/>
</svg>
