<svg width="46" height="46" viewBox="0 0 46 46" fill="none" xmlns="http://www.w3.org/2000/svg">
<g clip-path="url(#clip0_195_4928)">
<path d="M21.9933 1.03871L6.92164 14.6032C6.60212 14.8926 6.42126 15.2965 6.42126 15.7245L6.42126 24.7675C6.42126 25.3613 6.77093 25.9009 7.31351 26.1451C7.8591 26.3862 8.49512 26.2867 8.93521 25.8888L23.0001 13.2317L37.0619 25.8888C37.505 26.2867 38.1411 26.3892 38.6836 26.1451C39.2292 25.9009 39.5789 25.3613 39.5789 24.7675V15.7245C39.5789 15.2965 39.395 14.8926 39.0815 14.6032L24.0099 1.03871C23.4372 0.523256 22.563 0.523256 21.9933 1.03871Z" fill="white"/>
<path d="M21.9933 20.632L6.92164 34.1965C6.60212 34.4858 6.42126 34.8897 6.42126 35.3178L6.42126 44.3608C6.42126 44.9546 6.77093 45.4942 7.31351 45.7383C7.8591 45.9795 8.49512 45.88 8.93521 45.4821L23.0001 32.8249L37.0619 45.4821C37.505 45.88 38.1411 45.9825 38.6836 45.7383C39.2292 45.4942 39.5789 44.9546 39.5789 44.3608V35.3178C39.5789 34.8897 39.395 34.4858 39.0815 34.1965L24.0099 20.632C23.4372 20.1165 22.563 20.1165 21.9933 20.632Z" fill="white"/>
</g>
<defs>
<clipPath id="clip0_195_4928">
<rect width="45.2174" height="45.2174" fill="white" transform="translate(0.391357 45.8696) rotate(-90)"/>
</clipPath>
</defs>
</svg>
