<svg width="28" height="28" viewBox="0 0 28 28" fill="none" xmlns="http://www.w3.org/2000/svg">
<g filter="url(#filter0_d_195_3174)">
<path d="M22.4375 1.5625H20.5625V1.25C20.5625 1.00136 20.4637 0.762903 20.2879 0.587087C20.1121 0.411272 19.8736 0.3125 19.625 0.3125C19.3764 0.3125 19.1379 0.411272 18.9621 0.587087C18.7863 0.762903 18.6875 1.00136 18.6875 1.25V1.5625H18.0625V1.25C18.0625 1.00136 17.9637 0.762903 17.7879 0.587087C17.6121 0.411272 17.3736 0.3125 17.125 0.3125C16.8764 0.3125 16.6379 0.411272 16.4621 0.587087C16.2863 0.762903 16.1875 1.00136 16.1875 1.25V1.5625H11.8125V1.25C11.8125 1.00136 11.7137 0.762903 11.5379 0.587087C11.3621 0.411272 11.1236 0.3125 10.875 0.3125C10.6264 0.3125 10.3879 0.411272 10.2121 0.587087C10.0363 0.762903 9.9375 1.00136 9.9375 1.25V1.5625H9.3125V1.25C9.3125 1.00136 9.21373 0.762903 9.03791 0.587087C8.8621 0.411272 8.62364 0.3125 8.375 0.3125C8.12636 0.3125 7.8879 0.411272 7.71209 0.587087C7.53627 0.762903 7.4375 1.00136 7.4375 1.25V1.5625H5.5625C5.23098 1.5625 4.91304 1.6942 4.67862 1.92862C4.4442 2.16304 4.3125 2.48098 4.3125 2.8125V18.4375C4.3125 18.769 4.4442 19.087 4.67862 19.3214C4.91304 19.5558 5.23098 19.6875 5.5625 19.6875H22.4375C22.769 19.6875 23.087 19.5558 23.3214 19.3214C23.5558 19.087 23.6875 18.769 23.6875 18.4375V2.8125C23.6875 2.48098 23.5558 2.16304 23.3214 1.92862C23.087 1.6942 22.769 1.5625 22.4375 1.5625ZM19.3125 1.25C19.3125 1.16712 19.3454 1.08763 19.404 1.02903C19.4626 0.970424 19.5421 0.9375 19.625 0.9375C19.7079 0.9375 19.7874 0.970424 19.846 1.02903C19.9046 1.08763 19.9375 1.16712 19.9375 1.25V3.125C19.9375 3.20788 19.9046 3.28737 19.846 3.34597C19.7874 3.40458 19.7079 3.4375 19.625 3.4375C19.5421 3.4375 19.4626 3.40458 19.404 3.34597C19.3454 3.28737 19.3125 3.20788 19.3125 3.125V1.25ZM16.8125 1.25C16.8125 1.16712 16.8454 1.08763 16.904 1.02903C16.9626 0.970424 17.0421 0.9375 17.125 0.9375C17.2079 0.9375 17.2874 0.970424 17.346 1.02903C17.4046 1.08763 17.4375 1.16712 17.4375 1.25V3.125C17.4375 3.20788 17.4046 3.28737 17.346 3.34597C17.2874 3.40458 17.2079 3.4375 17.125 3.4375C17.0421 3.4375 16.9626 3.40458 16.904 3.34597C16.8454 3.28737 16.8125 3.20788 16.8125 3.125V1.25ZM10.5625 1.25C10.5625 1.16712 10.5954 1.08763 10.654 1.02903C10.7126 0.970424 10.7921 0.9375 10.875 0.9375C10.9579 0.9375 11.0374 0.970424 11.096 1.02903C11.1546 1.08763 11.1875 1.16712 11.1875 1.25V3.125C11.1875 3.20788 11.1546 3.28737 11.096 3.34597C11.0374 3.40458 10.9579 3.4375 10.875 3.4375C10.7921 3.4375 10.7126 3.40458 10.654 3.34597C10.5954 3.28737 10.5625 3.20788 10.5625 3.125V1.25ZM8.0625 1.25C8.0625 1.16712 8.09542 1.08763 8.15403 1.02903C8.21263 0.970424 8.29212 0.9375 8.375 0.9375C8.45788 0.9375 8.53737 0.970424 8.59597 1.02903C8.65458 1.08763 8.6875 1.16712 8.6875 1.25V3.125C8.6875 3.20788 8.65458 3.28737 8.59597 3.34597C8.53737 3.40458 8.45788 3.4375 8.375 3.4375C8.29212 3.4375 8.21263 3.40458 8.15403 3.34597C8.09542 3.28737 8.0625 3.20788 8.0625 3.125V1.25ZM5.5625 2.1875H7.4375V3.125C7.4375 3.37364 7.53627 3.6121 7.71209 3.78791C7.8879 3.96373 8.12636 4.0625 8.375 4.0625C8.62364 4.0625 8.8621 3.96373 9.03791 3.78791C9.21373 3.6121 9.3125 3.37364 9.3125 3.125V2.1875H9.9375V3.125C9.9375 3.37364 10.0363 3.6121 10.2121 3.78791C10.3879 3.96373 10.6264 4.0625 10.875 4.0625C11.1236 4.0625 11.3621 3.96373 11.5379 3.78791C11.7137 3.6121 11.8125 3.37364 11.8125 3.125V2.1875H16.1875V3.125C16.1875 3.37364 16.2863 3.6121 16.4621 3.78791C16.6379 3.96373 16.8764 4.0625 17.125 4.0625C17.3736 4.0625 17.6121 3.96373 17.7879 3.78791C17.9637 3.6121 18.0625 3.37364 18.0625 3.125V2.1875H18.6875V3.125C18.6875 3.37364 18.7863 3.6121 18.9621 3.78791C19.1379 3.96373 19.3764 4.0625 19.625 4.0625C19.8736 4.0625 20.1121 3.96373 20.2879 3.78791C20.4637 3.6121 20.5625 3.37364 20.5625 3.125V2.1875H22.4375C22.6033 2.1875 22.7622 2.25335 22.8794 2.37056C22.9967 2.48777 23.0625 2.64674 23.0625 2.8125V4.6875H4.9375V2.8125C4.9375 2.64674 5.00335 2.48777 5.12056 2.37056C5.23777 2.25335 5.39674 2.1875 5.5625 2.1875ZM22.4375 19.0625H5.5625C5.39674 19.0625 5.23777 18.9967 5.12056 18.8794C5.00335 18.7622 4.9375 18.6033 4.9375 18.4375V5.3125H23.0625V18.4375C23.0625 18.6033 22.9967 18.7622 22.8794 18.8794C22.7622 18.9967 22.6033 19.0625 22.4375 19.0625Z" fill="white"/>
<path d="M18.0258 13.2323C17.8434 13.2323 17.6652 13.1783 17.5136 13.077C17.3619 12.9757 17.2438 12.8318 17.174 12.6633C17.1042 12.4949 17.0859 12.3095 17.1215 12.1307C17.157 11.9519 17.2448 11.7876 17.3737 11.6587C17.5027 11.5297 17.6669 11.4419 17.8458 11.4064C18.0246 11.3708 18.21 11.3891 18.3784 11.4589C18.5469 11.5287 18.6908 11.6469 18.7921 11.7985C18.8934 11.9501 18.9474 12.1283 18.9474 12.3107C18.9471 12.555 18.8499 12.7893 18.6771 12.9621C18.5044 13.1348 18.2701 13.232 18.0258 13.2323ZM18.0258 11.7889C17.9226 11.7888 17.8216 11.8194 17.7358 11.8767C17.65 11.934 17.5831 12.0155 17.5435 12.1108C17.504 12.2062 17.4937 12.3111 17.5138 12.4123C17.5339 12.5136 17.5836 12.6066 17.6565 12.6796C17.7295 12.7526 17.8225 12.8023 17.9237 12.8224C18.0249 12.8426 18.1298 12.8323 18.2252 12.7928C18.3206 12.7533 18.4021 12.6864 18.4594 12.6006C18.5168 12.5148 18.5474 12.4139 18.5474 12.3107C18.5473 12.1724 18.4923 12.0397 18.3945 11.9419C18.2967 11.8441 18.1641 11.789 18.0258 11.7889Z" fill="#F0AE20"/>
<path d="M9.98094 13.2323C9.79862 13.2323 9.62039 13.1782 9.4688 13.0769C9.3172 12.9756 9.19906 12.8316 9.12929 12.6632C9.05953 12.4947 9.04129 12.3094 9.07687 12.1306C9.11245 11.9517 9.20027 11.7875 9.3292 11.6586C9.45814 11.5297 9.62241 11.4419 9.80123 11.4064C9.98006 11.3708 10.1654 11.3891 10.3338 11.4589C10.5023 11.5287 10.6462 11.6469 10.7475 11.7985C10.8488 11.9501 10.9028 12.1283 10.9027 12.3107C10.9025 12.5551 10.8053 12.7893 10.6324 12.9621C10.4596 13.1349 10.2253 13.2321 9.98094 13.2323ZM9.98094 11.7889C9.87774 11.7889 9.77686 11.8195 9.69105 11.8768C9.60524 11.9341 9.53836 12.0156 9.49886 12.111C9.45937 12.2063 9.44904 12.3113 9.46917 12.4125C9.4893 12.5137 9.539 12.6067 9.61198 12.6796C9.68495 12.7526 9.77793 12.8023 9.87915 12.8224C9.98036 12.8426 10.0853 12.8322 10.1806 12.7928C10.276 12.7533 10.3575 12.6864 10.4148 12.6006C10.4721 12.5148 10.5027 12.4139 10.5027 12.3107C10.5026 12.1723 10.4476 12.0397 10.3497 11.9419C10.2519 11.8441 10.1193 11.789 9.98094 11.7889Z" fill="#F0AE20"/>
<path d="M16.6661 14.3247H11.3985C11.3629 14.3247 11.3279 14.3151 11.2972 14.2971C11.2665 14.279 11.2412 14.253 11.2239 14.2219C11.2066 14.1908 11.1979 14.1556 11.1987 14.12C11.1996 14.0843 11.2099 14.0496 11.2287 14.0193L11.8153 13.0729C11.8333 13.044 11.8583 13.0202 11.8881 13.0037C11.9178 12.9871 11.9513 12.9785 11.9853 12.9785H16.0797C16.1137 12.9785 16.1472 12.9871 16.1769 13.0037C16.2067 13.0202 16.2317 13.044 16.2497 13.0729L16.8365 14.0193C16.8553 14.0496 16.8656 14.0844 16.8665 14.12C16.8673 14.1556 16.8586 14.1908 16.8413 14.222C16.8239 14.2531 16.7986 14.2791 16.7679 14.2971C16.7371 14.3152 16.7021 14.3247 16.6665 14.3247H16.6661ZM11.7579 13.9247H16.3067L15.9681 13.3785H12.0965L11.7579 13.9247Z" fill="#F0AE20"/>
<path d="M19.2157 15.2567H8.79151C8.58472 15.2565 8.38648 15.1742 8.24025 15.028C8.09403 14.8817 8.01177 14.6835 8.01151 14.4767V12.6837C8.01235 12.1366 8.23012 11.6121 8.61707 11.2253C9.00401 10.8384 9.52856 10.6208 10.0757 10.6201H17.9313C18.4785 10.6208 19.0031 10.8383 19.3901 11.2252C19.7772 11.612 19.995 12.1365 19.9959 12.6837V14.4765C19.9957 14.6834 19.9134 14.8817 19.7672 15.028C19.6209 15.1742 19.4226 15.2565 19.2157 15.2567ZM10.0757 11.0201C9.63443 11.0206 9.21136 11.1961 8.89932 11.5081C8.58729 11.8202 8.41178 12.2432 8.41131 12.6845V14.4773C8.41131 14.5781 8.45134 14.6748 8.5226 14.746C8.59387 14.8173 8.69052 14.8573 8.79131 14.8573H19.2157C19.3165 14.8573 19.4131 14.8173 19.4844 14.746C19.5557 14.6748 19.5957 14.5781 19.5957 14.4773V12.6837C19.595 12.2426 19.4193 11.8198 19.1073 11.5079C18.7953 11.1961 18.3724 11.0206 17.9313 11.0201H10.0757Z" fill="white"/>
<path d="M18.6867 16.2212H17.6045C17.4858 16.2211 17.372 16.1739 17.288 16.0899C17.2041 16.006 17.1568 15.8922 17.1567 15.7734V15.0564C17.1567 15.0034 17.1777 14.9525 17.2153 14.915C17.2528 14.8775 17.3036 14.8564 17.3567 14.8564H18.9345C18.9875 14.8564 19.0384 14.8775 19.0759 14.915C19.1134 14.9525 19.1345 15.0034 19.1345 15.0564V15.7734C19.1343 15.8922 19.0871 16.006 19.0031 16.0899C18.9192 16.1739 18.8054 16.2211 18.6867 16.2212ZM17.5567 15.2564V15.7734C17.5567 15.7861 17.5618 15.7982 17.5707 15.8072C17.5797 15.8161 17.5918 15.8212 17.6045 15.8212H18.6867C18.6993 15.8212 18.7115 15.8161 18.7204 15.8072C18.7294 15.7982 18.7344 15.7861 18.7345 15.7734V15.2564H17.5567Z" fill="white"/>
<path d="M10.4021 16.2212H9.31972C9.20099 16.2211 9.08715 16.1739 9.00319 16.09C8.91924 16.006 8.87202 15.8922 8.87192 15.7734V15.0564C8.87192 15.0034 8.89299 14.9525 8.9305 14.915C8.968 14.8775 9.01887 14.8564 9.07192 14.8564H10.6497C10.7028 14.8564 10.7536 14.8775 10.7911 14.915C10.8286 14.9525 10.8497 15.0034 10.8497 15.0564V15.7734C10.8496 15.8921 10.8024 16.0059 10.7185 16.0899C10.6346 16.1738 10.5208 16.2211 10.4021 16.2212ZM9.27212 15.2564V15.7734C9.27212 15.7861 9.27715 15.7983 9.28612 15.8072C9.29508 15.8162 9.30724 15.8212 9.31992 15.8212H10.4021C10.4084 15.8212 10.4146 15.82 10.4204 15.8176C10.4262 15.8152 10.4314 15.8117 10.4358 15.8072C10.4403 15.8028 10.4438 15.7975 10.4462 15.7917C10.4485 15.7859 10.4497 15.7797 10.4497 15.7734V15.2564H9.27212Z" fill="white"/>
<path d="M18.7273 11.198C18.6883 11.1981 18.6502 11.1868 18.6175 11.1655C18.5849 11.1442 18.5591 11.1138 18.5435 11.078L17.4959 8.66021C17.3975 8.51165 17.2638 8.38984 17.1067 8.30568C16.9496 8.22152 16.7741 8.17766 16.5959 8.17801H11.4099C11.2318 8.17775 11.0563 8.22165 10.8992 8.3058C10.7422 8.38995 10.6084 8.51172 10.5099 8.66021L9.46174 11.0772C9.45154 11.1017 9.43658 11.1238 9.41774 11.1425C9.39889 11.1611 9.37654 11.1758 9.35197 11.1857C9.3274 11.1956 9.3011 11.2005 9.27461 11.2002C9.24811 11.1999 9.22195 11.1943 9.19764 11.1837C9.17333 11.1732 9.15135 11.158 9.13299 11.1389C9.11462 11.1198 9.10024 11.0972 9.09066 11.0725C9.08109 11.0478 9.07652 11.0214 9.07722 10.9949C9.07792 10.9685 9.08387 10.9424 9.09474 10.9182L10.1487 8.48621C10.1532 8.47611 10.1584 8.46635 10.1643 8.45701C10.2984 8.24854 10.4827 8.07714 10.7004 7.95862C10.9181 7.8401 11.1621 7.77827 11.4099 7.77881H16.5953C16.8432 7.77827 17.0872 7.84013 17.3048 7.95869C17.5225 8.07724 17.7068 8.24869 17.8407 8.45721C17.8468 8.46642 17.852 8.47612 17.8563 8.48621L18.9107 10.9186C18.924 10.9491 18.9295 10.9823 18.9267 11.0154C18.9239 11.0485 18.9129 11.0804 18.8947 11.1082C18.8765 11.136 18.8517 11.1588 18.8225 11.1746C18.7933 11.1904 18.7606 11.1986 18.7273 11.1986V11.198Z" fill="white"/>
<path d="M19.1043 10.9723H18.5819C18.5289 10.9723 18.478 10.9512 18.4405 10.9137C18.403 10.8762 18.3819 10.8253 18.3819 10.7723C18.3819 10.7192 18.403 10.6684 18.4405 10.6308C18.478 10.5933 18.5289 10.5723 18.5819 10.5723H19.1043C19.1574 10.5723 19.2082 10.5933 19.2457 10.6308C19.2833 10.6684 19.3043 10.7192 19.3043 10.7723C19.3043 10.8253 19.2833 10.8762 19.2457 10.9137C19.2082 10.9512 19.1574 10.9723 19.1043 10.9723Z" fill="white"/>
<path d="M20.3341 10.972H19.1045C19.0514 10.972 19.0006 10.9509 18.9631 10.9134C18.9256 10.8759 18.9045 10.825 18.9045 10.772V9.88799C18.9045 9.83495 18.9256 9.78407 18.9631 9.74657C19.0006 9.70906 19.0514 9.68799 19.1045 9.68799H20.0801C20.2237 9.68815 20.3613 9.74526 20.4629 9.84679C20.5644 9.94833 20.6215 10.086 20.6217 10.2296V10.6848C20.6216 10.761 20.5912 10.834 20.5373 10.8879C20.4834 10.9417 20.4103 10.972 20.3341 10.972ZM19.3045 10.572H20.2215V10.2296C20.2214 10.1921 20.2065 10.1561 20.1799 10.1295C20.1534 10.103 20.1174 10.088 20.0799 10.088H19.3045V10.572Z" fill="white"/>
<path d="M9.41857 10.9723H8.89617C8.84312 10.9723 8.79225 10.9512 8.75475 10.9137C8.71724 10.8762 8.69617 10.8253 8.69617 10.7723C8.69617 10.7192 8.71724 10.6684 8.75475 10.6308C8.79225 10.5933 8.84312 10.5723 8.89617 10.5723H9.41857C9.47161 10.5723 9.52248 10.5933 9.55999 10.6308C9.5975 10.6684 9.61857 10.7192 9.61857 10.7723C9.61857 10.8253 9.5975 10.8762 9.55999 10.9137C9.52248 10.9512 9.47161 10.9723 9.41857 10.9723Z" fill="white"/>
<path d="M8.8952 10.972H7.6656C7.58943 10.9719 7.51639 10.9417 7.46251 10.8878C7.40863 10.834 7.37831 10.761 7.3782 10.6848V10.2296C7.37836 10.086 7.43545 9.94839 7.53694 9.84687C7.63843 9.74534 7.77605 9.6882 7.9196 9.68799H8.895C8.94805 9.68799 8.99892 9.70906 9.03643 9.74657C9.07393 9.78407 9.095 9.83495 9.095 9.88799V10.772C9.095 10.825 9.07396 10.8758 9.0365 10.9133C8.99903 10.9508 8.94821 10.9719 8.8952 10.972ZM7.7782 10.572H8.6952V10.088H7.9196C7.88207 10.088 7.84608 10.103 7.81954 10.1295C7.79299 10.1561 7.77806 10.1921 7.778 10.2296L7.7782 10.572Z" fill="white"/>
</g>
<defs>
<filter id="filter0_d_195_3174" x="0" y="0" width="28" height="28" filterUnits="userSpaceOnUse" color-interpolation-filters="sRGB">
<feFlood flood-opacity="0" result="BackgroundImageFix"/>
<feColorMatrix in="SourceAlpha" type="matrix" values="0 0 0 0 0 0 0 0 0 0 0 0 0 0 0 0 0 0 127 0" result="hardAlpha"/>
<feOffset dy="4"/>
<feGaussianBlur stdDeviation="2"/>
<feComposite in2="hardAlpha" operator="out"/>
<feColorMatrix type="matrix" values="0 0 0 0 0 0 0 0 0 0 0 0 0 0 0 0 0 0 0.25 0"/>
<feBlend mode="normal" in2="BackgroundImageFix" result="effect1_dropShadow_195_3174"/>
<feBlend mode="normal" in="SourceGraphic" in2="effect1_dropShadow_195_3174" result="shape"/>
</filter>
</defs>
</svg>
