<svg width="28" height="28" viewBox="0 0 28 28" fill="none" xmlns="http://www.w3.org/2000/svg">
<path d="M13.6922 24.5853C13.7273 24.6326 13.7729 24.6711 13.8254 24.698C13.8778 24.7249 13.9358 24.7393 13.9947 24.7401H13.9998C14.0578 24.7401 14.1151 24.7269 14.1673 24.7015C14.2195 24.6761 14.2652 24.6391 14.301 24.5934C14.6177 24.1893 22.0557 14.6295 22.0557 8.57495C22.0557 6.43839 21.2069 4.38934 19.6961 2.87856C18.1854 1.36779 16.1363 0.519043 13.9998 0.519043C11.8632 0.519043 9.81414 1.36779 8.30337 2.87856C6.79259 4.38934 5.94385 6.43839 5.94385 8.57495C5.94385 10.8937 7.25219 14.2985 9.833 18.6943C11.7396 21.9419 13.6729 24.5592 13.6922 24.5853ZM13.9998 1.28467C15.9326 1.28681 17.7857 2.05561 19.1525 3.42239C20.5192 4.78916 21.288 6.64229 21.29 8.57517C21.29 13.6871 15.4328 21.8137 14.0076 23.7149C12.5998 21.7402 6.70947 13.21 6.70947 8.57517C6.71156 6.64229 7.4803 4.78916 8.84704 3.42239C10.2138 2.05561 12.0669 1.28681 13.9998 1.28467Z" fill="#474747"/>
<path d="M18.6311 8.57501C18.6312 7.65908 18.3596 6.76372 17.8508 6.00214C17.342 5.24055 16.6187 4.64696 15.7725 4.29642C14.9263 3.94588 13.9952 3.85414 13.0969 4.03281C12.1986 4.21147 11.3734 4.6525 10.7257 5.30014C10.078 5.94778 9.63697 6.77294 9.45826 7.67126C9.27956 8.56958 9.37126 9.50071 9.72175 10.3469C10.0723 11.1931 10.6658 11.9164 11.4274 12.4253C12.1889 12.9341 13.0843 13.2057 14.0002 13.2057C15.228 13.2044 16.405 12.7161 17.2732 11.848C18.1414 10.9798 18.6298 9.80276 18.6311 8.57501ZM14.0002 12.4401C13.2357 12.4401 12.4884 12.2134 11.8527 11.7887C11.2171 11.3639 10.7216 10.7602 10.4291 10.0539C10.1365 9.34762 10.06 8.57042 10.2092 7.82062C10.3583 7.07082 10.7265 6.38209 11.2671 5.84152C11.8077 5.30096 12.4964 4.93284 13.2463 4.78372C13.9961 4.6346 14.7733 4.71118 15.4795 5.00377C16.1858 5.29636 16.7895 5.79182 17.2142 6.42749C17.6389 7.06317 17.8656 7.81051 17.8655 8.57501C17.8643 9.59976 17.4567 10.5822 16.732 11.3068C16.0074 12.0314 15.025 12.4389 14.0002 12.4401Z" fill="#F0AE20"/>
<path d="M17.9033 22.1303C17.8038 22.1205 17.7043 22.15 17.6263 22.2125C17.5482 22.275 17.4977 22.3656 17.4855 22.4648C17.4734 22.5641 17.5005 22.6642 17.5611 22.7437C17.6218 22.8233 17.7111 22.8759 17.8101 22.8904C21.106 23.2949 22.1724 24.0579 22.1724 24.3639C22.1724 24.9386 19.288 26.057 13.9999 26.057C8.71185 26.057 5.82742 24.9377 5.82742 24.3639C5.82742 24.0358 6.87326 23.3645 9.68026 22.9585C9.77876 22.9417 9.86681 22.8871 9.92564 22.8064C9.98446 22.7256 10.0094 22.625 9.99513 22.5261C9.98086 22.4273 9.92851 22.3378 9.84925 22.277C9.77 22.2162 9.6701 22.1887 9.57088 22.2005C7.51464 22.4982 5.06201 23.1149 5.06201 24.3639C5.06201 26.168 10.4072 26.8227 14.0001 26.8227C17.5931 26.8227 22.9383 26.168 22.9383 24.3639C22.938 22.9582 19.7837 22.3613 17.9033 22.1303Z" fill="#474747"/>
</svg>
