<svg width="36" height="36" viewBox="0 0 36 36" fill="none" xmlns="http://www.w3.org/2000/svg">
<path d="M30.5345 9.66693L30.5328 9.66445C30.2497 9.29212 29.8817 8.99005 29.4582 8.78245C29.0347 8.57485 28.5675 8.4675 28.0941 8.46901H7.90595C7.43304 8.46749 6.96633 8.57459 6.54316 8.78174C6.11998 8.98889 5.7521 9.29033 5.46892 9.66196L5.46723 9.66445C5.06592 10.1823 4.84956 10.8154 4.85158 11.4659V23.8563C4.85247 24.6508 5.17456 25.4126 5.74717 25.9744C6.31978 26.5362 7.09616 26.8523 7.90595 26.8531H28.0941C28.9039 26.8523 29.6803 26.5362 30.2529 25.9744C30.8255 25.4126 31.1476 24.6508 31.1485 23.8563V11.4659C31.1505 10.8164 30.9348 10.1842 30.5345 9.66693ZM28.0941 9.43485C28.5706 9.43351 29.0327 9.59532 29.4008 9.89239L19.494 17.1644C19.0618 17.4789 18.538 17.6487 17.9999 17.6487C17.4618 17.6487 16.9379 17.4789 16.5057 17.1644L6.59898 9.89211C6.96718 9.59518 7.42935 9.43349 7.90595 9.43485H28.0941ZM30.1641 23.8563C30.1635 24.3948 29.9452 24.911 29.5571 25.2918C29.1691 25.6725 28.6429 25.8867 28.0941 25.8873H7.90595C7.35714 25.8867 6.83097 25.6725 6.4429 25.2918C6.05483 24.911 5.83655 24.3948 5.83595 23.8563V11.4659C5.83729 11.1902 5.89666 10.9177 6.01033 10.6656L15.9165 17.937C16.5192 18.3756 17.2497 18.6123 18 18.6123C18.7504 18.6123 19.4808 18.3756 20.0835 17.937L29.9897 10.6662C30.1034 10.9183 30.1627 11.1907 30.1641 11.4664V23.8563Z" fill="#474747"/>
<ellipse cx="29" cy="20.6048" rx="7" ry="6.86822" fill="white"/>
<g clip-path="url(#clip0_152_3108)">
<path d="M33.2426 16.3316C32.1094 15.1983 30.6026 14.5742 29 14.5742C27.3973 14.5742 25.8906 15.1983 24.7573 16.3316C23.6241 17.4648 23 18.9716 23 20.5742C23 22.1769 23.6241 23.6836 24.7573 24.8169C25.8906 25.9501 27.3973 26.5742 29 26.5742C29.1941 26.5742 29.3516 26.4168 29.3516 26.2227C29.3516 26.0285 29.1941 25.8711 29 25.8711C26.0793 25.8711 23.7031 23.4949 23.7031 20.5742C23.7031 17.6535 26.0793 15.2773 29 15.2773C31.9207 15.2773 34.2969 17.6535 34.2969 20.5742V21.9863C34.2969 22.5711 33.8211 23.0469 33.2363 23.0469C32.6515 23.0469 32.1758 22.5711 32.1758 21.9863V20.5742C32.1758 18.8231 30.7511 17.3984 29 17.3984C27.2489 17.3984 25.8242 18.8231 25.8242 20.5742C25.8242 22.3254 27.2489 23.75 29 23.75C30.0387 23.75 30.9624 23.2488 31.5422 22.4755C31.7548 23.2107 32.4336 23.75 33.2363 23.75C34.2088 23.75 35 22.9588 35 21.9863V20.5742C35 18.9716 34.3759 17.4648 33.2426 16.3316ZM29 23.0469C27.6365 23.0469 26.5273 21.9376 26.5273 20.5742C26.5273 19.2108 27.6365 18.1016 29 18.1016C30.3634 18.1016 31.4727 19.2108 31.4727 20.5742C31.4727 21.9376 30.3634 23.0469 29 23.0469Z" fill="#F0AE20"/>
</g>
<defs>
<clipPath id="clip0_152_3108">
<rect width="12" height="12" fill="white" transform="translate(23 14.5742)"/>
</clipPath>
</defs>
</svg>
