<svg width="46" height="36" viewBox="0 0 46 36" fill="none" xmlns="http://www.w3.org/2000/svg">
<path d="M0.5 26C0.5 24.067 2.067 22.5 4 22.5H42C43.933 22.5 45.5 24.067 45.5 26V32C45.5 33.933 43.933 35.5 42 35.5H4C2.067 35.5 0.5 33.933 0.5 32V26Z" stroke="#474747"/>
<path d="M6.08 32V33.112H4.96V30.848H5.936L7.648 26.336H8.976L10.672 30.848H11.68V33.112H10.56V32H6.08ZM7.344 30.848H9.216L8.28 27.872L7.344 30.848ZM16.3846 29.992C16.3846 30.3173 16.326 30.6133 16.2086 30.88C16.0913 31.1413 15.9313 31.3653 15.7286 31.552C15.526 31.7333 15.2913 31.8747 15.0246 31.976C14.758 32.0773 14.4726 32.128 14.1686 32.128C13.87 32.128 13.5846 32.0773 13.3126 31.976C13.046 31.8747 12.8113 31.7333 12.6086 31.552C12.4113 31.3653 12.254 31.1413 12.1366 30.88C12.0193 30.6133 11.9606 30.3173 11.9606 29.992C11.9606 29.6667 12.0193 29.3733 12.1366 29.112C12.254 28.8507 12.4113 28.6293 12.6086 28.448C12.8113 28.2667 13.046 28.128 13.3126 28.032C13.5846 27.936 13.87 27.888 14.1686 27.888C14.4726 27.888 14.758 27.936 15.0246 28.032C15.2913 28.128 15.526 28.2667 15.7286 28.448C15.9313 28.6293 16.0913 28.8507 16.2086 29.112C16.326 29.3733 16.3846 29.6667 16.3846 29.992ZM15.1206 29.992C15.1206 29.864 15.0993 29.7387 15.0566 29.616C15.014 29.4933 14.9526 29.3867 14.8726 29.296C14.7926 29.2 14.694 29.1227 14.5766 29.064C14.4593 29.0053 14.3233 28.976 14.1686 28.976C14.014 28.976 13.878 29.0053 13.7606 29.064C13.6433 29.1227 13.5446 29.2 13.4646 29.296C13.39 29.3867 13.3313 29.4933 13.2886 29.616C13.2513 29.7387 13.2326 29.864 13.2326 29.992C13.2326 30.12 13.2513 30.2453 13.2886 30.368C13.3313 30.4907 13.3926 30.6027 13.4726 30.704C13.5526 30.8 13.6513 30.8773 13.7686 30.936C13.886 30.9947 14.022 31.024 14.1766 31.024C14.3313 31.024 14.4673 30.9947 14.5846 30.936C14.702 30.8773 14.8006 30.8 14.8806 30.704C14.9606 30.6027 15.0193 30.4907 15.0566 30.368C15.0993 30.2453 15.1206 30.12 15.1206 29.992ZM20.9671 32V27.84L19.9111 28.656L19.2151 27.704L21.0791 26.336H22.3111V32H20.9671ZM28.675 29.152C28.675 29.552 28.635 29.9333 28.555 30.296C28.475 30.6587 28.347 30.9787 28.171 31.256C27.995 31.528 27.7657 31.7467 27.483 31.912C27.2057 32.072 26.867 32.152 26.467 32.152C26.067 32.152 25.7257 32.072 25.443 31.912C25.1603 31.7467 24.9283 31.528 24.747 31.256C24.571 30.9787 24.443 30.6587 24.363 30.296C24.283 29.9333 24.243 29.552 24.243 29.152C24.243 28.752 24.283 28.3733 24.363 28.016C24.443 27.6533 24.571 27.3387 24.747 27.072C24.9283 26.8 25.1603 26.584 25.443 26.424C25.7257 26.264 26.067 26.184 26.467 26.184C26.867 26.184 27.2057 26.264 27.483 26.424C27.7657 26.584 27.995 26.8 28.171 27.072C28.347 27.3387 28.475 27.6533 28.555 28.016C28.635 28.3733 28.675 28.752 28.675 29.152ZM27.299 29.152C27.299 28.976 27.2883 28.7813 27.267 28.568C27.2457 28.3547 27.2057 28.1573 27.147 27.976C27.0883 27.7893 27.003 27.6347 26.891 27.512C26.7843 27.384 26.643 27.32 26.467 27.32C26.291 27.32 26.147 27.384 26.035 27.512C25.923 27.6347 25.835 27.7893 25.771 27.976C25.7123 28.1573 25.6723 28.3547 25.651 28.568C25.6297 28.7813 25.619 28.976 25.619 29.152C25.619 29.3333 25.6297 29.5333 25.651 29.752C25.6723 29.9653 25.7123 30.1653 25.771 30.352C25.835 30.5333 25.923 30.688 26.035 30.816C26.147 30.9387 26.291 31 26.467 31C26.643 31 26.7843 30.9387 26.891 30.816C27.003 30.688 27.0883 30.5333 27.147 30.352C27.2057 30.1653 27.2457 29.9653 27.267 29.752C27.2883 29.5333 27.299 29.3333 27.299 29.152ZM33.8469 29.152C33.8469 29.552 33.8069 29.9333 33.7269 30.296C33.6469 30.6587 33.5189 30.9787 33.3429 31.256C33.1669 31.528 32.9375 31.7467 32.6549 31.912C32.3775 32.072 32.0389 32.152 31.6389 32.152C31.2389 32.152 30.8975 32.072 30.6149 31.912C30.3322 31.7467 30.1002 31.528 29.9189 31.256C29.7429 30.9787 29.6149 30.6587 29.5349 30.296C29.4549 29.9333 29.4149 29.552 29.4149 29.152C29.4149 28.752 29.4549 28.3733 29.5349 28.016C29.6149 27.6533 29.7429 27.3387 29.9189 27.072C30.1002 26.8 30.3322 26.584 30.6149 26.424C30.8975 26.264 31.2389 26.184 31.6389 26.184C32.0389 26.184 32.3775 26.264 32.6549 26.424C32.9375 26.584 33.1669 26.8 33.3429 27.072C33.5189 27.3387 33.6469 27.6533 33.7269 28.016C33.8069 28.3733 33.8469 28.752 33.8469 29.152ZM32.4709 29.152C32.4709 28.976 32.4602 28.7813 32.4389 28.568C32.4175 28.3547 32.3775 28.1573 32.3189 27.976C32.2602 27.7893 32.1749 27.6347 32.0629 27.512C31.9562 27.384 31.8149 27.32 31.6389 27.32C31.4629 27.32 31.3189 27.384 31.2069 27.512C31.0949 27.6347 31.0069 27.7893 30.9429 27.976C30.8842 28.1573 30.8442 28.3547 30.8229 28.568C30.8015 28.7813 30.7909 28.976 30.7909 29.152C30.7909 29.3333 30.8015 29.5333 30.8229 29.752C30.8442 29.9653 30.8842 30.1653 30.9429 30.352C31.0069 30.5333 31.0949 30.688 31.2069 30.816C31.3189 30.9387 31.4629 31 31.6389 31C31.8149 31 31.9562 30.9387 32.0629 30.816C32.1749 30.688 32.2602 30.5333 32.3189 30.352C32.3775 30.1653 32.4175 29.9653 32.4389 29.752C32.4602 29.5333 32.4709 29.3333 32.4709 29.152ZM40.2668 32L38.1628 29.392H38.1468V32H36.8028V26.336H38.1468V28.64H38.1708L40.1948 26.336H41.9068L39.4668 28.944L42.0508 32H40.2668Z" fill="#F0AE20"/>
<g clip-path="url(#clip0_195_5044)">
<path d="M35 16.7871C35 13.5818 33.7518 10.5683 31.4853 8.3018C29.2188 6.0353 26.2053 4.78711 23 4.78711C19.7947 4.78711 16.7812 6.03534 14.5147 8.3018C12.2482 10.5683 11 13.5818 11 16.7871V17.4902H20.6101C20.8016 18.0679 21.19 18.5516 21.719 18.8639C22.1202 19.1007 22.5606 19.2133 22.9957 19.2133C23.8585 19.2133 24.7001 18.7704 25.1696 17.9752C25.2613 17.8199 25.3347 17.6573 25.3907 17.4902H35V16.7871ZM23.9587 17.2602C23.6467 17.7888 22.9627 17.9651 22.434 17.6529C22.178 17.5018 21.9961 17.2599 21.9219 16.9719C21.8477 16.6839 21.8901 16.3844 22.0413 16.1283C22.1925 15.8722 22.4344 15.6903 22.7223 15.6162C22.8149 15.5923 22.9087 15.5805 23.0019 15.5805C23.1985 15.5805 23.3923 15.633 23.566 15.7356C23.822 15.8868 24.0039 16.1286 24.0781 16.4166C24.1523 16.7046 24.1099 17.0042 23.9587 17.2602ZM25.4441 16.084C25.4426 16.0779 25.4414 16.0718 25.4399 16.0658C25.3323 15.6479 25.124 15.2732 24.8358 14.9678L26.8564 11.5452L25.6454 10.8302L23.6248 14.2528C23.2182 14.1481 22.7896 14.1467 22.3715 14.2543C21.7198 14.4222 21.1725 14.8338 20.8303 15.4133C20.705 15.6257 20.613 15.8513 20.5546 16.084H12.4293C12.5227 14.6662 12.8969 13.324 13.4957 12.1117L15.0572 13.0132L15.7603 11.7954L14.2006 10.8949C14.9714 9.74756 15.9603 8.75845 17.1077 7.98764L18.0082 9.54745L19.226 8.84433L18.3244 7.28255C19.5366 6.68377 20.879 6.3105 22.2968 6.21713V8.02148H23.7031V6.21713C25.1209 6.3105 26.4633 6.68377 27.6755 7.28255L26.7739 8.84433L27.9917 9.54745L28.8922 7.98764C30.0396 8.75845 31.0285 9.74756 31.7993 10.8949L30.2396 11.7954L30.9427 13.0132L32.5042 12.1117C33.103 13.324 33.4772 14.6662 33.5706 16.084H25.4441Z" fill="#474747"/>
</g>
<defs>
<clipPath id="clip0_195_5044">
<rect width="24" height="24" fill="white" transform="translate(11)"/>
</clipPath>
</defs>
</svg>
