<svg width="47" height="42" viewBox="0 0 47 42" fill="none" xmlns="http://www.w3.org/2000/svg">
<path d="M25.2336 27.6864C25.0992 27.5519 24.9134 27.4746 24.7227 27.4746C24.5326 27.4746 24.3462 27.5519 24.2117 27.6864C24.0773 27.8208 24 28.0072 24 28.1973C24 28.3881 24.0773 28.5738 24.2117 28.7082C24.3462 28.8433 24.5326 28.9199 24.7227 28.9199C24.9127 28.9199 25.0992 28.8433 25.2336 28.7082C25.3687 28.5738 25.4453 28.3873 25.4453 28.1973C25.4453 28.0072 25.3687 27.8208 25.2336 27.6864Z" fill="#F0AE20"/>
<path d="M46.7078 26.1703C46.7078 25.2843 46.3138 24.489 45.6924 23.9488C46.3138 23.4087 46.7078 22.6134 46.7078 21.7273C46.7078 20.104 45.3871 18.7833 43.7637 18.7833H35.881L37.9019 12.1117C38.2185 11.2272 38.1606 10.2779 37.7386 9.43861C37.3165 8.59932 36.5891 7.98659 35.6903 7.71335C33.9845 7.19478 32.1539 8.09448 31.5224 9.76164L30.8546 11.5246C29.733 14.4856 27.6586 18.0137 24.9724 19.6646C24.5577 19.129 23.9091 18.7833 23.1809 18.7833H22.0195C21.6204 18.7833 21.2969 19.1069 21.2969 19.506V37.2772C21.2969 37.6763 21.6204 37.9999 22.0195 37.9999H23.1809C24.002 37.9999 24.7225 37.5606 25.1198 36.9048L26.0515 37.2702C27.2863 37.7545 28.585 38.0001 29.9114 38.0001H43.7637C45.3871 38.0001 46.7078 36.6794 46.7078 35.0561C46.7078 34.1701 46.3138 33.3748 45.6925 32.8346C46.3138 32.2945 46.7078 31.4992 46.7078 30.6132C46.7078 29.7272 46.3138 28.932 45.6925 28.3918C46.3138 27.8516 46.7078 27.0563 46.7078 26.1703ZM38.1689 24.6715L43.7637 24.6717C44.5902 24.6717 45.2625 25.3441 45.2625 26.1704C45.2625 26.9969 44.5902 27.6692 43.7637 27.6692H38.1689C37.7698 27.6692 37.4462 27.9927 37.4462 28.3918C37.4462 28.7908 37.7698 29.1144 38.1689 29.1144H43.7637C44.5902 29.1144 45.2625 29.7868 45.2625 30.6131C45.2625 31.4395 44.5902 32.1118 43.7637 32.1118H38.1689C37.7698 32.1118 37.4462 32.4354 37.4462 32.8345C37.4462 33.2335 37.7698 33.5571 38.1689 33.5571H43.7637C44.5902 33.5571 45.2625 34.2295 45.2625 35.0559C45.2625 35.8823 44.5902 36.5546 43.7637 36.5546H29.9114C28.7663 36.5546 27.6453 36.3426 26.5793 35.9246L25.4462 35.4801V31.0863C25.4462 30.6873 25.1226 30.3637 24.7235 30.3637C24.3244 30.3637 24.0009 30.6873 24.0009 31.0863V35.7343C24.0009 36.1865 23.633 36.5544 23.1809 36.5544H22.7422V20.2286H23.1809C23.5422 20.2286 23.8491 20.4638 23.9581 20.789C23.9645 20.8293 23.9745 20.8693 23.9881 20.9089C23.9959 20.9544 24.0009 21.0008 24.0009 21.0486V25.1367C24.0009 25.5357 24.3244 25.8593 24.7235 25.8593C25.1226 25.8593 25.4462 25.5357 25.4462 25.1367V21.0656C28.5414 19.2517 30.9321 15.4002 32.2061 12.0366L32.8739 10.2736C33.2369 9.31533 34.2892 8.79813 35.2698 9.09622C35.7865 9.25332 36.2046 9.60554 36.4472 10.0881C36.6898 10.5705 36.7232 11.1162 36.5412 11.6246L34.1744 19.2625C34.0952 19.4839 34.1285 19.7299 34.2639 19.9221C34.3993 20.1144 34.6197 20.2288 34.8547 20.2288H43.7637C44.5902 20.2288 45.2625 20.9011 45.2625 21.7275C45.2625 22.5538 44.5902 23.2262 43.7637 23.2262H38.1689C37.7698 23.2262 37.4462 23.5498 37.4462 23.9488C37.4462 24.3479 37.7698 24.6715 38.1689 24.6715Z" fill="#474747"/>
<path d="M34.7852 0C34.386 0 34.0625 0.323604 34.0625 0.722652V4.1994C34.0625 4.59852 34.386 4.92206 34.7852 4.92206C35.1843 4.92206 35.5078 4.59845 35.5078 4.1994V0.722652C35.5078 0.323604 35.1843 0 34.7852 0Z" fill="#F0AE20"/>
<path d="M40.8964 3.87563C40.6142 3.59358 40.1566 3.5935 39.8744 3.87563L38.4558 5.29419C38.1736 5.57639 38.1735 6.03397 38.4558 6.31624C38.5969 6.4573 38.7819 6.52791 38.9668 6.52791C39.1517 6.52791 39.3367 6.4573 39.4778 6.31624L40.8964 4.89767C41.1786 4.61548 41.1786 4.1579 40.8964 3.87563Z" fill="#F0AE20"/>
<path d="M31.1171 5.29422L29.6985 3.87566C29.4163 3.59353 28.9587 3.59353 28.6765 3.87566C28.3943 4.15785 28.3943 4.61543 28.6765 4.8977L30.0951 6.31627C30.2363 6.45733 30.4212 6.52793 30.6061 6.52793C30.791 6.52793 30.976 6.45733 31.1171 6.31627C31.3994 6.03407 31.3994 5.57649 31.1171 5.29422Z" fill="#F0AE20"/>
<path d="M17.7187 25.9688C17.9425 25.9688 18.1571 25.8799 18.3154 25.7216C18.4736 25.5634 18.5625 25.3488 18.5625 25.125V24.4279C18.5601 23.2974 18.1189 22.212 17.3319 21.4004C16.5449 20.5889 15.4736 20.1145 14.3437 20.0774V18.375C14.3437 18.1512 14.2549 17.9366 14.0966 17.7784C13.9384 17.6201 13.7238 17.5312 13.5 17.5312C13.2762 17.5312 13.0616 17.6201 12.9034 17.7784C12.7451 17.9366 12.6562 18.1512 12.6562 18.375V20.0774C11.6554 20.1092 10.6961 20.4848 9.9397 21.1409C9.18327 21.797 8.67585 22.6936 8.5028 23.6798C8.32975 24.6661 8.50163 25.6818 8.98951 26.5563C9.4774 27.4307 10.2515 28.1104 11.1817 28.4811L15.1916 30.0858C15.7694 30.317 16.2486 30.7422 16.547 31.2883C16.8453 31.8344 16.9441 32.4674 16.8265 33.0785C16.7088 33.6896 16.3819 34.2406 15.9021 34.6369C15.4223 35.0332 14.8194 35.2499 14.1971 35.25H12.8029C12.0929 35.2492 11.4122 34.9668 10.9102 34.4648C10.4082 33.9627 10.1258 33.2821 10.125 32.5721V31.875C10.125 31.6512 10.0361 31.4366 9.87787 31.2784C9.71963 31.1201 9.50502 31.0312 9.28125 31.0312C9.05747 31.0312 8.84286 31.1201 8.68462 31.2784C8.52639 31.4366 8.4375 31.6512 8.4375 31.875V32.5721C8.4399 33.7026 8.88109 34.788 9.66807 35.5996C10.4551 36.4111 11.5264 36.8855 12.6562 36.9227V38.625C12.6562 38.8488 12.7451 39.0634 12.9034 39.2216C13.0616 39.3799 13.2762 39.4688 13.5 39.4688C13.7238 39.4688 13.9384 39.3799 14.0966 39.2216C14.2549 39.0634 14.3437 38.8488 14.3437 38.625V36.9227C15.3446 36.8908 16.3039 36.5152 17.0603 35.8591C17.8167 35.203 18.3241 34.3064 18.4972 33.3202C18.6702 32.3339 18.4984 31.3182 18.0105 30.4437C17.5226 29.5693 16.7485 28.8896 15.8183 28.5189L11.8084 26.9142C11.2306 26.683 10.7513 26.2578 10.453 25.7117C10.1547 25.1656 10.0559 24.5326 10.1735 23.9215C10.2912 23.3104 10.6181 22.7594 11.0979 22.3631C11.5777 21.9668 12.1806 21.7501 12.8029 21.75H14.1971C14.9071 21.7508 15.5877 22.0332 16.0898 22.5352C16.5918 23.0373 16.8742 23.7179 16.875 24.4279V25.125C16.875 25.3488 16.9639 25.5634 17.1221 25.7216C17.2804 25.8799 17.495 25.9688 17.7187 25.9688Z" fill="#F0AE20"/>
</svg>
