<svg width="25" height="41" viewBox="0 0 25 41" fill="none" xmlns="http://www.w3.org/2000/svg">
<path d="M21.4141 4.13912H12.625C12.5984 4.13912 12.5725 4.13674 12.5469 4.1333V5.33123H22V4.72506C22 4.40146 21.7377 4.13912 21.4141 4.13912Z" fill="#474747"/>
<path d="M12.5469 6.50342H22V7.67529H12.5469V6.50342Z" fill="#474747"/>
<path d="M12.5469 8.84717H22V10.0201H12.5469V8.84717Z" fill="#474747"/>
<path d="M2 16.4252C2 16.7488 2.26234 17.0111 2.58594 17.0111H21.4141C21.7377 17.0111 22 16.7488 22 16.4252V15.8794H2V16.4252Z" fill="#474747"/>
<path d="M2 13.5356H22V14.7075H2V13.5356Z" fill="#474747"/>
<path d="M9.86871 11.1909H2V12.3639H22V11.1921H9.89062C9.88324 11.192 9.87605 11.1912 9.86871 11.1909Z" fill="#474747"/>
<path d="M11.375 2.98877H9.89062H2.58594C2.26234 2.98877 2 3.25111 2 3.57471V10.0189H11.375V2.98877ZM9.03125 4.74604C9.35398 4.74604 9.61719 5.00924 9.61719 5.33197C9.61719 5.65471 9.35398 5.91791 9.03125 5.91791C8.70852 5.91791 8.44531 5.65471 8.44531 5.33197C8.44531 5.00924 8.70852 4.74604 9.03125 4.74604ZM8.44531 6.50385C8.44531 6.82658 8.18211 7.08979 7.85938 7.08979C7.53664 7.08979 7.27344 6.82658 7.27344 6.50385C7.27344 6.18111 7.53664 5.91791 7.85938 5.91791C8.18211 5.91791 8.44531 6.18111 8.44531 6.50385ZM7.85938 3.57416C8.18211 3.57416 8.44531 3.83736 8.44531 4.1601C8.44531 4.48283 8.18211 4.74604 7.85938 4.74604C7.53664 4.74604 7.27344 4.48283 7.27344 4.1601C7.27344 3.83736 7.53664 3.57416 7.85938 3.57416ZM6.6875 4.74604C7.01023 4.74604 7.27344 5.00924 7.27344 5.33197C7.27344 5.65471 7.01023 5.91791 6.6875 5.91791C6.36477 5.91791 6.10156 5.65471 6.10156 5.33197C6.10156 5.00924 6.36477 4.74604 6.6875 4.74604ZM5.51562 3.57416C5.83836 3.57416 6.10156 3.83736 6.10156 4.1601C6.10156 4.48283 5.83836 4.74604 5.51562 4.74604C5.19289 4.74604 4.92969 4.48283 4.92969 4.1601C4.92969 3.83736 5.19289 3.57416 5.51562 3.57416ZM6.10156 6.50385C6.10156 6.82658 5.83836 7.08979 5.51562 7.08979C5.19289 7.08979 4.92969 6.82658 4.92969 6.50385C4.92969 6.18111 5.19289 5.91791 5.51562 5.91791C5.83836 5.91791 6.10156 6.18111 6.10156 6.50385ZM4.34375 4.74604C4.66648 4.74604 4.92969 5.00924 4.92969 5.33197C4.92969 5.65471 4.66648 5.91791 4.34375 5.91791C4.02102 5.91791 3.75781 5.65471 3.75781 5.33197C3.75781 5.00924 4.02102 4.74604 4.34375 4.74604ZM3.17188 3.57416C3.49461 3.57416 3.75781 3.83736 3.75781 4.1601C3.75781 4.48283 3.49461 4.74604 3.17188 4.74604C2.84914 4.74604 2.58594 4.48283 2.58594 4.1601C2.58594 3.83736 2.84914 3.57416 3.17188 3.57416ZM3.17188 5.91791C3.49461 5.91791 3.75781 6.18111 3.75781 6.50385C3.75781 6.82658 3.49461 7.08979 3.17188 7.08979C2.84914 7.08979 2.58594 6.82658 2.58594 6.50385C2.58594 6.18111 2.84914 5.91791 3.17188 5.91791ZM3.17188 9.43353C2.84914 9.43353 2.58594 9.17033 2.58594 8.8476C2.58594 8.52486 2.84914 8.26166 3.17188 8.26166C3.49461 8.26166 3.75781 8.52486 3.75781 8.8476C3.75781 9.17033 3.49461 9.43353 3.17188 9.43353ZM4.34375 8.26166C4.02102 8.26166 3.75781 7.99846 3.75781 7.67572C3.75781 7.35299 4.02102 7.08979 4.34375 7.08979C4.66648 7.08979 4.92969 7.35299 4.92969 7.67572C4.92969 7.99846 4.66648 8.26166 4.34375 8.26166ZM5.51562 9.43353C5.19289 9.43353 4.92969 9.17033 4.92969 8.8476C4.92969 8.52486 5.19289 8.26166 5.51562 8.26166C5.83836 8.26166 6.10156 8.52486 6.10156 8.8476C6.10156 9.17033 5.83836 9.43353 5.51562 9.43353ZM6.6875 8.26166C6.36477 8.26166 6.10156 7.99846 6.10156 7.67572C6.10156 7.35299 6.36477 7.08979 6.6875 7.08979C7.01023 7.08979 7.27344 7.35299 7.27344 7.67572C7.27344 7.99846 7.01023 8.26166 6.6875 8.26166ZM7.85938 9.43353C7.53664 9.43353 7.27344 9.17033 7.27344 8.8476C7.27344 8.52486 7.53664 8.26166 7.85938 8.26166C8.18211 8.26166 8.44531 8.52486 8.44531 8.8476C8.44531 9.17033 8.18211 9.43353 7.85938 9.43353ZM9.03125 8.26166C8.70852 8.26166 8.44531 7.99846 8.44531 7.67572C8.44531 7.35299 8.70852 7.08979 9.03125 7.08979C9.35398 7.08979 9.61719 7.35299 9.61719 7.67572C9.61719 7.99846 9.35398 8.26166 9.03125 8.26166ZM10.2031 9.43353C9.88039 9.43353 9.61719 9.17033 9.61719 8.8476C9.61719 8.52486 9.88039 8.26166 10.2031 8.26166C10.5259 8.26166 10.7891 8.52486 10.7891 8.8476C10.7891 9.17033 10.5259 9.43353 10.2031 9.43353ZM10.2031 7.08979C9.88039 7.08979 9.61719 6.82658 9.61719 6.50385C9.61719 6.18111 9.88039 5.91791 10.2031 5.91791C10.5259 5.91791 10.7891 6.18111 10.7891 6.50385C10.7891 6.82658 10.5259 7.08979 10.2031 7.08979ZM10.2031 4.74604C9.88039 4.74604 9.61719 4.48283 9.61719 4.1601C9.61719 3.83736 9.88039 3.57416 10.2031 3.57416C10.5259 3.57416 10.7891 3.83736 10.7891 4.1601C10.7891 4.48283 10.5259 4.74604 10.2031 4.74604Z" fill="#474747"/>
<path d="M24.0438 26.0159L23.4989 25.439L21.5865 20.284C21.2607 19.4133 20.4274 18.8364 19.4979 18.8311H5.83868C4.90919 18.8311 4.07585 19.4133 3.75 20.284L1.86432 25.3749L1.07906 26.1014C0.395299 26.6836 0 27.5383 0 28.4358V35.9464C0.00534188 37.1751 1.00427 38.1687 2.23291 38.1687H3.64316C4.87179 38.1687 5.87073 37.1751 5.87607 35.9464V34.8567H19.1239V35.9464C19.1293 37.1751 20.1282 38.1687 21.3568 38.1687H22.7671C23.9957 38.1687 24.9947 37.1751 25 35.9464V28.2381C24.9947 27.3994 24.6528 26.5981 24.0438 26.0159ZM4.75427 20.6473C4.92521 20.1932 5.35791 19.8994 5.83868 19.8994H19.5032C19.984 19.8994 20.4167 20.1986 20.5876 20.6473L22.2543 25.1345H21.0096C20.7158 23.1313 18.8515 21.7477 16.8483 22.0469C15.2511 22.2819 13.9957 23.5373 13.7607 25.1345H3.08761L4.75427 20.6473ZM19.9199 25.1345H14.8397C15.1335 23.7296 16.5118 22.8321 17.9167 23.1259C18.9209 23.3396 19.7062 24.1249 19.9199 25.1345ZM4.80769 35.9464C4.80235 36.5875 4.28419 37.1003 3.64316 37.1003H2.23291C1.59188 37.1003 1.07372 36.5875 1.06838 35.9464V34.5469C1.38889 34.7552 1.8109 34.8567 2.23291 34.8567H4.80769V35.9464ZM23.9316 35.9464C23.9263 36.5875 23.4081 37.1003 22.7671 37.1003H21.3568C20.7158 37.1003 20.1976 36.5821 20.1923 35.9464V34.8567H22.7671C23.1891 34.8567 23.6111 34.7552 23.9316 34.5469V35.9464ZM22.7671 33.7883H2.23291C1.59722 33.7937 1.07372 33.2862 1.06838 32.6452V28.4358C1.06838 27.8481 1.33013 27.2873 1.77885 26.908C1.78419 26.9026 1.79487 26.892 1.80021 26.8866L2.52671 26.2028H22.7564L23.2692 26.7531C23.2746 26.7637 23.2906 26.7691 23.2959 26.7798C23.6966 27.159 23.9263 27.6879 23.9263 28.2381V32.6452H23.9316C23.9263 33.2808 23.4028 33.7937 22.7671 33.7883Z" fill="#474747"/>
<path d="M7.05128 28.3398H3.04487C2.75107 28.3398 2.51068 28.5802 2.51068 28.874V31.6518C2.51068 31.9456 2.75107 32.186 3.04487 32.186H7.05128C7.34508 32.186 7.58547 31.9456 7.58547 31.6518V28.874C7.58547 28.5802 7.34508 28.3398 7.05128 28.3398ZM6.51709 31.1176H3.57906V29.4082H6.51709V31.1176Z" fill="#F0AE20"/>
<path d="M21.9551 28.3398H17.9487C17.6549 28.3398 17.4145 28.5802 17.4145 28.874V31.6518C17.4145 31.9456 17.6549 32.186 17.9487 32.186H21.9551C22.2489 32.186 22.4893 31.9456 22.4893 31.6518V28.874C22.4893 28.5802 22.2489 28.3398 21.9551 28.3398ZM21.4209 31.1176H18.4829V29.4082H21.4209V31.1176Z" fill="#F0AE20"/>
<path d="M15.0801 30.5835H9.91987C9.62607 30.5835 9.38568 30.8239 9.38568 31.1177C9.38568 31.4115 9.62607 31.6519 9.91987 31.6519H15.0801C15.3739 31.6519 15.6143 31.4115 15.6143 31.1177C15.6143 30.8239 15.3739 30.5835 15.0801 30.5835Z" fill="#F0AE20"/>
<path d="M15.0801 28.9272H9.91987C9.62607 28.9272 9.38568 29.1676 9.38568 29.4614C9.38568 29.7552 9.62607 29.9956 9.91987 29.9956H15.0801C15.3739 29.9956 15.6143 29.7552 15.6143 29.4614C15.6143 29.1676 15.3739 28.9272 15.0801 28.9272Z" fill="#F0AE20"/>
</svg>
