<svg width="32" height="32" viewBox="0 0 32 32" fill="none" xmlns="http://www.w3.org/2000/svg">
<path d="M25.3707 4.19259H22.4757V2.89747C22.4757 2.47845 22.0186 2.28801 21.5996 2.28801H19.3522C18.8189 0.764314 17.4857 0.00246642 15.962 0.00246642C14.4551 -0.0541855 13.0844 0.869816 12.5718 2.28801H10.3624C9.94339 2.28801 9.52437 2.47845 9.52437 2.89747V4.19259H6.62929C4.9137 4.21089 3.51016 5.56427 3.42952 7.27804V29.1049C3.42952 30.781 4.95321 31.9999 6.62929 31.9999H25.3707C27.0468 31.9999 28.5705 30.781 28.5705 29.1049V7.27811C28.4898 5.56427 27.0863 4.21089 25.3707 4.19259ZM11.048 3.8117H13.1431C13.5088 3.76708 13.8026 3.48885 13.8669 3.12605C14.0925 2.14365 14.9543 1.43845 15.962 1.41191C16.9603 1.44217 17.8092 2.14955 18.0189 3.12605C18.0873 3.50139 18.4004 3.7832 18.7808 3.8117H20.9521V6.85909H11.048V3.8117ZM27.0468 29.105C27.0468 29.943 26.2088 30.4763 25.3707 30.4763H6.62929C5.79125 30.4763 4.95321 29.943 4.95321 29.105V7.27811C5.03094 6.40581 5.75363 5.73233 6.62929 5.71636H9.5243V7.65907C9.56455 8.08589 9.93421 8.40517 10.3623 8.38286H21.5995C22.0355 8.4067 22.4168 8.0918 22.4756 7.65907V5.71629H25.3706C26.2462 5.73233 26.969 6.40573 27.0467 7.27804V29.105H27.0468Z" fill="white"/>
<path d="M13.0669 17.0295C12.7812 16.7283 12.3068 16.7113 12.0003 16.9914L9.56236 19.315L8.53388 18.2484C8.24814 17.9472 7.77378 17.9303 7.46726 18.2104C7.17219 18.5195 7.17219 19.0059 7.46726 19.315L9.02901 20.9149C9.16419 21.0663 9.35945 21.15 9.56228 21.1435C9.76323 21.1407 9.95491 21.0585 10.0956 20.9149L13.0668 18.0961C13.3613 17.8259 13.381 17.368 13.1107 17.0735C13.0969 17.0582 13.0822 17.0435 13.0669 17.0295Z" fill="#F0AE20"/>
<path d="M23.9994 18.6675H15.2382C14.8174 18.6675 14.4763 19.0086 14.4763 19.4293C14.4763 19.8501 14.8174 20.1912 15.2382 20.1912H23.9994C24.4202 20.1912 24.7613 19.8501 24.7613 19.4293C24.7613 19.0086 24.4202 18.6675 23.9994 18.6675Z" fill="white"/>
<path d="M13.0669 10.9348C12.7812 10.6336 12.3068 10.6166 12.0003 10.8967L9.56236 13.2203L8.53388 12.1537C8.24814 11.8525 7.77378 11.8355 7.46726 12.1156C7.17219 12.4248 7.17219 12.9112 7.46726 13.2203L9.02901 14.8202C9.16419 14.9716 9.35945 15.0553 9.56228 15.0488C9.76323 15.0459 9.95491 14.9638 10.0956 14.8202L13.0668 12.0014C13.3613 11.7312 13.381 11.2733 13.1107 10.9788C13.0969 10.9634 13.0822 10.9488 13.0669 10.9348Z" fill="#F0AE20"/>
<path d="M23.9994 12.5728H15.2382C14.8174 12.5728 14.4763 12.9138 14.4763 13.3346C14.4763 13.7554 14.8174 14.0964 15.2382 14.0964H23.9994C24.4202 14.0964 24.7613 13.7554 24.7613 13.3346C24.7613 12.9138 24.4202 12.5728 23.9994 12.5728Z" fill="white"/>
<path d="M13.0669 23.1247C12.7812 22.8235 12.3068 22.8066 12.0003 23.0866L9.56236 25.4102L8.53388 24.3436C8.24814 24.0424 7.77378 24.0255 7.46726 24.3056C7.17219 24.6147 7.17219 25.1011 7.46726 25.4102L9.02901 27.0101C9.16419 27.1615 9.35945 27.2452 9.56228 27.2387C9.76323 27.2359 9.95491 27.1537 10.0956 27.0101L13.0668 24.1913C13.3613 23.9211 13.381 23.4632 13.1107 23.1687C13.0969 23.1534 13.0822 23.1388 13.0669 23.1247Z" fill="#F0AE20"/>
<path d="M23.9994 24.7627H15.2382C14.8174 24.7627 14.4763 25.1038 14.4763 25.5245C14.4763 25.9453 14.8174 26.2864 15.2382 26.2864H23.9994C24.4202 26.2864 24.7613 25.9453 24.7613 25.5245C24.7613 25.1038 24.4202 24.7627 23.9994 24.7627Z" fill="white"/>
</svg>
