<svg width="40" height="40" viewBox="0 0 40 40" fill="none" xmlns="http://www.w3.org/2000/svg">
<path d="M37.0043 6.89655H2.9957C1.34117 6.89655 0 8.23772 0 9.89225V30.1078C0 31.7622 1.34117 33.1035 2.9957 33.1035H37.0043C38.6587 33.1035 40 31.7623 40 30.1078V9.89225C40 8.23772 38.6588 6.89655 37.0043 6.89655Z" fill="#41479B"/>
<path d="M39.9585 9.39703C39.7224 7.97836 38.49 6.89648 37.0043 6.89648H36.2248L23.4483 15.2673V6.89656H16.5517V15.2674L3.77516 6.89656H2.9957C1.51 6.89656 0.277578 7.97836 0.0414844 9.39711L10.9616 16.5518H0V23.4484H10.9616L0.0414844 30.6029C0.277578 32.0216 1.51 33.1034 2.9957 33.1034H3.77516L16.5517 24.7326V33.1034H23.4483V24.7326L36.2248 33.1034H37.0043C38.49 33.1034 39.7224 32.0217 39.9585 30.6029L29.0384 23.4482H40V16.5516H29.0384L39.9585 9.39703Z" fill="#F5F5F5"/>
<path d="M22.069 6.89655H17.931V17.931H0V22.069H17.931V33.1034H22.069V22.069H40V17.931H22.069V6.89655Z" fill="#FF4B55"/>
<path d="M1.93695 32.9103L16.5138 23.4482H13.9803L0.720627 32.0554C1.04508 32.4341 1.46203 32.7308 1.93695 32.9103Z" fill="#FF4B55"/>
<path d="M27.0616 23.4482H24.5281L38.6466 32.6127C39.0416 32.3532 39.3713 32.0028 39.6065 31.5912L27.0616 23.4482Z" fill="#FF4B55"/>
<path d="M0.31633 8.55269L12.639 16.5517H15.1724L1.20899 7.48761C0.834065 7.76667 0.527268 8.13152 0.31633 8.55269Z" fill="#FF4B55"/>
<path d="M25.9817 16.5517L39.2657 7.92864C38.9376 7.55122 38.5174 7.25622 38.0392 7.0802L23.4483 16.5517H25.9817Z" fill="#FF4B55"/>
</svg>
