<svg width="40" height="40" viewBox="0 0 40 40" fill="none" xmlns="http://www.w3.org/2000/svg">
<path d="M37.0043 6.89655H2.9957C1.34117 6.89655 0 8.23772 0 9.89225V30.1078C0 31.7622 1.34117 33.1035 2.9957 33.1035H37.0043C38.6587 33.1035 40 31.7623 40 30.1078V9.89225C40 8.23772 38.6588 6.89655 37.0043 6.89655Z" fill="#F5F5F5"/>
<path d="M0.164764 8.91248H39.8352C39.4292 7.73928 38.3155 6.89655 37.0043 6.89655H2.9957C1.68445 6.89655 0.57078 7.73928 0.164764 8.91248Z" fill="#FF4B55"/>
<path d="M40 14.9601H0V16.976H40V14.9601Z" fill="#FF4B55"/>
<path d="M40 10.9281H0V12.944H40V10.9281Z" fill="#FF4B55"/>
<path d="M0 20.3183C0 20.6991 0.308828 21.0079 0.689687 21.0079H40V18.992H0V20.3183Z" fill="#FF4B55"/>
<path d="M40 27.0562H0V29.0722H40V27.0562Z" fill="#FF4B55"/>
<path d="M39.8352 31.0875H0.164764C0.57078 32.2607 1.68453 33.1034 2.9957 33.1034H37.0043C38.3155 33.1034 39.4292 32.2607 39.8352 31.0875Z" fill="#FF4B55"/>
<path d="M40 23.0242H0V25.04H40V23.0242Z" fill="#FF4B55"/>
<path d="M0.689687 21.008H17.9311C18.312 21.008 18.6208 20.6991 18.6208 20.3183V7.58617C18.6208 7.20523 18.312 6.89648 17.9311 6.89648H2.9957C1.34117 6.89656 0 8.23773 0 9.89227V20.3183C0 20.6992 0.308828 21.008 0.689687 21.008Z" fill="#41479B"/>
<path d="M1.93664 8.47958L2.0893 8.9374L2.57187 8.94107C2.63437 8.94161 2.66023 9.0213 2.61 9.05841L2.2218 9.34505L2.36742 9.80513C2.38633 9.86466 2.31844 9.91404 2.26758 9.87763L1.875 9.59708L1.48242 9.87771C1.43156 9.91411 1.36383 9.86474 1.38258 9.80521L1.5282 9.34513L1.14 9.05849C1.08977 9.0213 1.11562 8.94161 1.17812 8.94115L1.6607 8.93747L1.81336 8.47966C1.83305 8.42029 1.9168 8.42029 1.93664 8.47958Z" fill="#F5F5F5"/>
<path d="M1.93664 10.8743L2.0893 11.3321L2.57187 11.3358C2.63437 11.3363 2.66023 11.4159 2.61 11.4531L2.2218 11.7398L2.36742 12.1999C2.38633 12.2595 2.31844 12.3088 2.26758 12.2724L1.875 11.9919L1.48242 12.2725C1.43156 12.3088 1.36383 12.2595 1.38258 12.2L1.5282 11.7399L1.14 11.4532C1.08977 11.416 1.11562 11.3364 1.17812 11.3359L1.6607 11.3322L1.81336 10.8744C1.83305 10.8151 1.9168 10.8151 1.93664 10.8743Z" fill="#F5F5F5"/>
<path d="M1.93664 13.2693L2.0893 13.7271L2.57187 13.7307C2.63437 13.7313 2.66023 13.8109 2.61 13.8481L2.2218 14.1348L2.36742 14.5949C2.38633 14.6544 2.31844 14.7038 2.26758 14.6674L1.875 14.3868L1.48242 14.6675C1.43156 14.7038 1.36383 14.6546 1.38258 14.595L1.5282 14.1349L1.14 13.8482C1.08977 13.811 1.11562 13.7314 1.17812 13.7308L1.6607 13.7271L1.81336 13.2693C1.83305 13.21 1.9168 13.21 1.93664 13.2693Z" fill="#F5F5F5"/>
<path d="M1.93664 15.6641L2.0893 16.1219L2.57187 16.1256C2.63437 16.1261 2.66023 16.2058 2.61 16.2429L2.2218 16.5296L2.36742 16.9897C2.38633 17.0492 2.31844 17.0986 2.26758 17.0622L1.875 16.7817L1.48242 17.0623C1.43156 17.0986 1.36383 17.0493 1.38258 16.9898L1.5282 16.5297L1.14 16.243C1.08977 16.206 1.11562 16.1262 1.17812 16.1257L1.6607 16.122L1.81336 15.6642C1.83305 15.6048 1.9168 15.6048 1.93664 15.6641Z" fill="#F5F5F5"/>
<path d="M1.93664 18.0589L2.0893 18.5167L2.57187 18.5204C2.63437 18.521 2.66023 18.6006 2.61 18.6378L2.2218 18.9245L2.36742 19.3845C2.38633 19.4441 2.31844 19.4935 2.26758 19.457L1.875 19.1765L1.48242 19.4571C1.43156 19.4935 1.36383 19.4442 1.38258 19.3846L1.5282 18.9246L1.14 18.6378C1.08977 18.6006 1.11562 18.521 1.17812 18.5205L1.6607 18.5168L1.81336 18.059C1.83305 17.9997 1.9168 17.9997 1.93664 18.0589Z" fill="#F5F5F5"/>
<path d="M3.79547 9.65361L3.94812 10.1114L4.4307 10.1151C4.4932 10.1156 4.51906 10.1953 4.46882 10.2324L4.08062 10.5192L4.22625 10.9792C4.24515 11.0388 4.17726 11.0881 4.1264 11.0517L3.73382 10.7711L3.34125 11.0517C3.29039 11.0881 3.22265 11.0388 3.2414 10.9792L3.38703 10.5192L2.99883 10.2324C2.94859 10.1952 2.97445 10.1156 3.03695 10.1151L3.51953 10.1114L3.67218 9.65361C3.69187 9.59439 3.7757 9.59439 3.79547 9.65361Z" fill="#F5F5F5"/>
<path d="M3.79547 12.0486L3.94812 12.5064L4.4307 12.51C4.4932 12.5106 4.51906 12.5903 4.46882 12.6274L4.08062 12.9141L4.22625 13.3742C4.24515 13.4337 4.17726 13.4831 4.1264 13.4467L3.73382 13.1661L3.34125 13.4467C3.29039 13.483 3.22265 13.4338 3.2414 13.3742L3.38703 12.9141L2.99883 12.6274C2.94859 12.5904 2.97445 12.5106 3.03695 12.51L3.51953 12.5064L3.67218 12.0486C3.69187 11.9893 3.7757 11.9893 3.79547 12.0486Z" fill="#F5F5F5"/>
<path d="M3.79547 14.4434L3.94812 14.9012L4.4307 14.9049C4.4932 14.9054 4.51906 14.985 4.46882 15.0222L4.08062 15.3089L4.22625 15.769C4.24515 15.8286 4.17726 15.8779 4.1264 15.8415L3.73382 15.5609L3.34125 15.8415C3.29039 15.8779 3.22265 15.8286 3.2414 15.769L3.38703 15.3089L2.99883 15.0222C2.94859 14.985 2.97445 14.9054 3.03695 14.9049L3.51953 14.9012L3.67218 14.4434C3.69187 14.3841 3.7757 14.3841 3.79547 14.4434Z" fill="#F5F5F5"/>
<path d="M3.79547 16.8382L3.94812 17.2961L4.4307 17.2997C4.4932 17.3003 4.51906 17.3799 4.46882 17.4171L4.08062 17.7038L4.22625 18.1639C4.24515 18.2234 4.17726 18.2728 4.1264 18.2364L3.73382 17.9557L3.34125 18.2364C3.29039 18.2728 3.22265 18.2234 3.2414 18.1639L3.38703 17.7038L2.99883 17.4171C2.94859 17.3799 2.97445 17.3003 3.03695 17.2997L3.51953 17.2961L3.67218 16.8382C3.69187 16.779 3.7757 16.779 3.79547 16.8382Z" fill="#F5F5F5"/>
<path d="M5.6543 8.47947L5.80696 8.93728L6.28953 8.94095C6.35203 8.9415 6.37789 9.02119 6.32766 9.0583L5.93946 9.34494L6.08508 9.80502C6.10399 9.86455 6.0361 9.91392 5.98524 9.87752L5.59266 9.59689L5.20008 9.87752C5.14922 9.91392 5.08149 9.86455 5.10024 9.80502L5.24586 9.34494L4.85766 9.0583C4.80742 9.02111 4.83328 8.94142 4.89578 8.94095L5.37836 8.93728L5.53102 8.47947C5.55071 8.42017 5.63453 8.42017 5.6543 8.47947Z" fill="#F5F5F5"/>
<path d="M5.6543 10.8743L5.80696 11.3321L6.28953 11.3358C6.35203 11.3363 6.37789 11.416 6.32766 11.4531L5.93946 11.7399L6.08508 12.1999C6.10399 12.2595 6.0361 12.3088 5.98524 12.2724L5.59266 11.9918L5.20008 12.2724C5.14922 12.3088 5.08149 12.2595 5.10024 12.1999L5.24586 11.7399L4.85766 11.4531C4.80742 11.416 4.83328 11.3363 4.89578 11.3358L5.37836 11.3321L5.53102 10.8743C5.55071 10.8151 5.63453 10.8151 5.6543 10.8743Z" fill="#F5F5F5"/>
<path d="M5.6543 13.2693L5.80696 13.7271L6.28953 13.7308C6.35203 13.7313 6.37789 13.8109 6.32766 13.8481L5.93946 14.1348L6.08508 14.5949C6.10399 14.6544 6.0361 14.7038 5.98524 14.6674L5.59266 14.3868L5.20008 14.6674C5.14922 14.7037 5.08149 14.6545 5.10024 14.5949L5.24586 14.1348L4.85766 13.8481C4.80742 13.8109 4.83328 13.7313 4.89578 13.7308L5.37836 13.7271L5.53102 13.2693C5.55071 13.21 5.63453 13.21 5.6543 13.2693Z" fill="#F5F5F5"/>
<path d="M5.6543 15.6641L5.80696 16.1219L6.28953 16.1256C6.35203 16.1261 6.37789 16.2058 6.32766 16.2429L5.93946 16.5296L6.08508 16.9897C6.10399 17.0493 6.0361 17.0986 5.98524 17.0622L5.59266 16.7816L5.20008 17.0622C5.14922 17.0986 5.08149 17.0493 5.10024 16.9897L5.24586 16.5296L4.85766 16.2429C4.80742 16.2059 4.83328 16.1261 4.89578 16.1256L5.37836 16.1219L5.53102 15.6641C5.55071 15.6048 5.63453 15.6048 5.6543 15.6641Z" fill="#F5F5F5"/>
<path d="M5.6543 18.0589L5.80696 18.5168L6.28953 18.5204C6.35203 18.521 6.37789 18.6006 6.32766 18.6378L5.93946 18.9245L6.08508 19.3846C6.10399 19.4441 6.0361 19.4935 5.98524 19.4571L5.59266 19.1764L5.20008 19.4571C5.14922 19.4934 5.08149 19.4441 5.10024 19.3846L5.24586 18.9245L4.85766 18.6378C4.80742 18.6006 4.83328 18.521 4.89578 18.5204L5.37836 18.5168L5.53102 18.0589C5.55071 17.9997 5.63453 17.9997 5.6543 18.0589Z" fill="#F5F5F5"/>
<path d="M7.5132 9.65361L7.66586 10.1114L8.14844 10.1151C8.21094 10.1156 8.23679 10.1953 8.18656 10.2324L7.79836 10.5192L7.94398 10.9792C7.96289 11.0388 7.895 11.0881 7.84414 11.0517L7.45156 10.7711L7.05898 11.0517C7.00812 11.0881 6.94039 11.0388 6.95914 10.9792L7.10476 10.5192L6.71656 10.2324C6.66633 10.1952 6.69219 10.1156 6.75469 10.1151L7.23726 10.1114L7.38992 9.65361C7.40953 9.59439 7.49344 9.59439 7.5132 9.65361Z" fill="#F5F5F5"/>
<path d="M7.5132 12.0486L7.66586 12.5064L8.14844 12.51C8.21094 12.5106 8.23679 12.5903 8.18656 12.6274L7.79836 12.9141L7.94398 13.3742C7.96289 13.4337 7.895 13.4831 7.84414 13.4467L7.45156 13.1661L7.05898 13.4467C7.00812 13.483 6.94039 13.4338 6.95914 13.3742L7.10476 12.9141L6.71656 12.6274C6.66633 12.5904 6.69219 12.5106 6.75469 12.51L7.23726 12.5064L7.38992 12.0486C7.40953 11.9893 7.49344 11.9893 7.5132 12.0486Z" fill="#F5F5F5"/>
<path d="M7.5132 14.4434L7.66586 14.9012L8.14844 14.9049C8.21094 14.9054 8.23679 14.985 8.18656 15.0222L7.79836 15.3089L7.94398 15.769C7.96289 15.8286 7.895 15.8779 7.84414 15.8415L7.45156 15.5609L7.05898 15.8415C7.00812 15.8779 6.94039 15.8286 6.95914 15.769L7.10476 15.3089L6.71656 15.0222C6.66633 14.985 6.69219 14.9054 6.75469 14.9049L7.23726 14.9012L7.38992 14.4434C7.40953 14.3841 7.49344 14.3841 7.5132 14.4434Z" fill="#F5F5F5"/>
<path d="M7.5132 16.8382L7.66586 17.2961L8.14844 17.2997C8.21094 17.3003 8.23679 17.3799 8.18656 17.4171L7.79836 17.7038L7.94398 18.1639C7.96289 18.2234 7.895 18.2728 7.84414 18.2364L7.45156 17.9557L7.05898 18.2364C7.00812 18.2728 6.94039 18.2234 6.95914 18.1639L7.10476 17.7038L6.71656 17.4171C6.66633 17.3799 6.69219 17.3003 6.75469 17.2997L7.23726 17.2961L7.38992 16.8382C7.40953 16.779 7.49344 16.779 7.5132 16.8382Z" fill="#F5F5F5"/>
<path d="M9.37203 8.47946L9.52468 8.93727L10.0073 8.94094C10.0698 8.94149 10.0956 9.02118 10.0454 9.05829L9.65718 9.34493L9.80281 9.80501C9.82171 9.86454 9.75382 9.91391 9.70296 9.87751L9.31031 9.59696L8.91773 9.87758C8.86687 9.91399 8.79914 9.86461 8.81789 9.80508L8.96351 9.34501L8.57531 9.05837C8.52508 9.02118 8.55093 8.94149 8.61343 8.94102L9.09601 8.93735L9.24867 8.47954C9.26843 8.42016 9.35226 8.42016 9.37203 8.47946Z" fill="#F5F5F5"/>
<path d="M9.37203 10.8743L9.52468 11.3321L10.0073 11.3358C10.0698 11.3363 10.0956 11.416 10.0454 11.4531L9.65718 11.7399L9.80281 12.1999C9.82171 12.2595 9.75382 12.3088 9.70296 12.2724L9.31031 11.9918L8.91773 12.2724C8.86687 12.3088 8.79914 12.2595 8.81789 12.1999L8.96351 11.7399L8.57531 11.4531C8.52508 11.416 8.55093 11.3363 8.61343 11.3358L9.09601 11.3321L9.24867 10.8743C9.26843 10.8151 9.35226 10.8151 9.37203 10.8743Z" fill="#F5F5F5"/>
<path d="M9.37203 13.2692L9.52468 13.727L10.0073 13.7307C10.0698 13.7312 10.0956 13.8109 10.0454 13.848L9.65718 14.1348L9.80281 14.5948C9.82171 14.6544 9.75382 14.7037 9.70296 14.6673L9.31031 14.3866L8.91773 14.6673C8.86687 14.7036 8.79914 14.6543 8.81789 14.5948L8.96351 14.1347L8.57531 13.848C8.52508 13.8108 8.55093 13.7312 8.61343 13.7306L9.09601 13.7269L9.24867 13.2691C9.26843 13.2099 9.35226 13.2099 9.37203 13.2692Z" fill="#F5F5F5"/>
<path d="M9.37203 15.6641L9.52468 16.1219L10.0073 16.1256C10.0698 16.1261 10.0956 16.2058 10.0454 16.2429L9.65718 16.5296L9.80281 16.9897C9.82171 17.0493 9.75382 17.0986 9.70296 17.0622L9.31031 16.7816L8.91773 17.0622C8.86687 17.0986 8.79914 17.0493 8.81789 16.9897L8.96351 16.5296L8.57531 16.2429C8.52508 16.2059 8.55093 16.1261 8.61343 16.1256L9.09601 16.1219L9.24867 15.6641C9.26843 15.6048 9.35226 15.6048 9.37203 15.6641Z" fill="#F5F5F5"/>
<path d="M9.37203 18.0589L9.52468 18.5168L10.0073 18.5204C10.0698 18.521 10.0956 18.6006 10.0454 18.6378L9.65718 18.9245L9.80281 19.3846C9.82171 19.4441 9.75382 19.4935 9.70296 19.4571L9.31031 19.1764L8.91773 19.4571C8.86687 19.4934 8.79914 19.4441 8.81789 19.3846L8.96351 18.9245L8.57531 18.6378C8.52508 18.6006 8.55093 18.521 8.61343 18.5204L9.09601 18.5168L9.24867 18.0589C9.26843 17.9997 9.35226 17.9997 9.37203 18.0589Z" fill="#F5F5F5"/>
<path d="M11.2309 9.65361L11.3835 10.1114L11.8661 10.1151C11.9286 10.1156 11.9545 10.1953 11.9042 10.2324L11.516 10.5192L11.6616 10.9792C11.6805 11.0388 11.6127 11.0881 11.5618 11.0517L11.1692 10.7711L10.7766 11.0517C10.7258 11.0881 10.658 11.0388 10.6768 10.9792L10.8224 10.5192L10.4342 10.2324C10.384 10.1952 10.4098 10.1156 10.4723 10.1151L10.9549 10.1114L11.1076 9.65361C11.1273 9.59439 11.2111 9.59439 11.2309 9.65361Z" fill="#F5F5F5"/>
<path d="M11.2309 12.0486L11.3835 12.5064L11.8661 12.51C11.9286 12.5106 11.9545 12.5903 11.9042 12.6274L11.516 12.9141L11.6616 13.3742C11.6805 13.4337 11.6127 13.4831 11.5618 13.4467L11.1692 13.1661L10.7766 13.4467C10.7258 13.483 10.658 13.4338 10.6768 13.3742L10.8224 12.9141L10.4342 12.6274C10.384 12.5904 10.4098 12.5106 10.4723 12.51L10.9549 12.5064L11.1076 12.0486C11.1273 11.9893 11.2111 11.9893 11.2309 12.0486Z" fill="#F5F5F5"/>
<path d="M11.2309 14.4434L11.3835 14.9012L11.8661 14.9049C11.9286 14.9054 11.9545 14.985 11.9042 15.0222L11.516 15.3089L11.6616 15.769C11.6805 15.8286 11.6127 15.8779 11.5618 15.8415L11.1692 15.5609L10.7766 15.8415C10.7258 15.8779 10.658 15.8286 10.6768 15.769L10.8224 15.3089L10.4342 15.0222C10.384 14.985 10.4098 14.9054 10.4723 14.9049L10.9549 14.9012L11.1076 14.4434C11.1273 14.3841 11.2111 14.3841 11.2309 14.4434Z" fill="#F5F5F5"/>
<path d="M11.2309 16.8382L11.3835 17.2961L11.8661 17.2997C11.9286 17.3003 11.9545 17.3799 11.9042 17.4171L11.516 17.7038L11.6616 18.1639C11.6805 18.2234 11.6127 18.2728 11.5618 18.2364L11.1692 17.9557L10.7766 18.2364C10.7258 18.2728 10.658 18.2234 10.6768 18.1639L10.8224 17.7038L10.4342 17.4171C10.384 17.3799 10.4098 17.3003 10.4723 17.2997L10.9549 17.2961L11.1076 16.8382C11.1273 16.779 11.2111 16.779 11.2309 16.8382Z" fill="#F5F5F5"/>
<path d="M13.0898 8.47947L13.2424 8.93728L13.725 8.94095C13.7875 8.9415 13.8134 9.02119 13.7631 9.0583L13.3749 9.34494L13.5205 9.80502C13.5395 9.86455 13.4716 9.91392 13.4207 9.87752L13.0281 9.59689L12.6356 9.87752C12.5847 9.91392 12.517 9.86455 12.5357 9.80502L12.6813 9.34494L12.2931 9.0583C12.2429 9.02111 12.2688 8.94142 12.3313 8.94095L12.8138 8.93728L12.9665 8.47947C12.9861 8.42017 13.07 8.42017 13.0898 8.47947Z" fill="#F5F5F5"/>
<path d="M13.0898 10.8743L13.2424 11.3321L13.725 11.3358C13.7875 11.3363 13.8134 11.416 13.7631 11.4531L13.3749 11.7399L13.5205 12.1999C13.5395 12.2595 13.4716 12.3088 13.4207 12.2724L13.0281 11.9918L12.6356 12.2724C12.5847 12.3088 12.517 12.2595 12.5357 12.1999L12.6813 11.7399L12.2931 11.4531C12.2429 11.416 12.2688 11.3363 12.3313 11.3358L12.8138 11.3321L12.9665 10.8743C12.9861 10.8151 13.07 10.8151 13.0898 10.8743Z" fill="#F5F5F5"/>
<path d="M13.0898 13.2693L13.2424 13.7271L13.725 13.7308C13.7875 13.7313 13.8134 13.8109 13.7631 13.8481L13.3749 14.1348L13.5205 14.5949C13.5395 14.6544 13.4716 14.7038 13.4207 14.6674L13.0281 14.3868L12.6356 14.6674C12.5847 14.7037 12.517 14.6545 12.5357 14.5949L12.6813 14.1348L12.2931 13.8481C12.2429 13.8109 12.2688 13.7313 12.3313 13.7308L12.8138 13.7271L12.9665 13.2693C12.9861 13.21 13.07 13.21 13.0898 13.2693Z" fill="#F5F5F5"/>
<path d="M13.0898 15.6641L13.2424 16.1219L13.725 16.1256C13.7875 16.1261 13.8134 16.2058 13.7631 16.2429L13.3749 16.5296L13.5205 16.9897C13.5395 17.0493 13.4716 17.0986 13.4207 17.0622L13.0281 16.7816L12.6356 17.0622C12.5847 17.0986 12.517 17.0493 12.5357 16.9897L12.6813 16.5296L12.2931 16.2429C12.2429 16.2059 12.2688 16.1261 12.3313 16.1256L12.8138 16.1219L12.9665 15.6641C12.9861 15.6048 13.07 15.6048 13.0898 15.6641Z" fill="#F5F5F5"/>
<path d="M13.0898 18.0589L13.2424 18.5168L13.725 18.5204C13.7875 18.521 13.8134 18.6006 13.7631 18.6378L13.3749 18.9245L13.5205 19.3846C13.5395 19.4441 13.4716 19.4935 13.4207 19.4571L13.0281 19.1764L12.6356 19.4571C12.5847 19.4934 12.517 19.4441 12.5357 19.3846L12.6813 18.9245L12.2931 18.6378C12.2429 18.6006 12.2688 18.521 12.3313 18.5204L12.8138 18.5168L12.9665 18.0589C12.9861 17.9997 13.07 17.9997 13.0898 18.0589Z" fill="#F5F5F5"/>
<path d="M14.9486 9.65361L15.1013 10.1114L15.5838 10.1151C15.6463 10.1156 15.6722 10.1953 15.622 10.2324L15.2338 10.5192L15.3794 10.9792C15.3983 11.0388 15.3304 11.0881 15.2795 11.0517L14.887 10.7711L14.4944 11.0517C14.4435 11.0881 14.3758 11.0388 14.3945 10.9792L14.5402 10.5192L14.152 10.2324C14.1017 10.1952 14.1276 10.1156 14.1901 10.1151L14.6727 10.1114L14.8253 9.65361C14.845 9.59439 14.9288 9.59439 14.9486 9.65361Z" fill="#F5F5F5"/>
<path d="M14.9486 12.0486L15.1013 12.5064L15.5838 12.51C15.6463 12.5106 15.6722 12.5903 15.622 12.6274L15.2338 12.9141L15.3794 13.3742C15.3983 13.4337 15.3304 13.4831 15.2795 13.4467L14.887 13.1661L14.4944 13.4467C14.4435 13.483 14.3758 13.4338 14.3945 13.3742L14.5402 12.9141L14.152 12.6274C14.1017 12.5904 14.1276 12.5106 14.1901 12.51L14.6727 12.5064L14.8253 12.0486C14.845 11.9893 14.9288 11.9893 14.9486 12.0486Z" fill="#F5F5F5"/>
<path d="M14.9486 14.4434L15.1013 14.9012L15.5838 14.9049C15.6463 14.9054 15.6722 14.985 15.622 15.0222L15.2338 15.3089L15.3794 15.769C15.3983 15.8286 15.3304 15.8779 15.2795 15.8415L14.887 15.5609L14.4944 15.8415C14.4435 15.8779 14.3758 15.8286 14.3945 15.769L14.5402 15.3089L14.152 15.0222C14.1017 14.985 14.1276 14.9054 14.1901 14.9049L14.6727 14.9012L14.8253 14.4434C14.845 14.3841 14.9288 14.3841 14.9486 14.4434Z" fill="#F5F5F5"/>
<path d="M14.9486 16.8382L15.1013 17.2961L15.5838 17.2997C15.6463 17.3003 15.6722 17.3799 15.622 17.4171L15.2338 17.7038L15.3794 18.1639C15.3983 18.2234 15.3304 18.2728 15.2795 18.2364L14.887 17.9557L14.4944 18.2364C14.4435 18.2728 14.3758 18.2234 14.3945 18.1639L14.5402 17.7038L14.152 17.4171C14.1017 17.3799 14.1276 17.3003 14.1901 17.2997L14.6727 17.2961L14.8253 16.8382C14.845 16.779 14.9288 16.779 14.9486 16.8382Z" fill="#F5F5F5"/>
<path d="M16.8075 8.47947L16.9602 8.93728L17.4427 8.94095C17.5052 8.9415 17.5311 9.02119 17.4809 9.0583L17.0927 9.34494L17.2383 9.80502C17.2572 9.86455 17.1893 9.91392 17.1384 9.87752L16.7459 9.59689L16.3533 9.87752C16.3024 9.91392 16.2347 9.86455 16.2534 9.80502L16.3991 9.34494L16.0109 9.0583C15.9606 9.02111 15.9865 8.94142 16.049 8.94095L16.5316 8.93728L16.6842 8.47947C16.7039 8.42017 16.7877 8.42017 16.8075 8.47947Z" fill="#F5F5F5"/>
<path d="M16.8075 10.8743L16.9602 11.3321L17.4427 11.3358C17.5052 11.3363 17.5311 11.416 17.4809 11.4531L17.0927 11.7399L17.2383 12.1999C17.2572 12.2595 17.1893 12.3088 17.1384 12.2724L16.7459 11.9918L16.3533 12.2724C16.3024 12.3088 16.2347 12.2595 16.2534 12.1999L16.3991 11.7399L16.0109 11.4531C15.9606 11.416 15.9865 11.3363 16.049 11.3358L16.5316 11.3321L16.6842 10.8743C16.7039 10.8151 16.7877 10.8151 16.8075 10.8743Z" fill="#F5F5F5"/>
<path d="M16.8075 13.2693L16.9602 13.7271L17.4427 13.7308C17.5052 13.7313 17.5311 13.8109 17.4809 13.8481L17.0927 14.1348L17.2383 14.5949C17.2572 14.6544 17.1893 14.7038 17.1384 14.6674L16.7459 14.3868L16.3533 14.6674C16.3024 14.7037 16.2347 14.6545 16.2534 14.5949L16.3991 14.1348L16.0109 13.8481C15.9606 13.8109 15.9865 13.7313 16.049 13.7308L16.5316 13.7271L16.6842 13.2693C16.7039 13.21 16.7877 13.21 16.8075 13.2693Z" fill="#F5F5F5"/>
<path d="M16.8075 15.6641L16.9602 16.1219L17.4427 16.1256C17.5052 16.1261 17.5311 16.2058 17.4809 16.2429L17.0927 16.5296L17.2383 16.9897C17.2572 17.0493 17.1893 17.0986 17.1384 17.0622L16.7459 16.7816L16.3533 17.0622C16.3024 17.0986 16.2347 17.0493 16.2534 16.9897L16.3991 16.5296L16.0109 16.2429C15.9606 16.2059 15.9865 16.1261 16.049 16.1256L16.5316 16.1219L16.6842 15.6641C16.7039 15.6048 16.7877 15.6048 16.8075 15.6641Z" fill="#F5F5F5"/>
<path d="M16.8075 18.0589L16.9602 18.5168L17.4427 18.5204C17.5052 18.521 17.5311 18.6006 17.4809 18.6378L17.0927 18.9245L17.2383 19.3846C17.2572 19.4441 17.1893 19.4935 17.1384 19.4571L16.7459 19.1764L16.3533 19.4571C16.3024 19.4934 16.2347 19.4441 16.2534 19.3846L16.3991 18.9245L16.0109 18.6378C15.9606 18.6006 15.9865 18.521 16.049 18.5204L16.5316 18.5168L16.6842 18.0589C16.7039 17.9997 16.7877 17.9997 16.8075 18.0589Z" fill="#F5F5F5"/>
</svg>
