<svg width="157" height="44" viewBox="0 0 157 44" fill="none" xmlns="http://www.w3.org/2000/svg">
<path d="M32.1542 29.8272L32.7106 32.0779L30.4155 31.5322C28.1437 33.3965 25.1995 34.5104 22.0003 34.5104V43.1722L24.8981 38.4435C32.4324 37.2158 38.3207 31.214 39.2943 23.7344H34.9824C34.6115 26.0078 33.6147 28.0994 32.1542 29.8272Z" fill="#DEAC35"/>
<path d="M11.3364 32.0555L11.916 29.8048C10.015 27.5768 8.87908 24.6896 8.87908 21.5522H0.0234375L4.84536 24.394C6.0972 31.7827 12.2173 37.5799 19.8443 38.512V34.2834C17.5029 33.897 15.3701 32.9194 13.6314 31.4871L11.3364 32.0555Z" fill="#DEAC35"/>
<path d="M11.8927 13.3223L11.3132 11.0716L13.6082 11.6172C15.8337 9.79848 18.6851 8.6845 21.7916 8.63903H22.0698V0L19.172 4.706C11.6145 5.93365 5.70305 11.9128 4.7294 19.4151H9.04131C9.4354 17.1189 10.4322 15.0274 11.8927 13.3223Z" fill="#DEAC35"/>
<path d="M32.7105 11.0718L32.1541 13.3225C34.0551 15.5504 35.191 18.4377 35.191 21.575H44.0235L39.2016 18.7332C37.9497 11.3446 31.8528 5.57007 24.2258 4.61523V8.84381C26.5672 9.23029 28.6768 10.2306 30.4155 11.6401L32.7105 11.0718Z" fill="#DEAC35"/>
<path d="M30.8791 17.3692C30.8559 17.3919 30.8096 17.3919 30.7864 17.3919C30.7169 17.3919 30.6473 17.3464 30.6009 17.2782C30.5546 17.1873 30.6009 17.0509 30.6937 17.0054L31.5051 16.5962C31.2964 16.2325 31.0878 15.8687 30.8328 15.5277L30.0909 16.0506C30.0677 16.0733 30.0214 16.0961 29.975 16.0961H29.9518C29.9055 16.0961 29.8591 16.0506 29.8127 16.0051C29.7432 15.9142 29.7664 15.8005 29.8591 15.7323L30.5778 15.2094C30.3459 14.8911 30.0909 14.5956 29.8127 14.3228L29.0014 15.1185C28.955 15.1639 28.8623 15.2094 28.7927 15.2094C28.7232 15.2094 28.6536 15.1867 28.5841 15.1185C28.5377 15.073 28.4914 15.0048 28.4914 14.9139C28.4914 14.8457 28.5145 14.7547 28.5841 14.7093L29.3955 13.9136C29.1173 13.6408 28.8159 13.3907 28.4914 13.1633L27.9582 13.8908C27.9118 13.9363 27.8654 13.9818 27.7959 13.9818C27.7495 13.9818 27.7032 13.959 27.68 13.9363C27.5872 13.8681 27.5641 13.7544 27.6336 13.6635L28.1668 12.936C27.8191 12.6859 27.4481 12.4813 27.0772 12.2767L26.66 13.0724C26.6368 13.1179 26.5904 13.1633 26.544 13.1633C26.5209 13.1633 26.4977 13.1633 26.4745 13.1633C26.4513 13.1633 26.4049 13.1633 26.3818 13.1406C26.289 13.0951 26.2427 12.9587 26.289 12.8678L26.7063 12.0721C26.3354 11.8902 25.9413 11.7311 25.524 11.5947L25.2458 12.4358C25.2226 12.4813 25.1995 12.5268 25.1531 12.5495C25.1299 12.5722 25.0836 12.5722 25.0604 12.5722C25.0372 12.5722 25.014 12.5722 24.9908 12.5722C24.8749 12.5268 24.8285 12.4358 24.8517 12.3222L25.1299 11.481C24.7358 11.3673 24.3185 11.2537 23.8781 11.1854L23.739 12.0721C23.739 12.1176 23.6926 12.163 23.6462 12.2085C23.5999 12.2312 23.5767 12.254 23.5303 12.254H23.5072C23.3912 12.2312 23.3217 12.1403 23.3449 12.0266L23.484 11.1627C23.0899 11.1172 22.6958 11.0718 22.3017 11.0718V12.2085C22.3017 12.3676 22.1626 12.4813 22.0003 12.4813C21.838 12.4813 21.7221 12.3449 21.7221 12.2085V11.0718C21.328 11.0718 20.9339 11.1172 20.5398 11.1627L20.6789 12.0266C20.7021 12.1403 20.6094 12.2312 20.5166 12.254H20.4935C20.4007 12.254 20.308 12.1858 20.2848 12.0948L20.1457 11.2309C19.7284 11.2991 19.3112 11.3901 18.8939 11.5265L19.1721 12.3676C19.1952 12.4813 19.1489 12.595 19.033 12.6177C19.0098 12.6177 18.9866 12.6177 18.9634 12.6177C18.9402 12.6177 18.8939 12.6177 18.8707 12.595C18.8243 12.5722 18.778 12.5268 18.778 12.4813L18.4998 11.6401C18.1057 11.7765 17.7116 11.9357 17.3175 12.1176L17.7348 12.9133C17.7811 13.0042 17.7348 13.1406 17.642 13.1861C17.6189 13.1861 17.5957 13.1861 17.5725 13.1861C17.5493 13.1861 17.5261 13.1861 17.5029 13.1861C17.4566 13.1633 17.4102 13.1406 17.387 13.0951L16.9697 12.2767C16.5988 12.4813 16.2279 12.6859 15.8802 12.936L16.4134 13.6635C16.4829 13.7544 16.4597 13.8681 16.367 13.9363C16.3206 13.959 16.2975 13.9818 16.2511 13.9818H16.2279C16.1815 13.9818 16.1352 13.9363 16.0888 13.8908L15.5556 13.1861C15.2311 13.4134 14.9297 13.6862 14.6515 13.9363L15.4629 14.732C15.5788 14.8457 15.5788 15.0275 15.4629 15.1412C15.4165 15.1867 15.3238 15.2321 15.2543 15.2321C15.1847 15.2321 15.1152 15.2094 15.0456 15.1412L14.2342 14.3455C13.956 14.6183 13.701 14.9139 13.4692 15.2321L14.2111 15.755C14.2574 15.7778 14.2806 15.846 14.3038 15.8914C14.3038 15.9369 14.3038 16.0051 14.2574 16.0506C14.2342 16.0961 14.1879 16.1188 14.1183 16.1188H14.0951C14.0488 16.1188 14.0024 16.0961 13.9792 16.0733L13.2606 15.5504C13.0288 15.8914 12.7969 16.2552 12.5883 16.6189L13.3997 17.0282C13.4924 17.0736 13.5388 17.21 13.4924 17.301C13.446 17.3692 13.3765 17.4146 13.3069 17.4146C13.2838 17.4146 13.2374 17.4146 13.2142 17.3919L12.4028 16.9827C12.2174 17.3464 12.0551 17.7329 11.916 18.1421L12.7738 18.4149C12.8897 18.4604 12.936 18.5514 12.9128 18.665C12.8897 18.7105 12.8665 18.756 12.8201 18.7787C12.7969 18.8014 12.7506 18.8014 12.7274 18.8014C12.7042 18.8014 12.681 18.8014 12.6578 18.8014L11.8001 18.5286C11.6842 18.9151 11.5683 19.3243 11.4987 19.7563L12.3797 19.8927C12.426 19.8927 12.4724 19.9381 12.5187 19.9836C12.5419 20.0291 12.5651 20.0745 12.5651 20.1428C12.5419 20.2337 12.4724 20.3019 12.3565 20.3019H12.3333L11.4524 20.1655C11.406 20.552 11.3596 20.9385 11.3596 21.3249H12.5187C12.681 21.3249 12.7969 21.4613 12.7969 21.5977C12.7969 21.7569 12.6578 21.8706 12.5187 21.8706H11.3596C11.3596 22.257 11.406 22.6435 11.4524 23.03L12.3333 22.8936C12.4492 22.8709 12.5419 22.9618 12.5651 23.0527C12.5651 23.0982 12.5651 23.1664 12.5187 23.1891C12.4956 23.2346 12.4492 23.2573 12.3797 23.2801L11.4987 23.4165C11.5683 23.8257 11.661 24.2349 11.8001 24.6441L12.6578 24.3713C12.7042 24.3486 12.7738 24.3486 12.8201 24.3941C12.8665 24.4168 12.9128 24.4623 12.9128 24.5077C12.936 24.6214 12.8897 24.7351 12.7738 24.7578L11.916 25.0306C12.0551 25.4171 12.2174 25.8036 12.4028 26.1901L13.2142 25.7809C13.3069 25.7354 13.446 25.7581 13.4924 25.8718C13.5388 25.9627 13.4924 26.0991 13.3997 26.1446L12.5883 26.5538C12.7969 26.9176 13.0056 27.2813 13.2606 27.6223L13.9792 27.0994C14.0256 27.0767 14.072 27.054 14.1415 27.054C14.1879 27.054 14.2342 27.0994 14.2806 27.1449C14.3038 27.1904 14.327 27.2358 14.327 27.2813C14.327 27.3268 14.2806 27.3723 14.2342 27.4177L13.5156 27.9406C13.7474 28.2589 14.0256 28.5544 14.2806 28.8272L15.092 28.0315C15.1383 27.9861 15.2079 27.9406 15.3006 27.9406C15.3702 27.9406 15.4397 27.9633 15.5093 28.0315C15.5556 28.077 15.602 28.168 15.602 28.2362C15.602 28.3044 15.5788 28.3726 15.5093 28.4408L14.6979 29.2365C14.9761 29.5093 15.2774 29.7594 15.602 29.9867L16.1352 29.2592C16.2047 29.1683 16.3206 29.1455 16.4134 29.2137C16.4597 29.2365 16.4829 29.2819 16.5061 29.3501C16.5061 29.3956 16.5061 29.4638 16.4597 29.5093L15.9265 30.214C16.2743 30.4414 16.6452 30.6687 17.0161 30.8733L17.4334 30.0776C17.4566 30.0322 17.5029 29.9867 17.5493 29.9867C17.5957 29.964 17.6652 29.964 17.7116 30.0094C17.8043 30.0549 17.8507 30.1913 17.8043 30.2822L17.387 31.0779C17.7579 31.2598 18.152 31.419 18.5693 31.5554L18.8475 30.7142C18.8707 30.6687 18.8939 30.6233 18.9402 30.6005C18.9866 30.5778 19.0562 30.5778 19.1025 30.6005C19.2184 30.646 19.2648 30.7369 19.2416 30.8506L18.9634 31.6918C19.3575 31.8054 19.7748 31.9191 20.2153 31.9873L20.3544 31.1234C20.3544 31.0779 20.4007 31.0325 20.4471 30.987C20.4935 30.9643 20.5398 30.9415 20.6094 30.9415C20.6557 30.9415 20.7021 30.987 20.7485 31.0097C20.7716 31.0552 20.7948 31.1007 20.7948 31.1689L20.6557 32.0328C21.0498 32.0782 21.4439 32.1237 21.838 32.1237V30.987C21.838 30.8279 21.9771 30.7142 22.1162 30.7142C22.2785 30.7142 22.4176 30.8506 22.4176 30.987V32.1237C22.8117 32.1237 23.2058 32.0782 23.5999 32.0328L23.4608 31.1461C23.4608 31.1007 23.4608 31.0325 23.5072 30.987C23.5303 30.9415 23.5767 30.9188 23.6462 30.8961C23.6926 30.8961 23.7622 30.8961 23.7853 30.9415C23.8317 30.9643 23.8549 31.0097 23.8781 31.0779L24.0172 31.9646C24.4345 31.8964 24.8517 31.7827 25.269 31.669L24.9908 30.8279C24.9676 30.7142 25.014 30.6005 25.1299 30.5778C25.1763 30.5551 25.2458 30.5551 25.2922 30.6005C25.3386 30.6233 25.3849 30.6687 25.3849 30.7142L25.6631 31.5554C26.0572 31.419 26.4513 31.2598 26.8454 31.0779L26.4281 30.2822C26.3818 30.1913 26.4049 30.0549 26.5209 30.0094C26.5672 29.9867 26.6368 29.9867 26.6831 29.9867C26.7295 30.0094 26.7759 30.0322 26.799 30.0776L27.2163 30.8733C27.5872 30.6687 27.9582 30.4641 28.3059 30.214L27.7727 29.4865C27.7032 29.3956 27.7263 29.2819 27.8191 29.2137C27.9118 29.1455 28.0509 29.1683 28.0973 29.2592L28.6304 29.9867C28.955 29.7594 29.2564 29.4865 29.5346 29.2365L28.7232 28.4408C28.6073 28.3271 28.6073 28.1452 28.7232 28.0315C28.8391 27.9179 29.0245 27.9179 29.1405 28.0315L29.9518 28.8272C30.23 28.5544 30.485 28.2362 30.7169 27.9406L29.975 27.4177C29.9287 27.395 29.9055 27.3495 29.8823 27.2813C29.8823 27.2358 29.8823 27.1676 29.9287 27.1222C29.9518 27.0767 29.9982 27.054 30.0677 27.054C30.1141 27.054 30.1837 27.054 30.23 27.0994L30.9719 27.6223C31.2037 27.2813 31.4355 26.9176 31.6441 26.5538L30.8328 26.1446C30.74 26.0991 30.6937 25.9627 30.74 25.8718C30.7632 25.8263 30.8096 25.7809 30.8559 25.7809C30.9023 25.7581 30.9719 25.7581 31.0182 25.8036L31.8296 26.2128C32.0151 25.8491 32.1773 25.4626 32.3164 25.0534L31.4587 24.7805C31.3428 24.7351 31.2964 24.6214 31.3196 24.5305C31.366 24.4168 31.4587 24.3713 31.5746 24.3941L32.4323 24.6669C32.5251 24.3713 32.5946 24.053 32.6642 23.7575H28.5145C27.6104 26.3492 25.1067 28.2134 22.1394 28.2134C18.4302 28.2134 15.4165 25.258 15.4165 21.6205C15.4165 17.983 18.4302 15.0275 22.1394 15.0275C24.8054 15.0275 27.1236 16.5507 28.2132 18.7787H32.4787C32.3164 18.1649 32.0846 17.5965 31.8064 17.0282L30.8791 17.3692Z" fill="#DEAC35"/>
<path d="M88.4179 32.8507V38.7282H85.8216V32.8507H83.1763V30.8438H91.1122V32.8507H88.4179Z" fill="white"/>
<path d="M99.587 34.5694C99.3421 34.9517 98.9502 35.2384 98.4113 35.4295L100.224 38.7267H97.2846L95.864 35.8596H94.8842V38.7267H92.2879V30.7944H97.2356C97.8235 30.7944 98.3133 30.89 98.7052 31.1289C99.0971 31.3678 99.44 31.6546 99.636 32.0368C99.8319 32.4191 99.9299 32.8014 99.9299 33.2314C99.9789 33.7093 99.8319 34.1394 99.587 34.5694ZM97.0886 32.8492C96.9417 32.7058 96.7947 32.658 96.5498 32.658H94.8352V34.1394H96.5988C96.7947 34.1394 96.9907 34.0916 97.1376 33.9482C97.2846 33.8049 97.3336 33.6137 97.3336 33.4226C97.3336 33.1359 97.2356 32.9447 97.0886 32.8492Z" fill="white"/>
<path d="M106.886 38.7267L106.543 37.6276H103.702L103.359 38.7267H100.714L103.653 30.7944H106.69L109.629 38.7267H106.886ZM104.241 35.8596H106.004L105.172 33.0403H105.123L104.241 35.8596Z" fill="white"/>
<path d="M118.398 34.7606C118.398 37.3887 116.977 38.7267 114.136 38.7267H110.609V30.7944H114.136C116.977 30.7944 118.398 32.1324 118.398 34.7606ZM113.254 36.8153H114.136C115.214 36.8153 115.753 36.2419 115.753 35.0951V34.4261C115.753 33.2792 115.214 32.7058 114.136 32.7058H113.254V36.8153Z" fill="white"/>
<path d="M119.819 30.7944H126.824V32.7058H122.415V33.8049H126.187V35.6207H122.415V36.8153H126.922V38.7267H119.819V30.7944Z" fill="white"/>
<path d="M66.1776 10.964C67.5002 12.063 68.1371 13.6399 68.1371 15.6469H63.4833C63.4833 14.7867 63.2383 14.1177 62.7975 13.5921C62.3566 13.1143 61.6707 12.8276 60.838 12.8276C59.8582 12.8276 59.1234 13.1143 58.6825 13.7355C58.2416 14.3567 57.9967 15.169 57.9967 16.2681V17.6538C57.9967 18.7051 58.2416 19.5652 58.6825 20.1386C59.1234 20.7598 59.8582 21.0465 60.789 21.0465C61.7197 21.0465 62.4545 20.8076 62.9444 20.3297C63.4343 19.8519 63.6792 19.1829 63.6792 18.3228H68.1861C68.1861 20.3297 67.5492 21.9066 66.2756 22.9579C65.0019 24.0092 63.1894 24.5826 60.887 24.5826C58.2906 24.5826 56.3311 23.9614 55.0085 22.6712C53.6858 21.381 53 19.4696 53 16.937C53 14.4045 53.6858 12.4931 55.0085 11.2029C56.3311 9.9127 58.2906 9.2915 60.887 9.2915C63.0914 9.2915 64.9039 9.86492 66.1776 10.964Z" fill="white"/>
<path d="M84.4008 11.2507C85.8215 12.5409 86.5563 14.4522 86.5563 16.937C86.5563 19.4218 85.8215 21.3332 84.4008 22.6234C82.9802 23.9136 80.9717 24.5826 78.3264 24.5826C75.7301 24.5826 73.6726 23.9136 72.301 22.6234C70.8314 21.381 70.1455 19.4696 70.1455 16.937C70.1455 14.4522 70.8314 12.5409 72.252 11.2507C73.6726 9.96049 75.6811 9.2915 78.2774 9.2915C80.9227 9.2915 82.9802 9.96049 84.4008 11.2507ZM75.926 13.7833C75.3872 14.4045 75.0933 15.2168 75.0933 16.2681V17.6538C75.0933 18.7051 75.3872 19.5174 75.926 20.1386C76.4649 20.7598 77.2487 21.0465 78.3264 21.0465C79.3551 21.0465 80.1879 20.7598 80.7268 20.1386C81.2656 19.5174 81.5596 18.7051 81.5596 17.6538V16.2681C81.5596 15.2168 81.2656 14.4045 80.7268 13.7833C80.1879 13.1621 79.3551 12.8753 78.3264 12.8753C77.2977 12.8753 76.4649 13.1621 75.926 13.7833Z" fill="white"/>
<path d="M89.1526 9.58008H94.0023V20.5705H101.791V24.3455H89.1526V9.58008Z" fill="white"/>
<path d="M116.39 23.007C115.067 24.0582 113.205 24.5839 110.805 24.5839C108.405 24.5839 106.543 24.0582 105.22 23.007C103.898 21.9557 103.261 20.4266 103.261 18.3719V9.53174H108.111V18.3241C108.111 19.1364 108.356 19.8054 108.797 20.3311C109.237 20.8089 109.923 21.0956 110.756 21.0956C111.638 21.0956 112.275 20.8567 112.765 20.3311C113.205 19.8532 113.45 19.1842 113.45 18.3719V9.57953H118.3V18.4197C118.349 20.4266 117.712 21.9557 116.39 23.007Z" fill="white"/>
<path d="M134.662 24.3455V18.9936C134.662 18.3246 134.711 17.6557 134.76 16.9389C134.809 16.2221 134.858 15.6487 134.907 15.1709C134.956 14.693 135.005 14.4063 135.005 14.263H134.907L132.115 24.2977H128.294L125.452 14.3107H125.354C125.354 14.4541 125.403 14.7408 125.452 15.2187C125.501 15.6965 125.599 16.2699 125.648 16.9389C125.697 17.6557 125.746 18.3246 125.746 18.9936V24.3455H121.288V9.58008H128.147L130.449 18.1335H130.547L132.8 9.58008H139.414V24.3455H134.662Z" fill="white"/>
<path d="M154.6 10.0096C155.236 10.2963 155.726 10.7741 156.118 11.2998C156.51 11.8732 156.657 12.4944 156.657 13.1634C156.657 14.9792 155.824 16.126 154.11 16.6039V16.6994C156.02 17.1295 157 18.3719 157 20.3788C157 21.1434 156.804 21.8602 156.412 22.4336C156.02 23.007 155.481 23.4848 154.796 23.8193C154.11 24.1538 153.375 24.2972 152.591 24.2972H142.353V9.53174H152.444C153.277 9.57952 153.963 9.72288 154.6 10.0096ZM147.301 15.3137H150.632C150.975 15.3137 151.219 15.2181 151.415 14.9792C151.611 14.7403 151.758 14.5013 151.758 14.1668V13.9279C151.758 13.5934 151.66 13.3545 151.415 13.1156C151.17 12.8767 150.926 12.7811 150.632 12.7811H147.301V15.3137ZM147.301 20.9045H151.024C151.366 20.9045 151.611 20.8089 151.807 20.57C152.003 20.3311 152.15 20.0921 152.15 19.7576V19.5187C152.15 19.1842 152.052 18.8975 151.807 18.7064C151.611 18.4675 151.317 18.3719 151.024 18.3719H147.301V20.9045Z" fill="white"/>
</svg>
