<svg width="33" height="36" viewBox="0 0 33 36" fill="none" xmlns="http://www.w3.org/2000/svg">
<path d="M3.19117 1.18234L3.19045 1.1827C0.527568 2.57204 -0.589639 5.78467 0.630439 8.52922C2.38662 12.4801 4.74465 16.0939 7.59045 19.2586L9.74123 21.4094L24.0329 35.7011C27.6105 33.964 30.6691 31.3266 32.9163 28.0839L27.6428 22.8103C27.4395 22.5108 27.1784 22.2444 26.8628 22.0304L6.96945 2.13711C6.13445 0.906696 4.50935 0.494492 3.19117 1.18234Z" fill="#4D8538"/>
<path d="M22.4087 19.0084C21.6727 18.509 20.7058 18.5115 19.9725 19.0148L18.9167 19.7395C17.7406 20.5466 16.1766 20.5028 15.0462 19.6328C13.9809 18.8128 12.964 17.9336 11.9984 17.0019C11.0666 16.0363 10.1875 15.0195 9.36747 13.9541C8.49743 12.8237 8.45367 11.2597 9.26083 10.0836L9.98551 9.02774C10.4887 8.29444 10.4913 7.32754 9.99189 6.59154L6.96954 2.13753C6.13463 0.907214 4.50953 0.495011 3.19126 1.18277L3.19045 1.18312C0.527568 2.57247 -0.589639 5.7851 0.630439 8.52965C2.38662 12.4805 4.74465 16.0943 7.59045 19.2591L9.74123 21.4098C12.9061 24.2555 16.5198 26.6137 20.4706 28.3698C23.2153 29.5899 26.4278 28.4727 27.8172 25.8098L27.8175 25.809C28.5053 24.4908 28.0932 22.8657 26.8627 22.0307L22.4087 19.0084Z" fill="white"/>
</svg>
