<svg width="26" height="26" viewBox="0 0 26 26" fill="none" xmlns="http://www.w3.org/2000/svg">
<path d="M15.9402 19.1293C18.0375 15.6508 20.6883 10.7605 20.6883 8.24687C20.6883 4.00664 17.2402 0.558594 13 0.558594C8.75975 0.558594 5.31171 4.00664 5.31171 8.24687C5.31171 10.7605 7.96249 15.6508 10.0598 19.1293C7.57147 19.3172 1.90936 19.9926 1.90936 22.232C1.90936 24.4359 7.6578 25.4414 13.0051 25.4414C18.3473 25.4414 24.1008 24.4359 24.1008 22.232C24.0957 19.9926 18.4285 19.3172 15.9402 19.1293ZM6.37303 8.24687C6.37303 4.59062 9.34882 1.61484 13 1.61484C16.6562 1.61484 19.632 4.59062 19.632 8.24687C19.632 11.441 14.5437 19.4543 13 21.8105C11.4562 19.4543 6.37303 11.441 6.37303 8.24687ZM13 24.3801C6.50507 24.3801 2.96561 22.9582 2.96561 22.227C2.96561 21.6633 5.30155 20.4496 10.6844 20.1398C11.6949 21.7699 12.4617 22.9227 12.5633 23.0598C12.7004 23.2426 13.1016 23.4609 13.4418 23.0598C13.5484 22.9328 14.3101 21.7699 15.3207 20.1398C20.7035 20.4496 23.0394 21.6582 23.0394 22.227C23.0344 22.9633 19.4949 24.3801 13 24.3801Z" fill="#474747"/>
<path d="M16.3465 8.24688C16.3465 6.39844 14.8484 4.90039 13 4.90039C11.1515 4.90039 9.6535 6.39844 9.6535 8.24688C9.6535 10.0953 11.1515 11.5934 13 11.5934C14.8484 11.5934 16.3465 10.0953 16.3465 8.24688ZM10.7098 8.24688C10.7098 6.98242 11.7355 5.95664 13 5.95664C14.2644 5.95664 15.2902 6.98242 15.2902 8.24688C15.2902 9.51133 14.2644 10.5371 13 10.5371C11.7355 10.5371 10.7098 9.51133 10.7098 8.24688Z" fill="#F0AE20"/>
</svg>
