<svg width="41" height="41" viewBox="0 0 41 41" fill="none" xmlns="http://www.w3.org/2000/svg">
<path d="M34.7754 11.5297L34.7735 11.5268C34.4511 11.1028 34.0319 10.7588 33.5496 10.5223C33.0673 10.2859 32.5352 10.1636 31.996 10.1654H9.004C8.46541 10.1636 7.93388 10.2856 7.45193 10.5215C6.96998 10.7574 6.551 11.1008 6.22849 11.524L6.22657 11.5268C5.76952 12.1166 5.52311 12.8376 5.52541 13.5785V27.6897C5.52642 28.5946 5.89324 29.4622 6.54539 30.1021C7.19753 30.7419 8.08173 31.1018 9.004 31.1028H31.996C32.9183 31.1018 33.8025 30.7419 34.4547 30.1021C35.1068 29.4622 35.4736 28.5946 35.4746 27.6897V13.5785C35.477 12.8388 35.2313 12.1188 34.7754 11.5297ZM31.996 11.2653C32.5388 11.2638 33.0651 11.4481 33.4842 11.7864L22.2015 20.0684C21.7093 20.4266 21.1127 20.62 20.4999 20.62C19.887 20.62 19.2904 20.4266 18.7982 20.0684L7.51551 11.7861C7.93484 11.4479 8.46121 11.2638 9.004 11.2653H31.996ZM34.3535 27.6897C34.3529 28.303 34.1043 28.891 33.6623 29.3246C33.2203 29.7583 32.6211 30.0022 31.996 30.0029H9.004C8.37896 30.0022 7.77972 29.7583 7.33775 29.3246C6.89578 28.891 6.64718 28.303 6.6465 27.6897V13.5785C6.64803 13.2645 6.71564 12.9542 6.84509 12.667L18.1271 20.9484C18.8136 21.4478 19.6455 21.7174 20.5 21.7174C21.3546 21.7174 22.1865 21.4478 22.8729 20.9484L34.1549 12.6677C34.2844 12.9548 34.352 13.2651 34.3535 13.5791V27.6897Z" fill="#474747"/>
<ellipse cx="33.0278" cy="23.9864" rx="7.97222" ry="7.82214" fill="white"/>
<g clip-path="url(#clip0_195_3745)">
<path d="M37.8597 19.1199C36.569 17.8292 34.853 17.1184 33.0278 17.1184C31.2025 17.1184 29.4865 17.8292 28.1959 19.1199C26.9052 20.4105 26.1945 22.1265 26.1945 23.9518C26.1945 25.777 26.9052 27.493 28.1959 28.7837C29.4865 30.0743 31.2025 30.7851 33.0278 30.7851C33.2489 30.7851 33.4282 30.6058 33.4282 30.3847C33.4282 30.1636 33.2489 29.9843 33.0278 29.9843C29.7014 29.9843 26.9952 27.2781 26.9952 23.9518C26.9952 20.6254 29.7014 17.9192 33.0278 17.9192C36.3541 17.9192 39.0603 20.6254 39.0603 23.9518V25.56C39.0603 26.226 38.5185 26.7679 37.8525 26.7679C37.1865 26.7679 36.6447 26.226 36.6447 25.56V23.9518C36.6447 21.9574 35.0221 20.3349 33.0278 20.3349C31.0334 20.3349 29.4109 21.9574 29.4109 23.9518C29.4109 25.9461 31.0334 27.5686 33.0278 27.5686C34.2107 27.5686 35.2628 26.9978 35.9231 26.1171C36.1653 26.9544 36.9382 27.5686 37.8525 27.5686C38.9601 27.5686 39.8611 26.6676 39.8611 25.56V23.9518C39.8611 22.1265 39.1503 20.4105 37.8597 19.1199ZM33.0278 26.7679C31.475 26.7679 30.2117 25.5046 30.2117 23.9518C30.2117 22.399 31.475 21.1357 33.0278 21.1357C34.5806 21.1357 35.8439 22.399 35.8439 23.9518C35.8439 25.5046 34.5806 26.7679 33.0278 26.7679Z" fill="#F0AE20"/>
</g>
<defs>
<clipPath id="clip0_195_3745">
<rect width="13.6667" height="13.6667" fill="white" transform="translate(26.1945 17.1184)"/>
</clipPath>
</defs>
</svg>
