<svg width="80" height="80" viewBox="0 0 80 80" fill="none" xmlns="http://www.w3.org/2000/svg">
<circle cx="40" cy="40" r="40" fill="#F8F8F8"/>
<path d="M77.0668 18.5297L63.9955 5.57401C62.1047 3.69875 59.5897 2.66675 56.914 2.66675C54.2382 2.66675 51.7233 3.69875 49.8325 5.57401L35.1913 20.0868C32.744 22.5113 31.3979 25.7325 31.3979 29.1614C31.3979 31.4565 32.0137 33.6534 33.1475 35.5863L4.66667 64.8041V77.3334H17.309L19.8756 74.8695L24.9666 74.2868L25.624 70.2893L29.6625 69.7654L30.324 65.7767L34.3661 65.2481L35.0282 61.2594L39.2067 60.709L39.3396 56.1858L46.783 49.1047C48.7343 50.2272 50.9514 50.8388 53.2688 50.8388C56.7271 50.8388 59.9783 49.5045 62.4256 47.0801L77.0668 32.5673C78.9588 30.692 80 28.1993 80 25.5485C80 22.8976 78.9588 20.4049 77.0668 18.5297ZM36.9398 55.1285L36.8389 58.5909L32.9226 59.1066L32.2617 63.0935L28.2178 63.6227L27.5581 67.6096L23.5172 68.1359L22.8646 72.1058L18.7768 72.5738L16.3254 74.9248H8.81494L12.8161 70.9591L11.0979 69.2561L7.09677 73.2218V65.7767L34.5874 37.5768C34.7843 37.7996 34.9772 38.0249 35.1913 38.236L44.1132 47.0801C44.3262 47.2912 44.551 47.4811 44.7753 47.6751L36.9398 55.1285ZM75.3486 30.8643L60.7075 45.3771C58.7194 47.3464 56.078 48.4302 53.2688 48.4302C50.4596 48.4302 47.8183 47.3464 45.8302 45.3771L36.9083 36.533C34.9214 34.5637 33.828 31.9457 33.828 29.1614C33.828 26.377 34.9214 23.7591 36.9095 21.7897L51.5507 7.27696C52.9834 5.85685 54.8873 5.07535 56.914 5.07535C58.9407 5.07535 60.8445 5.85685 62.2773 7.27696L75.3486 20.2326C76.7814 21.6539 77.5699 23.5409 77.5699 25.5485C77.5699 27.556 76.7814 29.443 75.3486 30.8643Z" fill="#5D5D5D"/>
<path d="M18.6667 62.277L36.9436 44L38.6667 45.7236L20.3897 64L18.6667 62.277Z" fill="#5D5D5D"/>
<path d="M13.3333 67.0098L16.0671 64.6667L18 66.3237L15.2669 68.6667L13.3333 67.0098Z" fill="#F0AE20"/>
<path d="M38.6667 25.9167V26.417C38.6667 35.7454 46.2546 43.3334 55.5831 43.3334H56.0834L63.3333 36.0835L45.9166 18.6667L38.6667 25.9167ZM55.0911 40.9085C47.4871 40.6536 41.3464 34.5141 41.0916 26.909L45.9166 22.084L59.9161 36.0835L55.0911 40.9085Z" fill="#F0AE20"/>
<path d="M55.7502 10H55.2499L48 17.2499L65.4168 34.6667L72.6667 27.4168V26.9164C72.6667 17.588 65.0787 10 55.7502 10ZM65.4168 31.2494L51.4173 17.2499L56.2423 12.4249C63.8462 12.6798 69.9869 18.8193 70.2418 26.4244L65.4168 31.2494Z" fill="#F0AE20"/>
<path d="M61.6667 16.6667C59.6453 16.6667 58 18.3121 58 20.3334C58 22.3547 59.6453 24.0001 61.6667 24.0001C63.688 24.0001 65.3333 22.3547 65.3333 20.3334C65.3333 18.3121 63.688 16.6667 61.6667 16.6667ZM61.6667 21.5556C60.9935 21.5556 60.4444 21.0078 60.4444 20.3334C60.4444 19.659 60.9935 19.1112 61.6667 19.1112C62.3398 19.1112 62.8889 19.659 62.8889 20.3334C62.8889 21.0078 62.3398 21.5556 61.6667 21.5556Z" fill="#5D5D5D"/>
<path d="M49.6667 36.6666C51.688 36.6666 53.3333 35.0212 53.3333 32.9999C53.3333 30.9786 51.688 29.3333 49.6667 29.3333C47.6453 29.3333 46 30.9786 46 32.9999C46 35.0212 47.6453 36.6666 49.6667 36.6666ZM49.6667 31.7777C50.3398 31.7777 50.8889 32.3255 50.8889 32.9999C50.8889 33.6743 50.3398 34.2221 49.6667 34.2221C48.9935 34.2221 48.4444 33.6743 48.4444 32.9999C48.4444 32.3255 48.9935 31.7777 49.6667 31.7777Z" fill="#5D5D5D"/>
</svg>
