<svg width="80" height="80" viewBox="0 0 80 80" fill="none" xmlns="http://www.w3.org/2000/svg">
<circle cx="40" cy="40" r="40" fill="#F8F8F8"/>
<path d="M23.7565 51.3601L25.4716 49.645L27.8974 52.0702L26.1817 53.7859L23.7565 51.3601Z" fill="#F0AE20"/>
<path d="M13.194 40.8001L21.329 48.9351L23.0441 47.2199L16.6254 40.8001L29.1086 28.3157L27.3935 26.6006L13.194 40.8001Z" fill="#5E5E5E"/>
<path d="M77.5997 19.1448C77.5997 10.3524 70.4473 3.19995 61.6549 3.19995C54.7026 3.19995 48.6026 7.64766 46.4741 14.2665L44.7625 19.5901L37.7196 12.5478C36.3865 11.2123 34.611 10.4774 32.7223 10.4774C30.8337 10.4774 29.0581 11.2123 27.7238 12.5478L4.4702 35.8015C3.15425 37.1174 2.39973 38.9391 2.39973 40.8C2.39973 42.6608 3.15425 44.4825 4.4702 45.7984L7.98631 49.3146L5.86373 55.6835L25.1174 74.9371L31.4851 72.8134L35.0012 76.3295C36.3356 77.665 38.1111 78.4 39.9997 78.4C41.8884 78.4 43.6639 77.665 44.9982 76.3295L68.2519 53.0759C69.5678 51.7599 70.3223 49.9382 70.3223 48.0774C70.3223 46.2166 69.5678 44.3948 68.2519 43.0789L61.2084 36.0372L66.5344 34.3256C73.152 32.1971 77.5997 26.0971 77.5997 19.1448ZM42.4255 42.0129H42.6162L47.4761 40.4505C48.9011 43.494 48.8336 46.396 47.2156 48.0146C46.0725 49.1558 44.2727 49.5509 42.1407 49.1239C39.8321 48.6619 37.465 47.3134 35.4756 45.3241C33.4863 43.3347 32.1378 40.9676 31.6758 38.659C31.2488 36.5281 31.6439 34.7271 32.7851 33.5841C34.4037 31.9649 37.3045 31.8974 40.3492 33.3235L38.8449 38.0028L38.7868 38.3741C38.7868 40.3801 40.4196 42.0129 42.4255 42.0129ZM41.096 31.0008C37.2026 29.2786 33.3738 29.5646 31.0706 31.8708C29.3371 33.6037 28.7075 36.1846 29.298 39.1358C29.8523 41.9086 31.4378 44.7164 33.7617 47.0404C36.0856 49.3643 38.8923 50.9497 41.6663 51.5041C42.3894 51.648 43.0888 51.7208 43.7599 51.7208C45.8303 51.7208 47.623 51.0403 48.9313 49.7303C51.2351 47.4271 51.5223 43.5983 49.8001 39.7049L53.4216 38.5406L62.959 48.0774L39.9997 71.0367L9.76303 40.8L32.7223 17.8407L42.2603 27.3781L41.096 31.0008ZM25.7724 72.1595L8.63896 55.0261L9.90398 51.2322L29.5675 70.8957L25.7724 72.1595ZM66.5367 44.794C67.4002 45.6587 67.8965 46.855 67.8965 48.0774C67.8965 49.2998 67.4002 50.4961 66.5367 51.3607L43.2831 74.6144C41.5295 76.3674 38.47 76.3674 36.7164 74.6144L6.18532 44.0833C5.32184 43.2187 4.82554 42.0223 4.82554 40.8C4.82554 39.5776 5.32184 38.3813 6.18532 37.5166L29.4389 14.263C31.1926 12.5099 34.2521 12.5099 36.0057 14.263L43.9298 22.1853L43.0948 24.7823L34.4386 16.1261C33.494 15.1809 31.9536 15.1809 31.0084 16.1261L8.0485 39.0848C7.1021 40.03 7.1021 41.5699 8.0485 42.5151L38.2846 72.7512C38.7578 73.2244 39.3785 73.4613 39.9997 73.4613C40.621 73.4613 41.2417 73.2244 41.7149 72.7512L64.6736 49.7925C65.6199 48.8473 65.6199 47.3075 64.6736 46.3623L56.0162 37.7061L58.6132 36.8716L66.5367 44.794ZM42.268 39.5764C41.7255 39.5047 41.2938 39.0754 41.2233 38.5329L48.785 15.0074C50.5884 9.39535 55.7604 5.62576 61.6549 5.62576C69.1094 5.62576 75.1739 11.6903 75.1739 19.1448C75.1739 25.0381 71.4043 30.2113 65.7923 32.0135L42.268 39.5764Z" fill="#5E5E5E"/>
<path d="M61.8315 8.05151C55.8132 8.05151 50.9154 12.9481 50.9154 18.9676C50.9154 24.9872 55.8132 29.8838 61.8315 29.8838C67.8498 29.8838 72.7476 24.9872 72.7476 18.9676C72.7476 12.9481 67.8498 8.05151 61.8315 8.05151ZM61.8315 27.458C57.1499 27.458 53.3412 23.6481 53.3412 18.9676C53.3412 14.2872 57.1499 10.4773 61.8315 10.4773C66.5131 10.4773 70.3218 14.2872 70.3218 18.9676C70.3218 23.6481 66.5131 27.458 61.8315 27.458Z" fill="#F0AE20"/>
</svg>
