<svg width="100" height="100" viewBox="0 0 100 100" fill="none" xmlns="http://www.w3.org/2000/svg">
<circle cx="50" cy="50" r="50" fill="#F0AE20"/>
<path d="M85.5293 32.8724L67.1273 14.4704C65.8113 13.1544 63.9896 12.3999 62.1288 12.3999C60.268 12.3999 58.4463 13.1544 57.1303 14.4704L14.4702 57.1305C13.1347 58.4648 12.3997 60.2403 12.3997 62.1289C12.3997 64.0176 13.1347 65.7931 14.4702 67.1274L32.8722 85.5294C34.1882 86.8454 36.0099 87.5999 37.8707 87.5999C39.7315 87.5999 41.5533 86.8454 42.8692 85.5294L85.5293 42.8694C86.8648 41.535 87.5998 39.7595 87.5998 37.8709C87.5998 35.9822 86.8648 34.2067 85.5293 32.8724ZM78.105 43.4332L79.8201 45.1483L45.1481 79.8203L43.433 78.1051L78.105 43.4332ZM37.8707 80.2378L19.7619 62.1289L62.1288 19.762L80.2376 37.8709L37.8707 80.2378ZM32.3084 78.1051L30.5933 79.8203L20.1794 69.4064L21.8945 67.6912L32.3084 78.1051ZM21.8945 56.5666L20.1794 54.8515L54.8514 20.1795L56.5665 21.8947L21.8945 56.5666ZM67.6911 21.8947L69.4062 20.1795L79.8201 30.5935L78.105 32.3086L67.6911 21.8947ZM58.8454 16.1855C59.7101 15.322 60.9064 14.8257 62.1288 14.8257C63.3512 14.8257 64.5475 15.322 65.4122 16.1855L67.6911 18.4644L65.976 20.1795L63.6947 17.8982C62.8673 17.0768 61.3926 17.0744 60.5605 17.9006L58.2816 20.1795L56.5665 18.4644L58.8454 16.1855ZM14.8256 62.1289C14.8256 60.8894 15.3082 59.7227 16.1853 58.8456L18.4643 56.5666L20.1794 58.2818L17.8981 60.5631C17.4865 60.9764 17.2514 61.548 17.2514 62.1289C17.2514 62.7099 17.4865 63.2814 17.9005 63.6972L20.1794 65.9761L18.4643 67.6912L16.1853 65.4123C15.3082 64.5352 14.8256 63.3685 14.8256 62.1289ZM41.1541 83.8143C40.2894 84.6778 39.0931 85.1741 37.8707 85.1741C36.6483 85.1741 35.452 84.6778 34.5874 83.8143L32.3084 81.5354L34.0235 79.8203L36.3048 82.1016C36.7182 82.5132 37.2897 82.7483 37.8707 82.7483C38.4517 82.7483 39.0232 82.5132 39.439 82.0992L41.7179 79.8203L43.433 81.5354L41.1541 83.8143ZM83.8142 41.1542L81.5352 43.4332L79.8201 41.7181L82.1014 39.4367C82.513 39.0234 82.7481 38.4519 82.7481 37.8709C82.7481 37.2899 82.513 36.7184 82.099 36.3026L79.8201 34.0237L81.5352 32.3086L83.8142 34.5875C84.6913 35.4646 85.174 36.6313 85.174 37.8709C85.174 39.1104 84.6913 40.2771 83.8142 41.1542Z" fill="white"/>
<path d="M33.7319 64.5547L33.0212 65.2642C32.3721 65.9133 31.2445 65.9133 30.5954 65.2642L27.4589 62.1289L29.3825 60.2065C30.0316 59.5574 31.1592 59.5574 31.8083 60.2065L32.1636 60.5619L33.8788 58.8467L33.5234 58.4902C31.9575 56.9267 29.2332 56.9255 27.6674 58.4902L24.0287 62.1289L28.8803 66.9805C30.4461 68.544 33.1704 68.5452 34.7363 66.9805L35.447 66.271C36.0961 65.6219 37.2237 65.6219 37.8728 66.271L41.0093 69.4063L39.0857 71.3287C38.4366 71.9778 37.309 71.9778 36.6599 71.3287L36.3046 70.9734L34.5894 72.6885L34.9448 73.0451C35.7283 73.8274 36.7677 74.258 37.8728 74.258C38.9779 74.258 40.0185 73.8274 40.8008 73.0451L44.4395 69.4063L39.5879 64.5547C38.0221 62.99 35.2978 62.99 33.7319 64.5547Z" fill="white"/>
<path d="M36.1562 58.4903L41.5101 63.8441L48.0768 57.2774L42.723 51.9236L36.1562 58.4903ZM41.5101 60.4139L39.5865 58.4903L42.723 55.3538L44.6466 57.2774L41.5101 60.4139Z" fill="white"/>
<path d="M53.6382 56.7753L53.5422 56.6793L51.393 45.9296C51.2135 45.0271 50.7735 44.2074 50.1232 43.5559L49.4368 42.8707C48.5585 41.9924 47.3942 41.5098 46.1523 41.5098C43.5926 41.5098 41.5091 43.5921 41.5091 46.1541C41.5091 47.3936 41.9918 48.5592 42.8689 49.4375L44.2903 50.8576L46.0054 49.1425L44.584 47.7223C44.1653 47.3024 43.9349 46.7457 43.9349 46.1541C43.9349 44.9299 44.9293 43.9356 46.1523 43.9356C46.7356 43.9356 47.3065 44.1719 47.7205 44.5858L48.4069 45.2711C48.7173 45.5814 48.9275 45.9735 49.0134 46.4052L51.3083 57.8757L53.6382 60.2055L60.5602 53.2835L58.8451 51.5683L53.6382 56.7753Z" fill="white"/>
<path d="M59.3905 33.4185C58.3523 32.3791 56.9695 31.8064 55.5007 31.8064C52.4673 31.8064 50 34.2748 50 37.3083C50 38.7782 50.5727 40.1599 51.6109 41.1981L58.803 48.3891C59.8412 49.4273 61.2241 49.9999 62.6928 49.9999C65.7263 49.9999 68.1935 47.5315 68.1935 44.4981C68.1935 43.0281 67.6209 41.6464 66.5827 40.6082L59.3905 33.4185ZM62.6928 47.5741C61.872 47.5741 61.1003 47.2537 60.5181 46.6728L53.326 39.4818C52.7462 38.902 52.4258 38.1291 52.4258 37.3083C52.4258 35.6127 53.8063 34.2322 55.5007 34.2322C56.3215 34.2322 57.0932 34.5526 57.6754 35.1336L64.8675 42.3245C65.4473 42.9043 65.7677 43.6772 65.7677 44.4981C65.7677 46.1936 64.3872 47.5741 62.6928 47.5741Z" fill="white"/>
<path d="M62.131 25.2397L59.5755 27.7953L60.9543 33.3143L63.3078 32.7244L62.3484 28.8867L73.4025 39.9415L75.1176 38.2263L62.131 25.2397Z" fill="white"/>
</svg>
