<svg width="80" height="80" viewBox="0 0 80 80" fill="none" xmlns="http://www.w3.org/2000/svg">
<circle cx="40" cy="40" r="40" fill="#F8F8F8"/>
<path d="M64.3102 3C58.8772 3 54.0307 6.24574 51.9623 11.2689L46.794 23.822L42.5359 28.0795L44.9245 30.468L41.8362 33.5563L33.6186 25.3388C32.3048 24.025 30.5601 23.3025 28.7028 23.3025C26.8438 23.3025 25.0961 24.0261 23.784 25.3434L3.6641 45.499V45.9923C3.65127 54.2816 6.87193 62.0804 12.7295 67.9462C18.5877 73.8137 26.3802 77.0443 34.6706 77.0443H35.1651L55.3253 56.8841C56.6391 55.5703 57.3616 53.8244 57.3616 51.9613C57.3616 50.104 56.6391 48.3581 55.3253 47.0454L47.1077 38.8279L50.196 35.7396L52.5845 38.1281L56.842 33.8706L69.3952 28.7017C74.4183 26.6333 77.6641 21.7857 77.6641 16.3544C77.6641 8.99056 71.6741 3 64.3102 3ZM75.1992 15.1077L64.2455 20.9058C61.8343 20.7647 59.8982 18.8286 59.7577 16.4174L65.557 5.46375C70.6087 6.03931 74.6248 10.0571 75.1992 15.1077ZM53.6371 48.7342C54.499 49.5967 54.9731 50.7431 54.9731 51.9683C54.9731 53.1876 54.499 54.3329 53.6371 55.1953L34.1802 74.6511C26.712 74.5269 19.7103 71.5576 14.4195 66.2592C9.12809 60.9585 6.16867 53.9533 6.05612 46.4845L25.4751 27.0299C27.196 25.305 30.2055 25.3026 31.931 27.0275L40.1474 35.2451L35.8649 39.5276L33.4763 37.1391L13.1739 57.4416V57.9361C13.1739 63.2041 17.4605 67.4902 22.728 67.4902H23.2225L43.5249 47.1877L41.1364 44.7992L45.419 40.5166L53.6371 48.7342ZM34.6706 50.7705H35.1651L39.4477 46.488L40.1474 47.1877L22.2492 65.0848C18.6787 64.8497 15.8143 61.9848 15.5782 58.4148L33.4763 40.5166L34.1761 41.2164L29.8936 45.499V45.9935C29.8936 48.6281 32.036 50.7705 34.6706 50.7705ZM34.2193 48.3388C33.2641 48.1563 32.5089 47.4017 32.3264 46.4448L46.6132 32.1568L48.5073 34.0508L34.2193 48.3388ZM52.5845 34.7506L45.9135 28.0795L47.8075 26.1855L54.4786 32.8566L52.5845 34.7506ZM68.4849 26.4922L56.4484 31.4495L49.2146 24.2162L54.1707 12.1791C55.6793 8.5153 58.9897 6.01423 62.8361 5.49816L57.3616 15.8407V16.1369C57.3616 20.0888 60.5753 23.3025 64.5272 23.3025H64.8246L75.1671 17.828C74.6498 21.6738 72.1493 24.9842 68.4849 26.4922Z" fill="#5D5D5D"/>
<path d="M32.7766 34.0508L27.505 28.7793L7.90234 48.382L13.1739 53.6535L32.7766 34.0508ZM22.2335 41.2164L20.3395 43.1104L18.4454 41.2164L20.3395 39.3224L22.2335 41.2164ZM22.0282 37.6336L23.9223 35.7396L25.8163 37.6336L23.9223 39.5277L22.0282 37.6336ZM18.6507 44.7992L16.7567 46.6932L14.8627 44.7992L16.7567 42.9052L18.6507 44.7992ZM29.3991 34.0508L27.505 35.9449L25.611 34.0508L27.505 32.1568L29.3991 34.0508ZM13.1739 46.488L15.0679 48.382L13.1739 50.276L11.2799 48.382L13.1739 46.488Z" fill="#5D5D5D"/>
<path d="M27.1575 70.7231L29.8959 67.9847L33.8286 71.9174L35.5174 70.2286L31.5847 66.2959L33.4787 64.4019L36.2171 67.1403L37.9059 65.4515L35.1675 62.7131L37.0615 60.8191L40.9942 64.7518L42.6829 63.063L38.7503 59.1303L40.6443 57.2363L43.3827 59.9747L45.0715 58.286L42.333 55.5476L44.2271 53.6535L48.1597 57.5862L49.8485 55.8974L45.9158 51.9648L48.6542 49.2264L46.9655 47.5376L25.4688 69.0343L27.1575 70.7231Z" fill="#F0AE20"/>
</svg>
