<svg width="80" height="80" viewBox="0 0 80 80" fill="none" xmlns="http://www.w3.org/2000/svg">
<circle cx="40" cy="40" r="40" fill="#F8F8F8"/>
<g clip-path="url(#clip0_472_5)">
<path d="M12.242 65.2258C10.2947 65.2258 8.70972 66.8109 8.70972 68.7581C8.70972 70.7053 10.2947 72.2903 12.242 72.2903C14.1892 72.2903 15.7742 70.7053 15.7742 68.7581C15.7742 66.8109 14.1892 65.2258 12.242 65.2258ZM12.242 69.9355C11.5935 69.9355 11.0646 69.4077 11.0646 68.7581C11.0646 68.1084 11.5935 67.5807 12.242 67.5807C12.8905 67.5807 13.4194 68.1084 13.4194 68.7581C13.4194 69.4077 12.8905 69.9355 12.242 69.9355Z" fill="#F0AE20"/>
<path d="M77 12.6702C77 7.89043 73.1107 4 68.3298 4C66.0134 4 63.8362 4.90204 62.1989 6.53996L58.0049 10.7322C57.0874 10.1958 56.0502 9.8871 54.9585 9.8871C52.8732 9.8871 50.9599 10.9386 49.8394 12.6978L42.5312 24.1811L44.721 26.371L41.6774 29.4157L40.8863 28.6246C40.1924 27.9301 39.2697 27.5484 38.2877 27.5484C36.2612 27.5484 34.6129 29.1967 34.6129 31.2232C34.6129 32.1908 35.005 33.1377 35.6891 33.8218L36.4802 34.6129L33.4355 37.6576L32.6444 36.8666C31.9505 36.1721 31.0278 35.7903 30.0458 35.7903C28.0192 35.7903 26.371 37.4386 26.371 39.4652C26.371 40.4327 26.7631 41.3796 27.4472 42.0638L28.2383 42.8548L25.1935 45.8996L24.4025 45.1085C23.7085 44.414 22.7858 44.0323 21.8039 44.0323C19.7773 44.0323 18.129 45.6805 18.129 47.7071C18.129 48.6747 18.5211 49.6215 19.2053 50.3057L19.9963 51.0968L16.9516 54.1415L16.1605 53.3504C15.4666 52.6559 14.5439 52.2742 13.5619 52.2742C11.5354 52.2742 9.8871 53.9225 9.8871 55.949C9.8871 56.9166 10.2792 57.8635 10.9633 58.5476L11.7544 59.3387L6.05129 65.0407C4.72899 66.3641 4 68.1234 4 69.9941C4 73.8575 7.14247 77 11.0059 77C12.8766 77 14.6359 76.271 15.9593 74.9476L21.6613 69.2456L22.4524 70.0367C23.1463 70.7312 24.069 71.1129 25.051 71.1129C27.0775 71.1129 28.7258 69.4646 28.7258 67.4381C28.7258 66.4705 28.3337 65.5236 27.6496 64.8395L26.8585 64.0484L29.9032 61.0037L30.6943 61.7947C31.3882 62.4892 32.311 62.871 33.2929 62.871C35.3195 62.871 36.9677 61.2227 36.9677 59.1961C36.9677 58.2286 36.5756 57.2817 35.8915 56.5975L35.1004 55.8064L38.1452 52.7617L38.9362 53.5528C39.6302 54.2473 40.5529 54.629 41.5348 54.629C43.5614 54.629 45.2097 52.9808 45.2097 50.9542C45.2097 49.9866 44.8176 49.0397 44.1334 48.3556L43.3424 47.5645L46.3871 44.5198L47.1782 45.3109C47.8721 46.0054 48.7948 46.3871 49.7768 46.3871C51.8033 46.3871 53.4516 44.7388 53.4516 42.7123C53.4516 41.7447 53.0595 40.7978 52.3754 40.1137L51.5843 39.3226L54.629 36.2778L56.8189 38.4677L68.3022 31.1594C70.0625 30.0412 71.1129 28.1279 71.1129 26.0427C71.1129 24.9509 70.8042 23.9138 70.2661 22.9951L74.46 18.8023C76.098 17.1649 77 14.9866 77 12.6702ZM14.2932 73.2826C13.4159 74.1611 12.2477 74.6452 11.0059 74.6452C8.44119 74.6452 6.35484 72.5588 6.35484 69.9941C6.35484 68.7523 6.83891 67.5841 7.71738 66.7056L13.4194 61.0037L19.9963 67.5806L14.2932 73.2826ZM25.051 68.7581C24.698 68.7581 24.3668 68.6212 24.1173 68.3717L12.6283 56.8827C12.3834 56.6366 12.2419 56.2963 12.2419 55.949C12.2419 55.2212 12.8341 54.629 13.5619 54.629C13.9149 54.629 14.2461 54.7659 14.4956 55.0154L25.9846 66.5044C26.2295 66.7505 26.371 67.0908 26.371 67.4381C26.371 68.1659 25.7788 68.7581 25.051 68.7581ZM25.1935 62.3834L18.6166 55.8064L21.6613 52.7617L28.2383 59.3387L25.1935 62.3834ZM33.2929 60.5161C32.9399 60.5161 32.6088 60.3793 32.3592 60.1298L20.8702 48.6408C20.6253 48.3947 20.4839 48.0543 20.4839 47.7071C20.4839 46.9793 21.076 46.3871 21.8039 46.3871C22.1569 46.3871 22.488 46.5239 22.7375 46.7734L34.2266 58.2625C34.4715 58.5085 34.6129 58.8489 34.6129 59.1961C34.6129 59.924 34.0207 60.5161 33.2929 60.5161ZM33.4355 54.1415L26.8585 47.5645L29.9032 44.5198L36.4802 51.0968L33.4355 54.1415ZM41.5348 52.2742C41.1818 52.2742 40.8507 52.1374 40.6012 51.8879L29.1121 40.3988C28.8672 40.1528 28.7258 39.8124 28.7258 39.4652C28.7258 38.7373 29.318 38.1452 30.0458 38.1452C30.3988 38.1452 30.7299 38.282 30.9795 38.5315L42.4685 50.0205C42.7134 50.2666 42.8548 50.6069 42.8548 50.9542C42.8548 51.682 42.2627 52.2742 41.5348 52.2742ZM41.6774 45.8996L35.1004 39.3226L38.1452 36.2778L44.7221 42.8548L41.6774 45.8996ZM49.7768 44.0323C49.4238 44.0323 49.0926 43.8954 48.8431 43.6459L37.3541 32.1569C37.1092 31.9108 36.9677 31.5705 36.9677 31.2232C36.9677 30.4954 37.5599 29.9032 38.2877 29.9032C38.6407 29.9032 38.9719 30.0401 39.2214 30.2896L50.7104 41.7786C50.9553 42.0247 51.0968 42.365 51.0968 42.7123C51.0968 43.4401 50.5046 44.0323 49.7768 44.0323ZM49.9194 37.6576L43.3424 31.0806L46.3871 28.0359L52.9641 34.6129L49.9194 37.6576ZM45.5322 23.8511L50.6483 15.8133L65.1867 30.3517L57.1489 35.4678L45.5322 23.8511ZM67.2029 29.038L51.962 13.7971C52.6605 12.8283 53.7552 12.2419 54.9585 12.2419C55.9502 12.2419 56.8827 12.6283 57.5829 13.3297L67.6703 23.4159C68.3717 24.1173 68.7581 25.0498 68.7581 26.0427C68.7581 27.246 68.1717 28.3406 67.2029 29.038ZM68.7581 21.1738L59.8262 12.2419L63.8633 8.20433C65.0562 7.01196 66.6435 6.35484 68.3298 6.35484C71.8126 6.35484 74.6452 9.18743 74.6452 12.6702C74.6452 14.3576 73.988 15.9438 72.7957 17.1367L68.7581 21.1738Z" fill="#5D5D5D"/>
<path d="M68.7582 8.70972C66.811 8.70972 65.226 10.2947 65.226 12.242C65.226 14.1892 66.811 15.7742 68.7582 15.7742C70.7054 15.7742 72.2905 14.1892 72.2905 12.242C72.2905 10.2947 70.7054 8.70972 68.7582 8.70972ZM68.7582 13.4194C68.1097 13.4194 67.5808 12.8916 67.5808 12.242C67.5808 11.5923 68.1097 11.0646 68.7582 11.0646C69.4067 11.0646 69.9356 11.5923 69.9356 12.242C69.9356 12.8916 69.4067 13.4194 68.7582 13.4194Z" fill="#F0AE20"/>
</g>
<defs>
<clipPath id="clip0_472_5">
<rect width="73" height="73" fill="white" transform="translate(4 4)"/>
</clipPath>
</defs>
</svg>
